<svg xmlns="http://www.w3.org/2000/svg" xmlns:xlink="http://www.w3.org/1999/xlink" xmlns:inkscape="http://www.inkscape.org/namespaces/inkscape" version="1.1" width="261" height="183" viewBox="0 0 261 183">
<defs>
<path id="font_1_1" d="M.33399964 .30233766C.33999635 .32835389 .36299134 .42037965 .43299867 .42037965 .43798829 .42037965 .46199037 .42037965 .48298646 .40734864 .45498658 .402359 .43499757 .37734986 .43499757 .35334779 .43499757 .33735658 .44599916 .31835938 .47299195 .31835938 .49499513 .31835938 .5269928 .3363495 .5269928 .37635804 .5269928 .42837525 .46798707 .4423828 .43399049 .4423828 .37599183 .4423828 .34098817 .38935853 .32899476 .36634828 .3039856 .43237306 .25 .4423828 .22099304 .4423828 .116989139 .4423828 .05999756 .3133545 .05999756 .28834535 .05999756 .27833558 .069992069 .27833558 .07199097 .27833558 .07998657 .27833558 .08299255 .28033448 .084991458 .28933717 .11898804 .39535523 .18499756 .42037965 .21899414 .42037965 .23799134 .42037965 .272995 .4113617 .272995 .35334779 .272995 .32235719 .2559967 .25532533 .21899414 .11528015 .20298767 .053268434 .16799927 .011245728 .12399292 .011245728 .117996219 .011245728 .09498596 .011245728 .07398987 .024276734 .09899902 .029266358 .12098694 .05027771 .12098694 .07827759 .12098694 .105270389 .09899902 .11328125 .083999637 .11328125 .053985597 .11328125 .0289917 .08728027 .0289917 .055267335 .0289917 .009246826 .07899475-.0107421879 .12298584-.0107421879 .18899536-.0107421879 .22499085 .059280397 .22799683 .0652771 .23999024 .028274537 .27598573-.0107421879 .33599855-.0107421879 .43899537-.0107421879 .49598695 .118270877 .49598695 .14328003 .49598695 .1532898 .4869995 .1532898 .48399354 .1532898 .47499085 .1532898 .47299195 .14929199 .47099305 .14228821 .43798829 .03527832 .36999513 .011245728 .33799745 .011245728 .29899598 .011245728 .2829895 .043273927 .2829895 .07727051 .2829895 .09927368 .2889862 .121276859 .2999878 .16529846L.33399964 .30233766Z"/>
<path id="font_2_64" d="M.27598573 .18710327V.24511719H.010986328V.18710327H.27598573Z"/>
<path id="font_2_82" d="M.4189911 0V.0309906H.3869934C.29699708 .0309906 .2939911 .041992189 .2939911 .07902527V.64012148C.2939911 .6640167 .2939911 .6660156 .2709961 .6660156 .20899964 .60227969 .12098694 .60227969 .08898926 .60227969V.57128909C.10899353 .57128909 .16799927 .57128909 .21998596 .5972748V.07902527C.21998596 .042999269 .21699524 .0309906 .1269989 .0309906H.09498596V0C.12998963 .0029907227 .21699524 .0029907227 .25698854 .0029907227 .29699708 .0029907227 .38398744 .0029907227 .4189911 0Z"/>
<path id="font_2_121" d="M.45999146 .31976319C.45999146 .39982606 .45498658 .47988893 .41999818 .5539398 .37399293 .65000918 .2919922 .6660156 .25 .6660156 .18998719 .6660156 .116989139 .64001467 .07598877 .54693606 .04399109 .47789 .038986207 .39982606 .038986207 .31976319 .038986207 .24472046 .042999269 .15464783 .083999637 .07859802 .1269989-.0024719239 .19999695-.022460938 .24899292-.022460938 .30299378-.022460938 .3789978-.0014648438 .4229889 .09359741 .45498658 .16265869 .45999146 .2407074 .45999146 .31976319M.3769989 .3317871C.3769989 .25672914 .3769989 .18867493 .3659973 .12461853 .35099793 .029556275 .2939911-.00047302247 .24899292-.00047302247 .20999146-.00047302247 .15098572 .024551392 .1329956 .12062073 .12199402 .18066406 .12199402 .2727356 .12199402 .3317871 .12199402 .39582826 .12199402 .46188355 .12998963 .5159149 .14898682 .63500979 .22399903 .64401248 .24899292 .64401248 .28199769 .64401248 .34799195 .6259918 .36698915 .52693179 .3769989 .47088624 .3769989 .39482118 .3769989 .3317871Z"/>
<path id="font_2_88" d="M.19198609 .052993776C.19198609 .08198547 .16799927 .10598755 .13899231 .10598755 .10998535 .10598755 .085998538 .08198547 .085998538 .052993776 .085998538 .023986817 .10998535 0 .13899231 0 .16799927 0 .19198609 .023986817 .19198609 .052993776Z"/>
<path id="font_2_56" d="M.44898988 .20091248C.44898988 .31991578 .36698915 .41992188 .25898744 .41992188 .21099854 .41992188 .16799927 .4039154 .13198853 .36891175V.5641022C.1519928 .55778506 .18499756 .55078127 .21699524 .55078127 .33999635 .55078127 .4099884 .6418457 .4099884 .65493777 .4099884 .6609802 .40699769 .6660156 .3999939 .6660156 .3999939 .66607668 .39698792 .66607668 .3919983 .66308596 .37199403 .65408328 .32299806 .63378909 .2559967 .63378909 .21598816 .63409426 .16999817 .641098 .12298584 .6621094 .114990238 .6651001 .11099243 .6651001 .11099243 .6651001 .100997928 .66508486 .100997928 .657074 .100997928 .64108279V.3447113C.100997928 .3266449 .100997928 .31861878 .114990238 .31861878 .12199402 .31861878 .12399292 .32164 .12799073 .32765199 .13899231 .34371949 .17599488 .3979187 .25698854 .3979187 .30899049 .3979187 .33399964 .3517456 .34199525 .3336792 .35798646 .2965393 .3600006 .2574005 .3600006 .20721436 .3600006 .17218018 .3600006 .112197879 .33599855 .07032776 .31199647 .031448366 .2749939 .0055389406 .22898865 .0055389406 .1559906 .0055389406 .09899902 .05836487 .08198547 .1171875 .084991458 .11685181 .08799744 .115859989 .09899902 .115859989 .13198853 .115859989 .14898682 .14085388 .14898682 .16485596 .14898682 .18885803 .13198853 .21386719 .09899902 .21386719 .084991458 .21386719 .049987794 .2068634 .049987794 .16085816 .049987794 .07432556 .11898804-.022460938 .23098755-.022460938 .34700013-.022460938 .44898988 .07331848 .44898988 .20019531V.20091248Z"/>
<path id="font_1_2" d="M.48599244 .38136292C.48999024 .39537049 .48999024 .39736939 .48999024 .40437318 .48999024 .42237855 .47599793 .43138124 .46099855 .43138124 .45098878 .43138124 .43499757 .42536927 .42599488 .41036988 .42399598 .405365 .41600038 .37435914 .4119873 .35635377 .40499879 .33035279 .397995 .30334474 .3919983 .27633668L.34700013 .09628296C.34298707 .08126831 .2999878 .011245728 .23399353 .011245728 .18299866 .011245728 .17199707 .055267335 .17199707 .0922699 .17199707 .1382904 .18899536 .20030213 .22299195 .28833009 .23899842 .3293457 .24299622 .3403473 .24299622 .36035157 .24299622 .405365 .21099854 .4423828 .16099549 .4423828 .06599426 .4423828 .0289917 .29733277 .0289917 .28833009 .0289917 .27833558 .038986207 .27833558 .040985109 .27833558 .050994874 .27833558 .051986696 .28033448 .056991579 .29634095 .083999637 .3903656 .12399292 .42037965 .1579895 .42037965 .1659851 .42037965 .18299866 .42037965 .18299866 .3883667 .18299866 .36335755 .17298889 .3373413 .1659851 .31834413 .12599182 .21231079 .10798645 .1552887 .10798645 .10827637 .10798645 .019256592 .17098999-.0107421879 .22999573-.0107421879 .2689972-.0107421879 .30299378 .0062561037 .33099366 .03425598 .31799317-.017745972 .30599977-.06674194 .2659912-.11973572 .23999024-.15385437 .20199585-.18309021 .1559906-.18309021 .14199829-.18309021 .09700012-.18005371 .07998657-.14074707 .09599304-.14074707 .10899353-.14074707 .12298584-.1287384 .1329956-.11973572 .14299011-.10673523 .14299011-.08773804 .14299011-.056747438 .115997318-.052734376 .10598755-.052734376 .08299255-.052734376 .049987794-.068740848 .049987794-.11773682 .049987794-.16796875 .09399414-.20507813 .1559906-.20507813 .25898744-.20507813 .3619995-.11373901 .3899994-.00074768069L.48599244 .38136292Z"/>
</defs>
<path transform="matrix(1.00009,0,0,-1,125.8327,96.706)" stroke-width=".3985" stroke-linecap="butt" stroke-miterlimit="10" stroke-linejoin="miter" fill="none" stroke="#000000" d="M-124.72662 0H124.32813"/>
<path transform="matrix(1.00009,0,0,-1,250.37128,96.706)" stroke-width=".3985" stroke-linecap="round" stroke-linejoin="round" fill="none" stroke="#000000" d="M-2.07224 2.39104C-1.69365 .95639-.84999 .27895 0 0-.84999-.27895-1.69365-.95639-2.07224-2.39104"/>
<use data-text="x" xlink:href="#font_1_1" transform="matrix(9.963496,0,0,-9.9626,254.09024,93.186008)"/>
<path transform="matrix(1.00009,0,0,-1,125.8327,96.706)" stroke-width=".3985" stroke-linecap="butt" stroke-miterlimit="10" stroke-linejoin="miter" fill="none" stroke="#000000" d="M-113.38724 5.6697V-5.6697"/>
<use data-text="-" xlink:href="#font_2_64" transform="matrix(9.963496,0,0,-9.9626,8.28511,112.531009)"/>
<use data-text="1" xlink:href="#font_2_82" transform="matrix(9.963496,0,0,-9.9626,11.602951,112.531009)"/>
<path transform="matrix(1.00009,0,0,-1,125.8327,96.706)" stroke-width=".3985" stroke-linecap="butt" stroke-miterlimit="10" stroke-linejoin="miter" fill="none" stroke="#000000" d="M-56.69359 5.6697V-5.6697"/>
<use data-text="-" xlink:href="#font_2_64" transform="matrix(9.963496,0,0,-9.9626,61.10788,112.531009)"/>
<use data-text="0" xlink:href="#font_2_121" transform="matrix(9.963496,0,0,-9.9626,64.42572,112.531009)"/>
<use data-text="." xlink:href="#font_2_88" transform="matrix(9.963496,0,0,-9.9626,69.40747,112.531009)"/>
<use data-text="5" xlink:href="#font_2_56" transform="matrix(9.963496,0,0,-9.9626,72.17732,112.531009)"/>
<path transform="matrix(1.00009,0,0,-1,125.8327,96.706)" stroke-width=".3985" stroke-linecap="butt" stroke-miterlimit="10" stroke-linejoin="miter" fill="none" stroke="#000000" d="M0 5.6697V-5.6697"/>
<use data-text="0" xlink:href="#font_2_121" transform="matrix(9.963496,0,0,-9.9626,123.34148,112.531009)"/>
<path transform="matrix(1.00009,0,0,-1,125.8327,96.706)" stroke-width=".3985" stroke-linecap="butt" stroke-miterlimit="10" stroke-linejoin="miter" fill="none" stroke="#000000" d="M56.69359 5.6697V-5.6697"/>
<use data-text="0" xlink:href="#font_2_121" transform="matrix(9.963496,0,0,-9.9626,176.16423,112.531009)"/>
<use data-text="." xlink:href="#font_2_88" transform="matrix(9.963496,0,0,-9.9626,181.14597,112.531009)"/>
<use data-text="5" xlink:href="#font_2_56" transform="matrix(9.963496,0,0,-9.9626,183.91584,112.531009)"/>
<path transform="matrix(1.00009,0,0,-1,125.8327,96.706)" stroke-width=".3985" stroke-linecap="butt" stroke-miterlimit="10" stroke-linejoin="miter" fill="none" stroke="#000000" d="M113.38724 5.6697V-5.6697"/>
<use data-text="1" xlink:href="#font_2_82" transform="matrix(9.963496,0,0,-9.9626,236.73969,112.531009)"/>
<path transform="matrix(1.00009,0,0,-1,125.8327,96.706)" stroke-width=".3985" stroke-linecap="butt" stroke-miterlimit="10" stroke-linejoin="miter" fill="none" stroke="#000000" d="M0-85.0404V84.6419"/>
<path transform="matrix(0,-1,-1.00009,-0,125.8327,11.864838)" stroke-width=".3985" stroke-linecap="round" stroke-linejoin="round" fill="none" stroke="#000000" d="M-2.07224 2.39104C-1.69365 .95639-.84999 .27895 0 0-.84999-.27895-1.69365-.95639-2.07224-2.39104"/>
<use data-text="y" xlink:href="#font_1_2" transform="matrix(9.963496,0,0,-9.9626,129.35303,6.2089998)"/>
<path transform="matrix(1.00009,0,0,-1,125.8327,96.706)" stroke-width=".3985" stroke-linecap="butt" stroke-miterlimit="10" stroke-linejoin="miter" fill="none" stroke="#000000" d="M11.33939-56.69362H-11.33939"/>
<use data-text="-" xlink:href="#font_2_64" transform="matrix(9.963496,0,0,-9.9626,102.672618,156.71701)"/>
<use data-text="1" xlink:href="#font_2_82" transform="matrix(9.963496,0,0,-9.9626,105.990459,156.71701)"/>
<path transform="matrix(1.00009,0,0,-1,125.8327,96.706)" stroke-width=".3985" stroke-linecap="butt" stroke-miterlimit="10" stroke-linejoin="miter" fill="none" stroke="#000000" d="M11.33939-28.34679H-11.33939"/>
<use data-text="-" xlink:href="#font_2_64" transform="matrix(9.963496,0,0,-9.9626,94.92092,128.261)"/>
<use data-text="0" xlink:href="#font_2_121" transform="matrix(9.963496,0,0,-9.9626,98.23876,128.261)"/>
<use data-text="." xlink:href="#font_2_88" transform="matrix(9.963496,0,0,-9.9626,103.22051,128.261)"/>
<use data-text="5" xlink:href="#font_2_56" transform="matrix(9.963496,0,0,-9.9626,105.990367,128.261)"/>
<path transform="matrix(1.00009,0,0,-1,125.8327,96.706)" stroke-width=".3985" stroke-linecap="butt" stroke-miterlimit="10" stroke-linejoin="miter" fill="none" stroke="#000000" d="M11.33939 0H-11.33939"/>
<use data-text="0" xlink:href="#font_2_121" transform="matrix(9.963496,0,0,-9.9626,105.989917,99.914)"/>
<path transform="matrix(1.00009,0,0,-1,125.8327,96.706)" stroke-width=".3985" stroke-linecap="butt" stroke-miterlimit="10" stroke-linejoin="miter" fill="none" stroke="#000000" d="M11.33939 28.34679H-11.33939"/>
<use data-text="0" xlink:href="#font_2_121" transform="matrix(9.963496,0,0,-9.9626,98.23822,71.567)"/>
<use data-text="." xlink:href="#font_2_88" transform="matrix(9.963496,0,0,-9.9626,103.219959,71.567)"/>
<use data-text="5" xlink:href="#font_2_56" transform="matrix(9.963496,0,0,-9.9626,105.98982,71.567)"/>
<path transform="matrix(1.00009,0,0,-1,125.8327,96.706)" stroke-width=".3985" stroke-linecap="butt" stroke-miterlimit="10" stroke-linejoin="miter" fill="none" stroke="#000000" d="M11.33939 56.69362H-11.33939"/>
<use data-text="1" xlink:href="#font_2_82" transform="matrix(9.963496,0,0,-9.9626,105.989917,43.33)"/>
<path transform="matrix(1.00009,0,0,-1,125.8327,96.706)" stroke-width=".3985" stroke-linecap="butt" stroke-miterlimit="10" stroke-linejoin="miter" fill="none" stroke="#000000" d="M-113.38724 11.5271C-113.38724 11.5271-106.5607-7.39903-103.93884-13.46487-101.31699-19.5307-97.11237-27.78583-94.49051-32.19118-91.86865-36.59654-87.66397-42.31255-85.04211-45.21576-82.42026-48.11897-78.21564-51.55711-75.59378-53.11565-72.97192-54.67418-68.76724-56.07669-66.14539-56.44878-63.52353-56.82085-59.31891-56.45294-56.69705-55.79736-54.0752-55.1418-49.87051-53.24902-47.24866-51.72372-44.6268-50.19841-40.42218-47.04141-37.80032-44.80399-35.17847-42.56656-30.97385-38.38922-28.35199-35.59785-25.73013-32.8065-21.52545-27.87202-18.9036-24.68579-16.28174-21.49954-12.07712-16.05754-9.45526-12.63353-6.8334-9.20953-2.62872-3.51114-.00687-.00778 2.61497 3.49556 6.81953 9.19211 9.44139 12.61624 12.06325 16.04036 16.26793 21.48398 18.88979 24.67107 21.51164 27.85817 25.71626 32.79501 28.33812 35.58661 30.95998 38.3782 35.1646 42.55289 37.78645 44.79102 40.40831 47.02914 44.61299 50.19093 47.23485 51.71767 49.8567 53.2444 54.06133 55.13788 56.68318 55.79478 59.30504 56.45169 63.50972 56.82298 66.13158 56.45224 68.75343 56.08148 72.95805 54.67883 75.57991 53.12257 78.20177 51.56631 82.40645 48.13599 85.0283 45.23567 87.65016 42.33534 91.85478 36.62192 94.47664 32.21886 97.0985 27.81578 101.30312 19.56546 103.92497 13.5012 106.54683 7.43695 113.37337-11.48819 113.37337-11.48819"/>
</svg>
