<svg xmlns="http://www.w3.org/2000/svg" xmlns:xlink="http://www.w3.org/1999/xlink" xmlns:inkscape="http://www.inkscape.org/namespaces/inkscape" version="1.1" width="324" height="200" viewBox="0 0 324 200">
<defs>
<path id="font_1_1" d="M.33399964 .30233766C.33999635 .32835389 .36299134 .42037965 .43299867 .42037965 .43798829 .42037965 .46199037 .42037965 .48298646 .40734864 .45498658 .402359 .43499757 .37734986 .43499757 .35334779 .43499757 .33735658 .44599916 .31835938 .47299195 .31835938 .49499513 .31835938 .5269928 .3363495 .5269928 .37635804 .5269928 .42837525 .46798707 .4423828 .43399049 .4423828 .37599183 .4423828 .34098817 .38935853 .32899476 .36634828 .3039856 .43237306 .25 .4423828 .22099304 .4423828 .116989139 .4423828 .05999756 .3133545 .05999756 .28834535 .05999756 .27833558 .069992069 .27833558 .07199097 .27833558 .07998657 .27833558 .08299255 .28033448 .084991458 .28933717 .11898804 .39535523 .18499756 .42037965 .21899414 .42037965 .23799134 .42037965 .272995 .4113617 .272995 .35334779 .272995 .32235719 .2559967 .25532533 .21899414 .11528015 .20298767 .053268434 .16799927 .011245728 .12399292 .011245728 .117996219 .011245728 .09498596 .011245728 .07398987 .024276734 .09899902 .029266358 .12098694 .05027771 .12098694 .07827759 .12098694 .105270389 .09899902 .11328125 .083999637 .11328125 .053985597 .11328125 .0289917 .08728027 .0289917 .055267335 .0289917 .009246826 .07899475-.0107421879 .12298584-.0107421879 .18899536-.0107421879 .22499085 .059280397 .22799683 .0652771 .23999024 .028274537 .27598573-.0107421879 .33599855-.0107421879 .43899537-.0107421879 .49598695 .118270877 .49598695 .14328003 .49598695 .1532898 .4869995 .1532898 .48399354 .1532898 .47499085 .1532898 .47299195 .14929199 .47099305 .14228821 .43798829 .03527832 .36999513 .011245728 .33799745 .011245728 .29899598 .011245728 .2829895 .043273927 .2829895 .07727051 .2829895 .09927368 .2889862 .121276859 .2999878 .16529846L.33399964 .30233766Z"/>
<path id="font_2_82" d="M.4189911 0V.0309906H.3869934C.29699708 .0309906 .2939911 .041992189 .2939911 .07902527V.64012148C.2939911 .6640167 .2939911 .6660156 .2709961 .6660156 .20899964 .60227969 .12098694 .60227969 .08898926 .60227969V.57128909C.10899353 .57128909 .16799927 .57128909 .21998596 .5972748V.07902527C.21998596 .042999269 .21699524 .0309906 .1269989 .0309906H.09498596V0C.12998963 .0029907227 .21699524 .0029907227 .25698854 .0029907227 .29699708 .0029907227 .38398744 .0029907227 .4189911 0Z"/>
<path id="font_2_107" d="M.44898988 .17396546H.42399598C.4189911 .14398194 .4119873 .099990848 .4019928 .084991458 .394989 .07699585 .32899476 .07699585 .30699159 .07699585H.1269989L.23298645 .17996216C.3889923 .31803895 .44898988 .37210084 .44898988 .47216798 .44898988 .5860901 .35899354 .6660156 .23699951 .6660156 .12399292 .6660156 .049987794 .57411196 .049987794 .48516847 .049987794 .4291687 .099990848 .4291687 .102996829 .4291687 .11999512 .4291687 .15499878 .44117738 .15499878 .48217774 .15499878 .5081787 .13699341 .5341797 .101989749 .5341797 .09399414 .5341797 .09199524 .5341797 .08898926 .5331726 .11199951 .59806826 .1659851 .63500979 .22399903 .63500979 .31498719 .63500979 .35798646 .5541382 .35798646 .47216798 .35798646 .39196778 .30799867 .31297303 .25299073 .25097657L.06098938 .036987306C.049987794 .025985718 .049987794 .023986817 .049987794 0H.42099L.44898988 .17396546Z"/>
<path id="font_2_106" d="M.45700074 .17037964C.45700074 .252594 .3939972 .33088685 .2899933 .35191346 .37199403 .37893678 .42999269 .4490509 .42999269 .52809146 .42999269 .6100464 .34199525 .6660156 .24598694 .6660156 .14498902 .6660156 .068984989 .60606387 .068984989 .53009036 .068984989 .49710084 .09098816 .47808839 .11999512 .47808839 .15098572 .47808839 .17098999 .50009158 .17098999 .5290985 .17098999 .57910159 .12399292 .57910159 .10899353 .57910159 .13999939 .62802127 .20599365 .64100649 .24198914 .64100649 .2829895 .64100649 .33799745 .6190338 .33799745 .5290985 .33799745 .51708987 .33599855 .45906068 .30999757 .4149933 .27999879 .36691285 .24598694 .36390687 .22099304 .36291505 .21299744 .36190797 .18899536 .35990907 .18199158 .35990907 .17399597 .35890199 .16699219 .35791017 .16699219 .3479004 .16699219 .33691407 .17399597 .33691407 .19099427 .33691407H.23498535C.31698609 .33691407 .35398866 .2686615 .35398866 .17037964 .35398866 .034469606 .2849884 .0055389406 .24099732 .0055389406 .19799805 .0055389406 .12298584 .022491456 .08799744 .08137512 .12298584 .07637024 .1539917 .09837341 .1539917 .1363678 .1539917 .17237854 .1269989 .19238281 .09799194 .19238281 .07398987 .19238281 .041992189 .17837525 .041992189 .1343689 .041992189 .043441774 .1349945-.022460938 .24398804-.022460938 .3659973-.022460938 .45700074 .06838989 .45700074 .17037964Z"/>
<path id="font_2_57" d="M.47099305 .16503906V.19602967H.37098695V.6507721C.37098695 .6707611 .37098695 .6767578 .35499574 .6767578 .34599305 .6767578 .34298707 .6767578 .33499146 .6647644L.027999878 .19602967V.16503906H.2939911V.07800293C.2939911 .041992189 .2919922 .0309906 .21798706 .0309906H.19699097V0C.23799134 .0029907227 .2899933 .0029907227 .33198548 .0029907227 .37399293 .0029907227 .4269867 .0029907227 .46798707 0V.0309906H.44699098C.37298585 .0309906 .37098695 .041992189 .37098695 .07800293V.16503906H.47099305M.2999878 .19602967H.055999757L.2999878 .56881716V.19602967Z"/>
<path id="font_2_56" d="M.44898988 .20091248C.44898988 .31991578 .36698915 .41992188 .25898744 .41992188 .21099854 .41992188 .16799927 .4039154 .13198853 .36891175V.5641022C.1519928 .55778506 .18499756 .55078127 .21699524 .55078127 .33999635 .55078127 .4099884 .6418457 .4099884 .65493777 .4099884 .6609802 .40699769 .6660156 .3999939 .6660156 .3999939 .66607668 .39698792 .66607668 .3919983 .66308596 .37199403 .65408328 .32299806 .63378909 .2559967 .63378909 .21598816 .63409426 .16999817 .641098 .12298584 .6621094 .114990238 .6651001 .11099243 .6651001 .11099243 .6651001 .100997928 .66508486 .100997928 .657074 .100997928 .64108279V.3447113C.100997928 .3266449 .100997928 .31861878 .114990238 .31861878 .12199402 .31861878 .12399292 .32164 .12799073 .32765199 .13899231 .34371949 .17599488 .3979187 .25698854 .3979187 .30899049 .3979187 .33399964 .3517456 .34199525 .3336792 .35798646 .2965393 .3600006 .2574005 .3600006 .20721436 .3600006 .17218018 .3600006 .112197879 .33599855 .07032776 .31199647 .031448366 .2749939 .0055389406 .22898865 .0055389406 .1559906 .0055389406 .09899902 .05836487 .08198547 .1171875 .084991458 .11685181 .08799744 .115859989 .09899902 .115859989 .13198853 .115859989 .14898682 .14085388 .14898682 .16485596 .14898682 .18885803 .13198853 .21386719 .09899902 .21386719 .084991458 .21386719 .049987794 .2068634 .049987794 .16085816 .049987794 .07432556 .11898804-.022460938 .23098755-.022460938 .34700013-.022460938 .44898988 .07331848 .44898988 .20019531V.20091248Z"/>
<path id="font_2_101" d="M.45700074 .2036438C.45700074 .33070375 .36799623 .4267578 .25698854 .4267578 .18899536 .4267578 .1519928 .37573243 .13198853 .327713V.35173036C.13198853 .6047821 .2559967 .64100649 .30699159 .64100649 .33099366 .64100649 .37298585 .634964 .394989 .6007538 .37998963 .6007538 .33999635 .6007538 .33999635 .5557556 .33999635 .524765 .3639984 .5097656 .38598634 .5097656 .4019928 .5097656 .43199159 .51875308 .43199159 .5577545 .43199159 .6178589 .3880005 .6660156 .30499269 .6660156 .1769867 .6660156 .041992189 .5367584 .041992189 .31570436 .041992189 .048553468 .1579895-.022460938 .25099183-.022460938 .3619995-.022460938 .45700074 .07156372 .45700074 .2036438M.36698915 .20463562C.36698915 .15661621 .36698915 .10658264 .34999085 .0705719 .31999208 .010528564 .27398683 .0055389406 .25099183 .0055389406 .18798828 .0055389406 .1579895 .06556702 .1519928 .080566409 .13398743 .127594 .13398743 .2076416 .13398743 .22564698 .13398743 .30369569 .1659851 .40374757 .2559967 .40374757 .27198792 .40374757 .31799317 .40374757 .34899903 .34172059 .36698915 .30470277 .36698915 .2536621 .36698915 .20463562Z"/>
<path id="font_2_100" d="M.4850006 .6435547H.24198914C.11999512 .6435547 .117996219 .6566467 .11399841 .67578127H.08898926L.055999757 .46954347H.08099365C.083999637 .48554994 .09298706 .54855349 .10598755 .5605469 .11299133 .5665436 .19099427 .5665436 .20399475 .5665436H.41099549L.29899598 .40853883C.20899964 .2735443 .17599488 .13453675 .17599488 .03253174 .17599488 .022537232 .17599488-.022460938 .22200012-.022460938 .2679901-.022460938 .2679901 .022537232 .2679901 .03253174V.08354187C.2679901 .13853455 .2709961 .19354248 .2789917 .24754334 .2829895 .27053834 .29699708 .35653688 .34098817 .41854859L.47599793 .608551C.4850006 .62054446 .4850006 .62254336 .4850006 .6435547Z"/>
<path id="font_2_51" d="M.45700074 .16764832C.45700074 .20367432 .44599916 .24871826 .4079895 .29074098 .3889923 .31176759 .37298585 .32176209 .30899049 .36180116 .3809967 .39881898 .42999269 .4508667 .42999269 .51690676 .42999269 .6089783 .34098817 .6660156 .25 .6660156 .1499939 .6660156 .068984989 .5919647 .068984989 .49890138 .068984989 .48088075 .070999149 .43585206 .11299133 .38882447 .12399292 .3768158 .16099549 .35179139 .18598938 .33477784 .12799073 .30575563 .041992189 .24971009 .041992189 .15063477 .041992189 .044555665 .14399719-.022460938 .24899292-.022460938 .3619995-.022460938 .45700074 .060577394 .45700074 .16764832M.38598634 .51690676C.38598634 .45986939 .34700013 .41183473 .2869873 .3768158L.16299439 .4568634C.116989139 .4868927 .11299133 .5209198 .11299133 .53793337 .11299133 .5989685 .17799378 .64100649 .24899292 .64100649 .32199098 .64100649 .38598634 .588974 .38598634 .51690676M.40699769 .13162232C.40699769 .05757141 .33198548 .0055389406 .25 .0055389406 .1639862 .0055389406 .09199524 .06758118 .09199524 .15063477 .09199524 .2086792 .12399292 .2727356 .20899964 .31976319L.33198548 .24171448C.3600006 .22268677 .40699769 .19267273 .40699769 .13162232Z"/>
<path id="font_2_78" d="M.45700074 .32888795C.45700074 .598114 .34199525 .6660156 .25299073 .6660156 .19799805 .6660156 .14898682 .64801028 .10598755 .6031189 .06498718 .5580902 .041992189 .5160217 .041992189 .44091798 .041992189 .3158722 .12998963 .21777344 .24198914 .21777344 .30299378 .21777344 .34399415 .25979615 .36698915 .3178711V.28582765C.36698915 .05178833 .2630005 .0055389406 .20498657 .0055389406 .18798828 .0055389406 .13398743 .007537842 .10699463 .041778566 .15098572 .041778566 .15899658 .07078552 .15899658 .08778381 .15899658 .118774417 .1349945 .13378906 .11299133 .13378906 .09700012 .13378906 .066986087 .12478638 .066986087 .08578491 .066986087 .018615723 .12098694-.022460938 .20599365-.022460938 .33499146-.022460938 .45700074 .11378479 .45700074 .32888795M.36499024 .42089845C.36499024 .33789063 .33099366 .24076844 .24299622 .24076844 .22698975 .2407074 .18099976 .2407074 .1499939 .30371095 .13198853 .34072877 .13198853 .3908081 .13198853 .43988038 .13198853 .49397279 .13198853 .5410614 .15299988 .578125 .17999268 .62805178 .21798706 .64100649 .25299073 .64100649 .29899598 .64100649 .33198548 .60710147 .34899903 .562088 .36099244 .52989199 .36499024 .46688844 .36499024 .42089845Z"/>
<path id="font_2_121" d="M.45999146 .31976319C.45999146 .39982606 .45498658 .47988893 .41999818 .5539398 .37399293 .65000918 .2919922 .6660156 .25 .6660156 .18998719 .6660156 .116989139 .64001467 .07598877 .54693606 .04399109 .47789 .038986207 .39982606 .038986207 .31976319 .038986207 .24472046 .042999269 .15464783 .083999637 .07859802 .1269989-.0024719239 .19999695-.022460938 .24899292-.022460938 .30299378-.022460938 .3789978-.0014648438 .4229889 .09359741 .45498658 .16265869 .45999146 .2407074 .45999146 .31976319M.3769989 .3317871C.3769989 .25672914 .3769989 .18867493 .3659973 .12461853 .35099793 .029556275 .2939911-.00047302247 .24899292-.00047302247 .20999146-.00047302247 .15098572 .024551392 .1329956 .12062073 .12199402 .18066406 .12199402 .2727356 .12199402 .3317871 .12199402 .39582826 .12199402 .46188355 .12998963 .5159149 .14898682 .63500979 .22399903 .64401248 .24899292 .64401248 .28199769 .64401248 .34799195 .6259918 .36698915 .52693179 .3769989 .47088624 .3769989 .39482118 .3769989 .3317871Z"/>
<path id="font_2_64" d="M.27598573 .18710327V.24511719H.010986328V.18710327H.27598573Z"/>
<path id="font_1_2" d="M.48599244 .38136292C.48999024 .39537049 .48999024 .39736939 .48999024 .40437318 .48999024 .42237855 .47599793 .43138124 .46099855 .43138124 .45098878 .43138124 .43499757 .42536927 .42599488 .41036988 .42399598 .405365 .41600038 .37435914 .4119873 .35635377 .40499879 .33035279 .397995 .30334474 .3919983 .27633668L.34700013 .09628296C.34298707 .08126831 .2999878 .011245728 .23399353 .011245728 .18299866 .011245728 .17199707 .055267335 .17199707 .0922699 .17199707 .1382904 .18899536 .20030213 .22299195 .28833009 .23899842 .3293457 .24299622 .3403473 .24299622 .36035157 .24299622 .405365 .21099854 .4423828 .16099549 .4423828 .06599426 .4423828 .0289917 .29733277 .0289917 .28833009 .0289917 .27833558 .038986207 .27833558 .040985109 .27833558 .050994874 .27833558 .051986696 .28033448 .056991579 .29634095 .083999637 .3903656 .12399292 .42037965 .1579895 .42037965 .1659851 .42037965 .18299866 .42037965 .18299866 .3883667 .18299866 .36335755 .17298889 .3373413 .1659851 .31834413 .12599182 .21231079 .10798645 .1552887 .10798645 .10827637 .10798645 .019256592 .17098999-.0107421879 .22999573-.0107421879 .2689972-.0107421879 .30299378 .0062561037 .33099366 .03425598 .31799317-.017745972 .30599977-.06674194 .2659912-.11973572 .23999024-.15385437 .20199585-.18309021 .1559906-.18309021 .14199829-.18309021 .09700012-.18005371 .07998657-.14074707 .09599304-.14074707 .10899353-.14074707 .12298584-.1287384 .1329956-.11973572 .14299011-.10673523 .14299011-.08773804 .14299011-.056747438 .115997318-.052734376 .10598755-.052734376 .08299255-.052734376 .049987794-.068740848 .049987794-.11773682 .049987794-.16796875 .09399414-.20507813 .1559906-.20507813 .25898744-.20507813 .3619995-.11373901 .3899994-.00074768069L.48599244 .38136292Z"/>
</defs>
<path transform="matrix(1.00005,0,0,-1.00005,15.87204,105.21561)" stroke-width=".3985" stroke-linecap="butt" stroke-miterlimit="10" stroke-linejoin="miter" fill="none" stroke="#000000" d="M-14.17339 0H297.24299"/>
<path transform="matrix(1.00005,0,0,-1.00005,313.32914,105.21561)" stroke-width=".3985" stroke-linecap="round" stroke-linejoin="round" fill="none" stroke="#000000" d="M-2.07224 2.39104C-1.69365 .95639-.84999 .27895 0 0-.84999-.27895-1.69365-.95639-2.07224-2.39104"/>
<use data-text="x" xlink:href="#font_1_1" transform="matrix(9.963098,0,0,-9.963098,317.0481,101.695438)"/>
<path transform="matrix(1.00005,0,0,-1.00005,15.87204,105.21561)" stroke-width=".3985" stroke-linecap="butt" stroke-miterlimit="10" stroke-linejoin="miter" fill="none" stroke="#000000" d="M28.3468 4.25224V-4.25224"/>
<use data-text="1" xlink:href="#font_2_82" transform="matrix(9.963098,0,0,-9.963098,41.729333,119.62332)"/>
<path transform="matrix(1.00005,0,0,-1.00005,15.87204,105.21561)" stroke-width=".3985" stroke-linecap="butt" stroke-miterlimit="10" stroke-linejoin="miter" fill="none" stroke="#000000" d="M56.69362 4.25224V-4.25224"/>
<use data-text="2" xlink:href="#font_2_107" transform="matrix(9.963098,0,0,-9.963098,70.07774,119.62332)"/>
<path transform="matrix(1.00005,0,0,-1.00005,15.87204,105.21561)" stroke-width=".3985" stroke-linecap="butt" stroke-miterlimit="10" stroke-linejoin="miter" fill="none" stroke="#000000" d="M85.04042 4.25224V-4.25224"/>
<use data-text="3" xlink:href="#font_2_106" transform="matrix(9.963098,0,0,-9.963098,98.42616,119.62332)"/>
<path transform="matrix(1.00005,0,0,-1.00005,15.87204,105.21561)" stroke-width=".3985" stroke-linecap="butt" stroke-miterlimit="10" stroke-linejoin="miter" fill="none" stroke="#000000" d="M113.38724 4.25224V-4.25224"/>
<use data-text="4" xlink:href="#font_2_57" transform="matrix(9.963098,0,0,-9.963098,126.77458,119.73333)"/>
<path transform="matrix(1.00005,0,0,-1.00005,15.87204,105.21561)" stroke-width=".3985" stroke-linecap="butt" stroke-miterlimit="10" stroke-linejoin="miter" fill="none" stroke="#000000" d="M141.73404 4.25224V-4.25224"/>
<use data-text="5" xlink:href="#font_2_56" transform="matrix(9.963098,0,0,-9.963098,155.122,119.62332)"/>
<path transform="matrix(1.00005,0,0,-1.00005,15.87204,105.21561)" stroke-width=".3985" stroke-linecap="butt" stroke-miterlimit="10" stroke-linejoin="miter" fill="none" stroke="#000000" d="M170.08086 4.25224V-4.25224"/>
<use data-text="6" xlink:href="#font_2_101" transform="matrix(9.963098,0,0,-9.963098,183.47042,119.62332)"/>
<path transform="matrix(1.00005,0,0,-1.00005,15.87204,105.21561)" stroke-width=".3985" stroke-linecap="butt" stroke-miterlimit="10" stroke-linejoin="miter" fill="none" stroke="#000000" d="M198.42766 4.25224V-4.25224"/>
<use data-text="7" xlink:href="#font_2_100" transform="matrix(9.963098,0,0,-9.963098,211.81882,119.72333)"/>
<path transform="matrix(1.00005,0,0,-1.00005,15.87204,105.21561)" stroke-width=".3985" stroke-linecap="butt" stroke-miterlimit="10" stroke-linejoin="miter" fill="none" stroke="#000000" d="M226.77448 4.25224V-4.25224"/>
<use data-text="8" xlink:href="#font_2_51" transform="matrix(9.963098,0,0,-9.963098,240.16724,119.62332)"/>
<path transform="matrix(1.00005,0,0,-1.00005,15.87204,105.21561)" stroke-width=".3985" stroke-linecap="butt" stroke-miterlimit="10" stroke-linejoin="miter" fill="none" stroke="#000000" d="M255.12128 4.25224V-4.25224"/>
<use data-text="9" xlink:href="#font_2_78" transform="matrix(9.963098,0,0,-9.963098,268.51567,119.62332)"/>
<path transform="matrix(1.00005,0,0,-1.00005,15.87204,105.21561)" stroke-width=".3985" stroke-linecap="butt" stroke-miterlimit="10" stroke-linejoin="miter" fill="none" stroke="#000000" d="M283.4681 4.25224V-4.25224"/>
<use data-text="1" xlink:href="#font_2_82" transform="matrix(9.963098,0,0,-9.963098,294.37297,119.62332)"/>
<use data-text="0" xlink:href="#font_2_121" transform="matrix(9.963098,0,0,-9.963098,299.3545,119.62332)"/>
<path transform="matrix(1.00005,0,0,-1.00005,15.87204,105.21561)" stroke-width=".3985" stroke-linecap="butt" stroke-miterlimit="10" stroke-linejoin="miter" fill="none" stroke="#000000" d="M2.83484-85.04042H-2.83484"/>
<use data-text="-" xlink:href="#font_2_64" transform="matrix(9.963098,0,0,-9.963098,1.217308,193.57802)"/>
<use data-text="1" xlink:href="#font_2_82" transform="matrix(9.963098,0,0,-9.963098,4.535019,193.57802)"/>
<path transform="matrix(1.00005,0,0,-1.00005,15.87204,105.21561)" stroke-width=".3985" stroke-linecap="butt" stroke-miterlimit="10" stroke-linejoin="miter" fill="none" stroke="#000000" d="M2.83484 85.04042H-2.83484"/>
<use data-text="1" xlink:href="#font_2_82" transform="matrix(9.963098,0,0,-9.963098,4.5354769,23.488526)"/>
<path transform="matrix(1.00005,0,0,-1.00005,15.87204,105.21561)" stroke-width=".3985" stroke-linecap="butt" stroke-miterlimit="10" stroke-linejoin="miter" fill="none" stroke="#000000" d="M0-93.54497V93.14647"/>
<path transform="matrix(0,-1.00005,-1.00005,-0,15.87204,11.865227)" stroke-width=".3985" stroke-linecap="round" stroke-linejoin="round" fill="none" stroke="#000000" d="M-2.07224 2.39104C-1.69365 .95639-.84999 .27895 0 0-.84999-.27895-1.69365-.95639-2.07224-2.39104"/>
<use data-text="y" xlink:href="#font_1_2" transform="matrix(9.963098,0,0,-9.963098,19.392212,6.208664)"/>
<path transform="matrix(1.00005,0,0,-1.00005,15.87204,105.21561)" stroke-width=".3985" stroke-linecap="butt" stroke-miterlimit="10" stroke-linejoin="miter" fill="none" stroke="#000000" d="M0 85.03262 1.53203 84.96385 3.06409 84.77568 4.59613 84.46297 6.12819 84.04124 7.66023 83.48586 9.19228 82.8046 10.72433 82.01306 12.25638 81.10213 13.78844 80.07312 15.32048 78.93643 16.85252 77.68423 18.38458 76.32175 19.91664 74.86191 21.44867 73.28664 22.98073 71.62439 24.51277 69.8687 26.04483 68.01573 27.57689 66.07318 29.10892 64.05667 30.64098 61.95456 32.17302 59.78363 33.70508 57.54008 35.23714 55.23161 36.76917 52.85828 38.30122 50.43692 39.83328 47.96886 41.36533 45.45279 42.89737 42.89261 44.42941 40.30388 45.96147 37.68787 47.49353 35.04852 49.02557 32.3897 50.55762 29.72052 52.08966 27.04874 53.62172 24.37044 55.15378 21.70258 56.6858 19.04375 58.21786 16.4044 59.74992 13.78453 61.28197 11.1906 62.81403 8.6265 64.34605 6.10394 65.87811 3.62161 67.41017 1.18338 68.94221-1.19897 70.47427-3.5282 72.00632-5.79509 73.53836-8.00238 75.07042-10.13692 76.60246-12.20145 78.1345-14.1881 79.66656-16.09557 81.19861-17.9213 82.73067-19.66013 84.26271-21.3133 85.79475-22.87302 87.32681-24.3406 88.85886-25.71481 90.39091-26.97997 91.92296-28.1686 93.455-29.2339 94.98706-30.20453 96.5191-31.07912 98.05116-31.82915 99.5832-32.48961 101.11525-33.05669 102.64731-33.49007 104.17935-33.82747 105.71141-34.10516 107.24345-34.14926 108.7755-34.17781 110.30756-34.15186 111.83961-33.98189 113.37164-33.64189"/>
<path transform="matrix(1.00005,0,0,-1.00005,15.87204,105.21561)" stroke-width=".3985" stroke-linecap="butt" stroke-miterlimit="10" stroke-linejoin="miter" fill="none" stroke="#000000" d="M113.38724-33.6964 114.91927-33.34605 116.45132-32.89838 117.98337-32.37154 119.51543-31.75517 121.04749-31.06357 122.57951-30.26291 124.11157-29.42595 125.64362-28.47998 127.17567-27.47433 128.70772-26.4025 130.23976-25.26582 131.77182-24.06424 133.30388-22.80296 134.83592-21.49234 136.36797-20.1428 137.90001-18.74532 139.43207-17.30367 140.96413-15.83473 142.49617-14.33598 144.02822-12.80354 145.56026-11.2529 147.09232-9.68924 148.62438-8.10486 150.1564-6.52306 151.68846-4.93091 153.22052-3.34392 154.75257-1.76344 156.28462-.19072 157.81665 1.36635 159.34871 2.90665 160.88077 4.41966 162.41281 5.90929 163.94486 7.36653 165.4769 8.78871 167.00896 10.17326 168.54102 11.51498 170.07306 12.80742 171.6051 14.04922 173.13716 15.24432 174.6692 16.38493 176.20127 17.46716 177.7333 18.48836 179.26535 19.4512 180.79741 20.34265 182.32946 21.17314 183.86151 21.92966 185.39356 22.61867 186.9256 23.23636 188.45766 23.78001 189.9897 24.24588 191.52176 24.64685 193.0538 24.96997 194.58585 25.2152 196.1179 25.37741 197.64995 25.47601 199.18199 25.4981 200.71405 25.43971 202.2461 25.30472 203.77816 25.101 205.31021 24.8259 206.84224 24.46648 208.3743 24.06032 209.90634 23.56462 211.4384 23.02095 212.97046 22.40715 214.50249 21.73761 216.03455 20.98889 217.56659 20.1999 219.09865 19.3422 220.63069 18.45334 222.16274 17.4853 223.6948 16.50693 225.22686 15.44676 226.7589 14.36066"/>
<path transform="matrix(1.00005,0,0,-1.00005,15.87204,105.21561)" stroke-width=".3985" stroke-linecap="butt" stroke-miterlimit="10" stroke-linejoin="miter" fill="none" stroke="#000000" d="M226.77448 14.49173 227.54048 13.94801 228.30652 13.39523 229.07254 12.85023 229.83856 12.2819 230.6046 11.7187 231.3706 11.13477 232.13663 10.55476 232.90267 9.96954 233.66869 9.37653 234.43473 8.78612 235.20073 8.17755 235.96675 7.57286 236.73279 6.96165 237.49881 6.34401 238.26485 5.73152 239.03086 5.10995 239.79688 4.48325 240.56291 3.86295 241.32894 3.23491 242.09497 2.61467 242.86098 1.98792 243.627 1.36894 244.39304 .74219 245.15906 .10767 245.9251-.5151 246.69112-1.1328 247.45713-1.74008 248.22316-2.35385 248.98918-2.97542 249.7552-3.57098 250.52124-4.17311 251.28725-4.78036 252.05329-5.36302 252.8193-5.95084 253.58533-6.52957 254.35137-7.1122 255.11737-7.66759 255.8834-8.21124 256.64945-8.76144 257.41545-9.31815 258.1815-9.84494 258.9475-10.37698 259.71354-10.89603 260.47956-11.40471 261.24559-11.90169 262.0116-12.3831 262.77763-12.85284 263.54368-13.32646 264.3097-13.78712 265.0757-14.21664 265.84175-14.64876 266.60777-15.07048 267.37376-15.47531 268.1398-15.88148 268.90583-16.23962 269.67189-16.61592 270.43788-16.98186 271.2039-17.31146 271.9699-17.62677 272.73597-17.9421 273.50199-18.24182 274.268-18.51172 275.034-18.79333 275.80006-19.0256 276.56608-19.27863 277.3321-19.49663 278.09815-19.67699 278.86415-19.87683 279.63017-20.04161 280.3962-20.2077 281.16224-20.35045 281.92826-20.46333 282.69429-20.57233 283.4603-20.65797"/>
<path transform="matrix(1.00005,0,0,-1.00005,15.87204,105.21561)" stroke-width=".3985" stroke-linecap="butt" stroke-dasharray="2.98883,2.98883" stroke-miterlimit="10" stroke-linejoin="miter" fill="none" stroke="#000000" d="M0 .01555 1.43126 2.15141 2.86252 4.27692 4.2938 6.4037 5.72505 8.53828 7.15633 10.65596 8.58759 12.73865 10.01886 14.80573 11.45013 16.8378 12.88141 18.83615 14.31267 20.8098 15.74394 22.73158 17.1752 24.62738 18.60648 26.45572 20.03773 28.24252 21.469 29.96838 22.90028 31.65138 24.33154 33.25912 25.76282 34.80717 27.19408 36.29552 28.62535 37.7151 30.05661 39.0426 31.48788 40.3259 32.91914 41.534 34.35043 42.64734 35.7817 43.67635 37.21297 44.6379 38.64423 45.51376 40.0755 46.29622 41.50676 47.0099 42.93802 47.62239 44.3693 48.14923 45.80057 48.5917 47.23184 48.95764 48.6631 49.2042 50.09438 49.37416 51.52563 49.47668 52.95691 49.45981 54.38817 49.37416 55.81946 49.1964 57.25072 48.94077 58.68199 48.58395 60.11325 48.14923 61.54453 47.62239 62.97578 47.01903 64.40704 46.33905 65.83832 45.57346 67.26959 44.7313 68.70087 43.8126 70.13213 42.82643 71.5634 41.76367 72.99466 40.64122 74.42593 39.45004 75.8572 38.18356 77.28847 36.86519 78.71974 35.49619 80.15102 34.06754 81.58228 32.58694 83.01353 31.07391 84.44481 29.50899 85.87607 27.90125 87.30734 26.252 88.7386 24.58455 90.16989 22.87561 91.60115 21.1498 93.03242 19.39803 94.46368 17.62025 95.89496 15.84253 97.32622 14.04922 98.75749 12.24554 100.18875 10.45096 101.62004 8.64856 103.0513 6.85397 104.48256 5.06845 105.91383 3.2998 107.3451 1.53893 108.77637-.18684 110.20763-1.90486 111.63892-3.58917 113.07018-5.2475 114.50145-6.87085 115.93271-8.46951 117.36398-10.01756 118.79524-11.51498 120.22652-12.97739 121.65778-14.3892 123.08907-15.75821 124.52032-17.06746 125.95158-18.32619 127.38286-19.52518 128.81412-20.66577 130.24539-21.73628 131.67665-22.73933 133.10793-23.69182 134.5392-24.56769 135.97048-25.3761 137.40174-26.11572 138.83301-26.77104 140.26427-27.35757 141.69554-27.87662"/>
<path transform="matrix(1.00005,0,0,-1.00005,15.87204,105.21561)" stroke-width=".3985" stroke-linecap="butt" stroke-dasharray="2.98883,2.98883" stroke-miterlimit="10" stroke-linejoin="miter" fill="none" stroke="#000000" d="M141.73404-27.55998 143.16532-28.02193 144.59658-28.38658 146.02785-28.65388 147.4591-28.9017 148.89037-29.10547 150.32164-29.16125 151.7529-29.18332 153.18419-29.10155 154.61545-29.02757 156.04673-28.80183 157.47798-28.51373 158.90926-28.17247 160.34052-27.79225 161.77179-27.31343 163.20305-26.77751 164.63434-26.18451 166.0656-25.51236 167.49687-24.82463 168.92813-24.05511 170.35939-23.22595 171.79067-22.36044 173.22193-21.45992 174.6532-20.475 176.08448-19.47847 177.51575-18.42091 178.947-17.35556 180.37828-16.23311 181.80954-15.06528 183.24082-13.88832 184.67208-12.67635 186.10335-11.44754 187.53462-10.19402 188.9659-8.93146 190.39716-7.64551 191.82842-6.37123 193.25969-5.07233 194.69095-3.76955 196.12223-2.47064 197.5535-1.1691 198.98477 .12454 200.41603 1.40137 201.8473 2.67044 203.27857 3.92912 204.70984 5.16705 206.1411 6.38295 207.57238 7.57674 209.00365 8.73682 210.4349 9.87349 211.86618 10.9726 213.29744 12.02368 214.72872 13.05916 216.15998 14.04407 217.59125 14.98871 219.0225 15.89316 220.4538 16.75475 221.88506 17.56316 223.31633 18.32747 224.74759 19.03728 226.17887 19.69127 227.61013 20.28816 229.0414 20.83447 230.47266 21.33536 231.90393 21.76616 233.3352 22.13725 234.76647 22.46684 236.19774 22.7147 237.629 22.92491 239.06027 23.05727 240.49153 23.1403 241.9228 23.17018 243.35408 23.1351 244.78536 23.03523 246.21662 22.8704 247.64789 22.6771 249.07915 22.38771 250.51042 22.06073 251.94168 21.6831 253.37296 21.28342 254.80423 20.78517 256.2355 20.23886 257.66676 19.61601 259.09803 18.98277 260.5293 18.3236 261.96058 17.59303 263.3918 16.81056 264.8231 15.95674 266.2544 15.16647 267.68565 14.23352 269.1169 13.33685 270.54817 12.35327 271.97947 11.43587 273.4107 10.37439 274.84196 9.32722 276.27326 8.22165 277.7045 7.10179 279.1358 6.09225 280.56706 4.94258 281.99833 3.75916 283.42958 2.61987"/>
</svg>
