<svg xmlns="http://www.w3.org/2000/svg" xmlns:xlink="http://www.w3.org/1999/xlink" xmlns:inkscape="http://www.inkscape.org/namespaces/inkscape" version="1.1" width="295" height="208" viewBox="0 0 295 208">
<defs>
<path id="font_1_2" d="M.33399964 .30233766C.33999635 .32835389 .36299134 .42037965 .43299867 .42037965 .43798829 .42037965 .46199037 .42037965 .48298646 .40734864 .45498658 .402359 .43499757 .37734986 .43499757 .35334779 .43499757 .33735658 .44599916 .31835938 .47299195 .31835938 .49499513 .31835938 .5269928 .3363495 .5269928 .37635804 .5269928 .42837525 .46798707 .4423828 .43399049 .4423828 .37599183 .4423828 .34098817 .38935853 .32899476 .36634828 .3039856 .43237306 .25 .4423828 .22099304 .4423828 .116989139 .4423828 .05999756 .3133545 .05999756 .28834535 .05999756 .27833558 .069992069 .27833558 .07199097 .27833558 .07998657 .27833558 .08299255 .28033448 .084991458 .28933717 .11898804 .39535523 .18499756 .42037965 .21899414 .42037965 .23799134 .42037965 .272995 .4113617 .272995 .35334779 .272995 .32235719 .2559967 .25532533 .21899414 .11528015 .20298767 .053268434 .16799927 .011245728 .12399292 .011245728 .117996219 .011245728 .09498596 .011245728 .07398987 .024276734 .09899902 .029266358 .12098694 .05027771 .12098694 .07827759 .12098694 .105270389 .09899902 .11328125 .083999637 .11328125 .053985597 .11328125 .0289917 .08728027 .0289917 .055267335 .0289917 .009246826 .07899475-.0107421879 .12298584-.0107421879 .18899536-.0107421879 .22499085 .059280397 .22799683 .0652771 .23999024 .028274537 .27598573-.0107421879 .33599855-.0107421879 .43899537-.0107421879 .49598695 .118270877 .49598695 .14328003 .49598695 .1532898 .4869995 .1532898 .48399354 .1532898 .47499085 .1532898 .47299195 .14929199 .47099305 .14228821 .43798829 .03527832 .36999513 .011245728 .33799745 .011245728 .29899598 .011245728 .2829895 .043273927 .2829895 .07727051 .2829895 .09927368 .2889862 .121276859 .2999878 .16529846L.33399964 .30233766Z"/>
<path id="font_1_3" d="M.48599244 .38136292C.48999024 .39537049 .48999024 .39736939 .48999024 .40437318 .48999024 .42237855 .47599793 .43138124 .46099855 .43138124 .45098878 .43138124 .43499757 .42536927 .42599488 .41036988 .42399598 .405365 .41600038 .37435914 .4119873 .35635377 .40499879 .33035279 .397995 .30334474 .3919983 .27633668L.34700013 .09628296C.34298707 .08126831 .2999878 .011245728 .23399353 .011245728 .18299866 .011245728 .17199707 .055267335 .17199707 .0922699 .17199707 .1382904 .18899536 .20030213 .22299195 .28833009 .23899842 .3293457 .24299622 .3403473 .24299622 .36035157 .24299622 .405365 .21099854 .4423828 .16099549 .4423828 .06599426 .4423828 .0289917 .29733277 .0289917 .28833009 .0289917 .27833558 .038986207 .27833558 .040985109 .27833558 .050994874 .27833558 .051986696 .28033448 .056991579 .29634095 .083999637 .3903656 .12399292 .42037965 .1579895 .42037965 .1659851 .42037965 .18299866 .42037965 .18299866 .3883667 .18299866 .36335755 .17298889 .3373413 .1659851 .31834413 .12599182 .21231079 .10798645 .1552887 .10798645 .10827637 .10798645 .019256592 .17098999-.0107421879 .22999573-.0107421879 .2689972-.0107421879 .30299378 .0062561037 .33099366 .03425598 .31799317-.017745972 .30599977-.06674194 .2659912-.11973572 .23999024-.15385437 .20199585-.18309021 .1559906-.18309021 .14199829-.18309021 .09700012-.18005371 .07998657-.14074707 .09599304-.14074707 .10899353-.14074707 .12298584-.1287384 .1329956-.11973572 .14299011-.10673523 .14299011-.08773804 .14299011-.056747438 .115997318-.052734376 .10598755-.052734376 .08299255-.052734376 .049987794-.068740848 .049987794-.11773682 .049987794-.16796875 .09399414-.20507813 .1559906-.20507813 .25898744-.20507813 .3619995-.11373901 .3899994-.00074768069L.48599244 .38136292Z"/>
<path id="font_1_1" d="M.2649994 .37265016H.37799073C.34498597 .22489929 .33599855 .18196106 .33599855 .11508179 .33599855 .100097659 .33599855 .073150638 .34399415 .03919983 .35398866-.0047454836 .36499024-.0107421879 .37998963-.0107421879 .3999939-.0107421879 .42099 .007247925 .42099 .02722168 .42099 .033218385 .42099 .035202028 .4149933 .049179079 .38598634 .12106323 .38598634 .18595886 .38598634 .21391297 .38598634 .26683045 .3929901 .32073976 .4039917 .37265016H.5179901C.5309906 .37265016 .5669861 .37265016 .5669861 .406662 .5669861 .43066407 .54599 .43066407 .5269928 .43066407H.19198609C.16999817 .43066407 .13198853 .43066407 .08799744 .38365174 .052993776 .34469605 .026992798 .29878236 .026992798 .29379273 .026992798 .29278565 .026992798 .28379823 .038986207 .28379823 .04699707 .28379823 .04899597 .28779603 .054992677 .29577638 .10398865 .37265016 .1619873 .37265016 .18199158 .37265016H.23899842C.20698548 .25186158 .15299988 .13105774 .11099243 .04020691 .102996829 .025222779 .102996829 .023223877 .102996829 .016235352 .102996829-.002746582 .11898804-.0107421879 .13198853-.0107421879 .1619873-.0107421879 .16999817 .017242432 .18199158 .05418396 .19599915 .100097659 .19599915 .10209656 .20899964 .15202332L.2649994 .37265016Z"/>
<path id="font_2_2" d="M.1269989 .07699585 .23298645 .18003845C.3889923 .31811524 .44898988 .3721466 .44898988 .47216798 .44898988 .5860901 .35899354 .6660156 .23699951 .6660156 .12399292 .6660156 .049987794 .57411196 .049987794 .48516847 .049987794 .4291687 .099990848 .4291687 .102996829 .4291687 .11999512 .4291687 .15499878 .44117738 .15499878 .48217774 .15499878 .5081787 .13699341 .5341797 .101989749 .5341797 .09399414 .5341797 .09199524 .5341797 .08898926 .5331726 .11199951 .59806826 .1659851 .63500979 .22399903 .63500979 .31498719 .63500979 .35798646 .5541382 .35798646 .47216798 .35798646 .39215089 .30799867 .31311036 .25299073 .25108338L.06098938 .036987306C.049987794 .025985718 .049987794 .023986817 .049987794 0H.42099L.44898988 .17404175H.42399598C.4189911 .14402771 .4119873 .1000061 .4019928 .084991458 .394989 .07699585 .32899476 .07699585 .30699159 .07699585H.1269989Z"/>
<path id="font_2_3" d="M.2899933 .35191346C.37199403 .37893678 .42999269 .4490509 .42999269 .52809146 .42999269 .6100464 .34199525 .6660156 .24598694 .6660156 .14498902 .6660156 .068984989 .60606387 .068984989 .53009036 .068984989 .49710084 .09098816 .47808839 .11999512 .47808839 .15098572 .47808839 .17098999 .50009158 .17098999 .5290985 .17098999 .57910159 .12399292 .57910159 .10899353 .57910159 .13999939 .62802127 .20599365 .64100649 .24198914 .64100649 .2829895 .64100649 .33799745 .6190338 .33799745 .5290985 .33799745 .51708987 .33599855 .45906068 .30999757 .4149933 .27999879 .36691285 .24598694 .36390687 .22099304 .36291505 .21299744 .36190797 .18899536 .35990907 .18199158 .35990907 .17399597 .35890199 .16699219 .35791017 .16699219 .3479004 .16699219 .33691407 .17399597 .33691407 .19099427 .33691407H.23498535C.31698609 .33691407 .35398866 .2686615 .35398866 .17037964 .35398866 .034469606 .2849884 .0055389406 .24099732 .0055389406 .19799805 .0055389406 .12298584 .022491456 .08799744 .08137512 .12298584 .07637024 .1539917 .09837341 .1539917 .1363678 .1539917 .17237854 .1269989 .19238281 .09799194 .19238281 .07398987 .19238281 .041992189 .17837525 .041992189 .1343689 .041992189 .043441774 .1349945-.022460938 .24398804-.022460938 .3659973-.022460938 .45700074 .06838989 .45700074 .17037964 .45700074 .252594 .3939972 .33088685 .2899933 .35191346Z"/>
<path id="font_3_1" d="M.6589966 .23046875C.6759949 .23046875 .69400027 .23046875 .69400027 .25045777 .69400027 .27046205 .6759949 .27046205 .6589966 .27046205H.117996219C.100997928 .27046205 .08299255 .27046205 .08299255 .25045777 .08299255 .23046875 .100997928 .23046875 .117996219 .23046875H.6589966Z"/>
<path id="font_2_1" d="M.2939911 .64004519C.2939911 .66400149 .2939911 .6660156 .2709961 .6660156 .20899964 .60227969 .12098694 .60227969 .08898926 .60227969V.57128909C.10899353 .57128909 .16799927 .57128909 .21998596 .5972748V.07902527C.21998596 .042999269 .21699524 .0309906 .1269989 .0309906H.09498596V0C.12998963 .0029907227 .21699524 .0029907227 .25698854 .0029907227 .29699708 .0029907227 .38398744 .0029907227 .4189911 0V.0309906H.3869934C.29699708 .0309906 .2939911 .041992189 .2939911 .07902527V.64004519Z"/>
</defs>
<path transform="matrix(1.00002,0,0,-1.00003,143.18259,107.33884)" stroke-width=".3985" stroke-linecap="butt" stroke-miterlimit="10" stroke-linejoin="miter" fill="none" stroke="#000000" d="M-141.73404 0H141.33554"/>
<path transform="matrix(1.00002,0,0,-1.00003,284.7202,107.33884)" stroke-width=".3985" stroke-linecap="round" stroke-linejoin="round" fill="none" stroke="#000000" d="M-2.07224 2.39104C-1.69365 .95639-.84999 .27895 0 0-.84999-.27895-1.69365-.95639-2.07224-2.39104"/>
<use data-text="x" xlink:href="#font_1_2" transform="matrix(9.962799,0,0,-9.962899,288.4395,103.81873)"/>
<path transform="matrix(1.00002,0,0,-1.00003,143.18259,107.33884)" stroke-width=".3985" stroke-linecap="butt" stroke-miterlimit="10" stroke-linejoin="miter" fill="none" stroke="#000000" d="M0-95.67046V95.27194"/>
<path transform="matrix(0,-1.00003,-1.00002,-0,143.18259,11.864777)" stroke-width=".3985" stroke-linecap="round" stroke-linejoin="round" fill="none" stroke="#000000" d="M-2.07224 2.39104C-1.69365 .95639-.84999 .27895 0 0-.84999-.27895-1.69365-.95639-2.07224-2.39104"/>
<use data-text="y" xlink:href="#font_1_3" transform="matrix(9.962799,0,0,-9.962899,146.70267,6.2088015)"/>
<path transform="matrix(1.00002,0,0,-1.00003,143.18259,107.33884)" stroke-width=".3985" stroke-linecap="butt" stroke-miterlimit="10" stroke-linejoin="miter" fill="none" stroke="#000000" d="M44.52696 4.25226V-4.25226"/>
<use data-text="&#x03c0;" xlink:href="#font_1_1" transform="matrix(9.962799,0,0,-9.962899,184.69242,119.4012)"/>
<path transform="matrix(1.00002,0,0,-1.00003,143.18259,107.33884)" stroke-width=".3985" stroke-linecap="butt" stroke-miterlimit="10" stroke-linejoin="miter" fill="none" stroke="#000000" d="M89.05394 4.25226V-4.25226"/>
<use data-text="2" xlink:href="#font_2_2" transform="matrix(9.962799,0,0,-9.962899,226.72925,121.532268)"/>
<use data-text="&#x03c0;" xlink:href="#font_1_1" transform="matrix(9.962799,0,0,-9.962899,231.71036,121.532268)"/>
<path transform="matrix(1.00002,0,0,-1.00003,143.18259,107.33884)" stroke-width=".3985" stroke-linecap="butt" stroke-miterlimit="10" stroke-linejoin="miter" fill="none" stroke="#000000" d="M133.58092 4.25226V-4.25226"/>
<use data-text="3" xlink:href="#font_2_3" transform="matrix(9.962799,0,0,-9.962899,271.25715,121.532268)"/>
<use data-text="&#x03c0;" xlink:href="#font_1_1" transform="matrix(9.962799,0,0,-9.962899,276.23826,121.532268)"/>
<path transform="matrix(1.00002,0,0,-1.00003,143.18259,107.33884)" stroke-width=".3985" stroke-linecap="butt" stroke-miterlimit="10" stroke-linejoin="miter" fill="none" stroke="#000000" d="M-44.52696 4.25226V-4.25226"/>
<use data-text="&#x2212;" xlink:href="#font_3_1" transform="matrix(9.962799,0,0,-9.962899,91.76155,120.92325)"/>
<use data-text="&#x03c0;" xlink:href="#font_1_1" transform="matrix(9.962799,0,0,-9.962899,99.509708,120.92325)"/>
<path transform="matrix(1.00002,0,0,-1.00003,143.18259,107.33884)" stroke-width=".3985" stroke-linecap="butt" stroke-miterlimit="10" stroke-linejoin="miter" fill="none" stroke="#000000" d="M-89.05394 4.25226V-4.25226"/>
<use data-text="&#x2212;" xlink:href="#font_3_1" transform="matrix(9.962799,0,0,-9.962899,44.74362,121.532268)"/>
<use data-text="2" xlink:href="#font_2_2" transform="matrix(9.962799,0,0,-9.962899,52.491777,121.532268)"/>
<use data-text="&#x03c0;" xlink:href="#font_1_1" transform="matrix(9.962799,0,0,-9.962899,57.473878,121.532268)"/>
<path transform="matrix(1.00002,0,0,-1.00003,143.18259,107.33884)" stroke-width=".3985" stroke-linecap="butt" stroke-miterlimit="10" stroke-linejoin="miter" fill="none" stroke="#000000" d="M-133.58092 4.25226V-4.25226"/>
<use data-text="&#x2212;" xlink:href="#font_3_1" transform="matrix(9.962799,0,0,-9.962899,.2157135,121.532268)"/>
<use data-text="3" xlink:href="#font_2_3" transform="matrix(9.962799,0,0,-9.962899,7.963867,121.532268)"/>
<use data-text="&#x03c0;" xlink:href="#font_1_1" transform="matrix(9.962799,0,0,-9.962899,12.945969,121.532268)"/>
<path transform="matrix(1.00002,0,0,-1.00003,143.18259,107.33884)" stroke-width=".3985" stroke-linecap="butt" stroke-miterlimit="10" stroke-linejoin="miter" fill="none" stroke="#000000" d="M1.4174-85.04042H-1.4174"/>
<use data-text="&#x2212;" xlink:href="#font_3_1" transform="matrix(9.962799,0,0,-9.962899,125.51523,195.17748)"/>
<use data-text="2" xlink:href="#font_2_2" transform="matrix(9.962799,0,0,-9.962899,133.26338,195.17748)"/>
<path transform="matrix(1.00002,0,0,-1.00003,143.18259,107.33884)" stroke-width=".3985" stroke-linecap="butt" stroke-miterlimit="10" stroke-linejoin="miter" fill="none" stroke="#000000" d="M1.4174-42.5202H-1.4174"/>
<use data-text="&#x2212;" xlink:href="#font_3_1" transform="matrix(9.962799,0,0,-9.962899,125.51523,152.6552)"/>
<use data-text="1" xlink:href="#font_2_1" transform="matrix(9.962799,0,0,-9.962899,133.26338,152.6552)"/>
<path transform="matrix(1.00002,0,0,-1.00003,143.18259,107.33884)" stroke-width=".3985" stroke-linecap="butt" stroke-miterlimit="10" stroke-linejoin="miter" fill="none" stroke="#000000" d="M1.4174 42.5202H-1.4174"/>
<use data-text="1" xlink:href="#font_2_1" transform="matrix(9.962799,0,0,-9.962899,133.2634,68.02765)"/>
<path transform="matrix(1.00002,0,0,-1.00003,143.18259,107.33884)" stroke-width=".3985" stroke-linecap="butt" stroke-miterlimit="10" stroke-linejoin="miter" fill="none" stroke="#000000" d="M1.4174 85.04042H-1.4174"/>
<use data-text="2" xlink:href="#font_2_2" transform="matrix(9.962799,0,0,-9.962899,133.2634,25.506379)"/>
<path transform="matrix(1.00002,0,0,-1.00003,143.18259,107.33884)" stroke-width=".3985" stroke-linecap="butt" stroke-miterlimit="10" stroke-linejoin="miter" fill="none" stroke="#000000" d="M-141.73404-71.02747-138.87085-86.79283-136.00768-96.5282-133.14449-99.12016-130.2813-94.27682-127.4181-82.55482-124.55493-65.26994-121.69174-44.3349-118.82855-21.9582-115.96536-.35811-113.10217 18.55327-110.239 33.40251-107.37581 43.52713-104.51262 48.97972-101.64943 50.48624-98.78625 49.24184-95.92308 46.66348-93.05989 44.11562-90.1967 42.65579-87.33351 42.82967-84.47034 44.56978-81.60715 47.2221-78.74396 49.64798-75.88077 50.44861-73.0176 48.22905-70.1544 41.87009-67.29121 30.77548-64.42802 15.02959-61.56485-4.55785-58.70166-26.48233-55.83847-48.75005-52.97528-69.12192-50.1121-85.41995-47.24893-95.84305-44.38574-99.19997-41.52255-95.11313-38.65936-84.04773-35.79619-67.25854-32.933-46.60054-30.06981-24.26665-27.20662-2.4914-24.34344 16.77228-21.48026 32.0848-18.61707 42.70381-15.75388 48.61766-12.89069 50.48236-10.02751 49.45659-7.16434 46.95026-4.30115 44.34206-1.43796 42.73691 1.42519 42.7317 4.28838 44.3323 7.15157 46.93727 10.01476 49.44685 12.87794 50.4843 15.74112 48.63326 18.60431 42.74078 21.4675 32.14252 24.33069 16.85016 27.19386-2.3986 30.05705-24.16609 32.92024-46.50322 35.78343-67.17226 38.64659-83.98415 41.50978-95.07811 44.37297-99.19737 47.23616-95.87354 50.09935-85.48094 52.96252-69.20496 55.82571-48.8467 58.6889-26.58289 61.5521-4.65126 64.41527 14.94913 67.27846 30.7145 70.14165 41.8318 73.00484 48.21153 75.86803 50.44669 78.7312 49.6551 81.59438 47.23442 84.45757 44.58015 87.32076 42.83423 90.18393 42.65126 93.04712 44.10718 95.91031 46.6505 98.7735 49.23146 101.63667 50.48755 104.49986 48.99529 107.36305 43.56088 110.22624 33.45961 113.08943 18.62917 115.9526-.26665 118.8158-21.85893 121.67899-44.23692 124.54218-65.18301 127.40533-82.48865 130.26853-94.24048 133.13172-99.11629 135.9949-96.55544 138.8581-86.84993 141.72127-71.10791"/>
<path transform="matrix(1.00002,0,0,-1.00003,143.18259,107.33884)" stroke-width=".3985" stroke-linecap="butt" stroke-dasharray="2.98883,2.98883" stroke-miterlimit="10" stroke-linejoin="miter" fill="none" stroke="#000000" d="M-141.73404-53.67708-138.87085-55.58003-136.00768-56.47862-133.14449-56.6843-130.2813-56.28658-127.4181-55.1278-124.55493-52.8239-121.69174-48.87071-118.82855-42.74858-115.96536-34.05455-113.10217-22.62323-110.239-8.62262-107.37581 7.41908-104.51262 24.60469-101.64943 41.76953-98.78625 57.58289-95.92308 70.72319-93.05989 80.0193-90.1967 84.62128-87.33351 84.10158-84.47034 78.49977-81.60715 68.3466-78.74396 54.56464-75.88077 38.36913-73.0176 21.09723-70.1544 4.05309-67.29121-11.63698-64.42802-25.14838-61.56485-36.02951-58.70166-44.1818-55.83847-49.8264-52.97528-53.40459-50.1121-55.43729-47.24893-56.42216-44.38574-56.69012-41.52255-56.3599-38.65936-55.2913-35.79619-53.12883-32.933-49.37094-30.06981-43.49405-27.20662-35.07838-24.34344-23.92732-21.48026-10.17262-18.61707 5.69261-15.75388 22.81204-12.89069 40.03914-10.02751 56.05365-7.16434 69.52872-4.30115 79.26538-1.43796 84.38124 1.42519 84.3916 4.28838 79.29977 7.15157 69.58064 10.01476 56.11983 12.87794 40.11507 15.74112 22.88794 18.60431 5.76656 21.4675-10.10645 24.33069-23.87088 27.19386-35.03426 30.05705-43.4616 32.92024-49.35083 35.78343-53.11455 38.64659-55.28416 41.50978-56.3573 44.37297-56.6895 47.23616-56.42476 50.09935-55.44379 52.96252-53.4169 55.82571-49.84587 58.6889-44.21227 61.5521-36.07104 64.41527-25.20224 67.27846-11.70186 70.14165 3.97977 73.00484 21.02 75.86803 38.29453 78.7312 54.49586 81.59438 68.29146 84.45757 78.46346 87.32076 84.08731 90.18393 84.62971 93.04712 80.05173 95.91031 70.77315 98.7735 57.64842 101.63667 41.84544 104.49986 24.68253 107.36305 7.49304 110.22624-8.55385 113.08943-22.56549 115.9526-34.0098 118.8158-42.71548 121.67899-48.84866 124.54218-52.80963 127.40533-55.12003 130.26853-56.28462 133.13172-56.6843 135.9949-56.48058 138.8581-55.58652 141.72127-53.68875"/>
</svg>
