<svg xmlns="http://www.w3.org/2000/svg" xmlns:xlink="http://www.w3.org/1999/xlink" xmlns:inkscape="http://www.inkscape.org/namespaces/inkscape" version="1.1" width="176" height="127" viewBox="0 0 176 127">
<defs>
<path id="font_1_6" d="M.5369873 .5947571C.522995 .5818329 .48999024 .55400088 .48999024 .5361023 .48999024 .5261078 .5 .516098 .5099945 .516098 .5189972 .516098 .5239868 .5231018 .5289917 .5290985 .54100039 .5440674 .56399539 .5718994 .60798647 .59376528 .61499026 .59776309 .625 .6027527 .625 .61476138 .625 .62475588 .6179962 .62976077 .61099246 .6347656 .58898928 .6497803 .5779877 .66781619 .56999209 .69184878 .56799319 .7008667 .56399539 .7138672 .5499878 .7138672 .5359955 .7138672 .5299988 .7008667 .5299988 .69285586 .5299988 .68785098 .5379944 .65579226 .55400088 .6347656H.21699524C.19999695 .6347656 .18199158 .6347656 .18199158 .61476138 .18199158 .5947571 .19999695 .5947571 .21699524 .5947571H.5369873Z"/>
<path id="font_1_2" d="M.4269867 .6066284C.43399049 .63461306 .43798829 .64060977 .44999696 .6436157 .45899964 .6456146 .49198915 .6456146 .5130005 .6456146 .6139984 .6456146 .6589966 .6416168 .6589966 .56365969 .6589966 .54867556 .6549988 .50968936 .651001 .4837036 .6499939 .4797058 .647995 .4677124 .647995 .46472169 .647995 .45872499 .651001 .45173646 .6599884 .45173646 .67099 .45173646 .6729889 .45973207 .6749878 .4747162L.70199587 .64860537C.7029877 .65260317 .70399478 .6626129 .70399478 .66560366 .70399478 .6766052 .69400027 .6766052 .6769867 .6766052H.12199402C.09799194 .6766052 .09700012 .6756134 .08999634 .6566162L.02999878 .4807129C.0289917 .478714 .023986817 .46472169 .023986817 .46272279 .023986817 .45672608 .0289917 .45173646 .035995485 .45173646 .04598999 .45173646 .04699707 .45672608 .052993776 .4727173 .10699463 .6276245 .1329956 .6456146 .2809906 .6456146H.31999208C.34799195 .6456146 .34799195 .6416168 .34799195 .6336212 .34799195 .6276245 .34498597 .6156311 .34399415 .6126251L.20999146 .07896423C.20098877 .041992189 .19799805 .0309906 .09098816 .0309906 .054992677 .0309906 .04899597 .0309906 .04899597 .011993408 .04899597 0 .05999756 0 .06599426 0 .09298706 0 .12098694 .0019989014 .147995 .0019989014 .17599488 .0019989014 .20498657 .0029907227 .23298645 .0029907227 .26098634 .0029907227 .2889862 .0019989014 .31599427 .0019989014 .34498597 .0019989014 .375 0 .40299989 0 .41299439 0 .4249878 0 .4249878 .019989014 .4249878 .0309906 .4169922 .0309906 .3909912 .0309906 .3659973 .0309906 .35299684 .0309906 .32699586 .032989503 .2979889 .035995485 .2899933 .038986207 .2899933 .054977418 .2899933 .05596924 .2899933 .06097412 .2939911 .07595825L.4269867 .6066284Z"/>
<path id="font_1_4" d="M.34999085 .056259157C.36099244 .015258789 .3959961-.0107421879 .43899537-.0107421879 .47399903-.0107421879 .49699403 .012252808 .5130005 .044265748 .5299988 .08027649 .54299929 .14129639 .54299929 .14329529 .54299929 .1532898 .5339966 .1532898 .5309906 .1532898 .5209961 .1532898 .519989 .14929199 .5169983 .13528443 .5029907 .07926941 .48399354 .011245728 .44198609 .011245728 .42099 .011245728 .41099549 .024261475 .41099549 .057266237 .41099549 .07926941 .4229889 .12628174 .43099977 .16130066L.45899964 .2693329C.46199037 .28433229 .47200013 .32234193 .47599793 .3373413 .48098756 .36035157 .4909973 .3983612 .4909973 .40437318 .4909973 .42237855 .47698976 .43138124 .46199037 .43138124 .45700074 .43138124 .43099977 .43037416 .4229889 .3963623 .4039917 .323349 .3600006 .14828491 .34799195 .09527588 .34700013 .091278079 .30699159 .011245728 .23399353 .011245728 .18199158 .011245728 .17199707 .056259157 .17199707 .09327698 .17199707 .14929199 .19999695 .22831726 .22599793 .29733277 .23799134 .3273468 .24299622 .34135438 .24299622 .36035157 .24299622 .405365 .21099854 .4423828 .16099549 .4423828 .06599426 .4423828 .0289917 .29733277 .0289917 .28833009 .0289917 .27833558 .038986207 .27833558 .040985109 .27833558 .050994874 .27833558 .051986696 .28033448 .056991579 .29634095 .08198547 .38336183 .11999512 .42037965 .1579895 .42037965 .16699219 .42037965 .18299866 .41937257 .18299866 .38735963 .18299866 .36335755 .17199707 .3343506 .1659851 .31933595 .1289978 .2203064 .10798645 .15829468 .10798645 .10928345 .10798645 .014251709 .1769867-.0107421879 .23098755-.0107421879 .29699708-.0107421879 .33299256 .03425598 .34999085 .056259157Z"/>
<path id="font_2_2" d="M.33099366-.2400055C.33099366-.23701477 .33099366-.23500061 .31399537-.21800232 .18899536-.0920105 .15699768 .09700012 .15699768 .25 .15699768 .42399598 .19499207 .59799197 .31799317 .72299197 .33099366 .73498538 .33099366 .7369995 .33099366 .73999026 .33099366 .746994 .32699586 .75 .32099916 .75 .31098939 .75 .22099304 .6819916 .1619873 .5549927 .11099243 .44499208 .09899902 .33399964 .09899902 .25 .09899902 .17199707 .10998535 .050994874 .16499329-.06201172 .22499085-.18501282 .31098939-.25 .32099916-.25 .32699586-.25 .33099366-.24700928 .33099366-.2400055Z"/>
<path id="font_1_5" d="M.33399964 .30233766C.33999635 .32835389 .36299134 .42037965 .43299867 .42037965 .43798829 .42037965 .46199037 .42037965 .48298646 .40734864 .45498658 .402359 .43499757 .37734986 .43499757 .35334779 .43499757 .33735658 .44599916 .31835938 .47299195 .31835938 .49499513 .31835938 .5269928 .3363495 .5269928 .37635804 .5269928 .42837525 .46798707 .4423828 .43399049 .4423828 .37599183 .4423828 .34098817 .38935853 .32899476 .36634828 .3039856 .43237306 .25 .4423828 .22099304 .4423828 .116989139 .4423828 .05999756 .3133545 .05999756 .28834535 .05999756 .27833558 .069992069 .27833558 .07199097 .27833558 .07998657 .27833558 .08299255 .28033448 .084991458 .28933717 .11898804 .39535523 .18499756 .42037965 .21899414 .42037965 .23799134 .42037965 .272995 .4113617 .272995 .35334779 .272995 .32235719 .2559967 .25532533 .21899414 .11528015 .20298767 .053268434 .16799927 .011245728 .12399292 .011245728 .117996219 .011245728 .09498596 .011245728 .07398987 .024276734 .09899902 .029266358 .12098694 .05027771 .12098694 .07827759 .12098694 .105270389 .09899902 .11328125 .083999637 .11328125 .053985597 .11328125 .0289917 .08728027 .0289917 .055267335 .0289917 .009246826 .07899475-.0107421879 .12298584-.0107421879 .18899536-.0107421879 .22499085 .059280397 .22799683 .0652771 .23999024 .028274537 .27598573-.0107421879 .33599855-.0107421879 .43899537-.0107421879 .49598695 .118270877 .49598695 .14328003 .49598695 .1532898 .4869995 .1532898 .48399354 .1532898 .47499085 .1532898 .47299195 .14929199 .47099305 .14228821 .43798829 .03527832 .36999513 .011245728 .33799745 .011245728 .29899598 .011245728 .2829895 .043273927 .2829895 .07727051 .2829895 .09927368 .2889862 .121276859 .2999878 .16529846L.33399964 .30233766Z"/>
<path id="font_1_1" d="M.20298767 .0009918213C.20298767 .066986087 .17799378 .10598755 .13899231 .10598755 .10598755 .10598755 .085998538 .08099365 .085998538 .052993776 .085998538 .025985718 .10598755 0 .13899231 0 .15098572 0 .1639862 .0039978029 .17399597 .0129852299 .1769867 .01499939 .17799378 .015991211 .1789856 .015991211 .17999268 .015991211 .18099976 .01499939 .18099976 .0009918213 .18099976-.07316589 .1459961-.13328552 .11299133-.16635132 .101989749-.17736817 .101989749-.17936707 .101989749-.18237305 .101989749-.18936157 .10699463-.19335938 .11199951-.19335938 .12298584-.19335938 .20298767-.116256717 .20298767 .0009918213Z"/>
<path id="font_1_3" d="M.20599365 .3996582H.2999878C.31999208 .3996582 .32998658 .3996582 .32998658 .41966249 .32998658 .43066407 .31999208 .43066407 .3019867 .43066407H.21398926C.25 .5724945 .25498963 .59246829 .25498963 .59846499 .25498963 .61546328 .24299622 .62545779 .22599793 .62545779 .22299195 .62545779 .19499207 .62446597 .18598938 .58947756L.14698792 .43066407H.052993776C.032989503 .43066407 .022994996 .43066407 .022994996 .4116516 .022994996 .3996582 .0309906 .3996582 .050994874 .3996582H.13899231C.066986087 .11608887 .06298828 .099121097 .06298828 .08114624 .06298828 .02722168 .100997928-.0107421879 .15499878-.0107421879 .25698854-.0107421879 .31399537 .13505554 .31399537 .14305115 .31399537 .1530304 .30599977 .1530304 .3019867 .1530304 .29299928 .1530304 .2919922 .15003968 .2869873 .13905335 .24398804 .035217287 .19099427 .011245728 .15699768 .011245728 .13598633 .011245728 .12599182 .024230957 .12599182 .057174684 .12599182 .08114624 .12799073 .088134769 .13198853 .10510254L.20599365 .3996582Z"/>
<path id="font_2_3" d="M.2889862 .25C.2889862 .32798768 .27799989 .44898988 .22299195 .56199648 .16299439 .68499758 .07699585 .75 .066986087 .75 .06098938 .75 .056991579 .74598696 .056991579 .73999026 .056991579 .7369995 .056991579 .73498538 .07598877 .71699526 .17399597 .6179962 .23098755 .45899964 .23098755 .25 .23098755 .07899475 .19400025-.09700012 .069992069-.2230072 .056991579-.23500061 .056991579-.23701477 .056991579-.2400055 .056991579-.2460022 .06098938-.25 .066986087-.25 .07699585-.25 .16699219-.18200684 .22599793-.055007936 .2769928 .054992677 .2889862 .16600037 .2889862 .25Z"/>
<path id="font_2_4" d="M.40899659 .23046875H.6879883C.70199587 .23046875 .72099307 .23046875 .72099307 .25045777 .72099307 .27046205 .70199587 .27046205 .6879883 .27046205H.40899659V.5500183C.40899659 .56399539 .40899659 .5830078 .3889923 .5830078 .36898805 .5830078 .36898805 .56399539 .36898805 .5500183V.27046205H.08898926C.07499695 .27046205 .055999757 .27046205 .055999757 .25045777 .055999757 .23046875 .07499695 .23046875 .08898926 .23046875H.36898805V-.05000305C.36898805-.06401062 .36898805-.08300781 .3889923-.08300781 .40899659-.08300781 .40899659-.06401062 .40899659-.05000305V.23046875Z"/>
<path id="font_2_1" d="M.44198609 .69781497C.43499757 .7108154 .43299867 .7158203 .41600038 .7158203 .39898683 .7158203 .39698792 .7108154 .3899994 .69781497L.051986696 .019989014C.04699707 .010986328 .04699707 .008987427 .04699707 .0079956059 .04699707 0 .052993776 0 .068984989 0H.7630005C.7789917 0 .7849884 0 .7849884 .0079956059 .7849884 .008987427 .7849884 .010986328 .7799988 .019989014L.44198609 .69781497M.38398744 .61582949 .6529999 .07598877H.11399841L.38398744 .61582949Z"/>
<path id="font_3_1" d="M.2899933 .4720459C.2979889 .4890442 .29899598 .49705506 .29899598 .5040436 .29899598 .53504946 .2709961 .5590515 .23999024 .5590515 .20199585 .5590515 .18998719 .52804568 .18499756 .51205447L.052993776 .07901001C.051986696 .07701111 .04798889 .06401062 .04798889 .06300354 .04798889 .05101013 .07899475 .041015626 .08699036 .041015626 .09399414 .041015626 .09498596 .043014528 .101989749 .058013917L.2899933 .4720459Z"/>
</defs>
<path transform="matrix(1.00008,0,0,-1.00008,54.66617,70.5236)" stroke-width=".79701" stroke-linecap="butt" stroke-miterlimit="10" stroke-linejoin="miter" fill="none" stroke="#000000" d="M-41.95663-41.95663 0 0C21.26009 21.26009 42.5202 31.89014 63.7803 42.5202L105.5877 63.4239"/>
<path transform="matrix(-.70715656,.70715656,.70715656,.70715656,12.424389,112.76538)" stroke-width=".79701" stroke-linecap="round" stroke-linejoin="round" fill="none" stroke="#000000" d="M-2.55046 3.11095C-2.0845 1.24435-1.04614 .36295 0 0-1.04614-.36295-2.0845-1.24435-2.55046-3.11095"/>
<path transform="matrix(.89443156,-.44720576,-.44720576,-.89443156,160.61875,6.916397)" stroke-width=".79701" stroke-linecap="round" stroke-linejoin="round" fill="none" stroke="#000000" d="M-2.55046 3.11095C-2.0845 1.24435-1.04614 .36295 0 0-1.04614-.36295-2.0845-1.24435-2.55046-3.11095"/>
<use data-text="&#x20d7;" xlink:href="#font_1_6" transform="matrix(9.963397,0,0,-9.963397,2.393982,123.884868)"/>
<use data-text="T" xlink:href="#font_1_2" transform="matrix(9.963397,0,0,-9.963397,1.2168884,126.40307)"/>
<use data-text="u" xlink:href="#font_1_4" transform="matrix(9.963397,0,0,-9.963397,58.385469,81.71549)"/>
<use data-text="(" xlink:href="#font_2_2" transform="matrix(9.963397,0,0,-9.963397,64.08992,81.71549)"/>
<use data-text="x" xlink:href="#font_1_5" transform="matrix(9.963397,0,0,-9.963397,67.96422,81.71549)"/>
<use data-text="," xlink:href="#font_1_1" transform="matrix(9.963397,0,0,-9.963397,73.65332,81.71549)"/>
<use data-text="t" xlink:href="#font_1_3" transform="matrix(9.963397,0,0,-9.963397,78.06711,81.71549)"/>
<use data-text=")" xlink:href="#font_2_3" transform="matrix(9.963397,0,0,-9.963397,81.68431,81.71549)"/>
<use data-text="u" xlink:href="#font_1_4" transform="matrix(9.963397,0,0,-9.963397,122.17057,39.192094)"/>
<use data-text="(" xlink:href="#font_2_2" transform="matrix(9.963397,0,0,-9.963397,127.87502,39.192094)"/>
<use data-text="x" xlink:href="#font_1_5" transform="matrix(9.963397,0,0,-9.963397,131.74933,39.192094)"/>
<use data-text="+" xlink:href="#font_2_4" transform="matrix(9.963397,0,0,-9.963397,139.65796,39.192094)"/>
<use data-text="&#x2206;" xlink:href="#font_2_1" transform="matrix(9.963397,0,0,-9.963397,149.61139,39.192094)"/>
<use data-text="x" xlink:href="#font_1_5" transform="matrix(9.963397,0,0,-9.963397,157.92444,39.192094)"/>
<use data-text="," xlink:href="#font_1_1" transform="matrix(9.963397,0,0,-9.963397,163.61353,39.192094)"/>
<use data-text="t" xlink:href="#font_1_3" transform="matrix(9.963397,0,0,-9.963397,168.02732,39.192094)"/>
<use data-text=")" xlink:href="#font_2_3" transform="matrix(9.963397,0,0,-9.963397,171.6445,39.192094)"/>
<use data-text="&#x20d7;" xlink:href="#font_1_6" transform="matrix(9.963397,0,0,-9.963397,165.87206,9.038677)"/>
<use data-text="T" xlink:href="#font_1_2" transform="matrix(9.963397,0,0,-9.963397,164.69496,11.556881)"/>
<use data-text="&#x2032;" xlink:href="#font_3_1" transform="matrix(6.974358,0,0,-6.974358,171.90154,7.9415895)"/>
<path transform="matrix(1.00008,0,0,-1.00008,54.66617,70.5236)" d="M2.98883 0C2.98883 1.6507 1.6507 2.98883 0 2.98883-1.6507 2.98883-2.98883 1.6507-2.98883 0-2.98883-1.6507-1.6507-2.98883 0-2.98883 1.6507-2.98883 2.98883-1.6507 2.98883 0ZM0 0"/>
<path transform="matrix(1.00008,0,0,-1.00008,54.66617,70.5236)" d="M66.76913 42.5202C66.76913 44.17091 65.43102 45.50903 63.7803 45.50903 62.1296 45.50903 60.79147 44.17091 60.79147 42.5202 60.79147 40.86949 62.1296 39.53137 63.7803 39.53137 65.43102 39.53137 66.76913 40.86949 66.76913 42.5202ZM63.7803 42.5202"/>
</svg>
