<svg xmlns="http://www.w3.org/2000/svg" xmlns:xlink="http://www.w3.org/1999/xlink" xmlns:inkscape="http://www.inkscape.org/namespaces/inkscape" version="1.1" width="317" height="213" viewBox="0 0 317 213">
<defs>
<path id="font_1_3" d="M.33399964 .30233766C.33999635 .32835389 .36299134 .42037965 .43299867 .42037965 .43798829 .42037965 .46199037 .42037965 .48298646 .40734864 .45498658 .402359 .43499757 .37734986 .43499757 .35334779 .43499757 .33735658 .44599916 .31835938 .47299195 .31835938 .49499513 .31835938 .5269928 .3363495 .5269928 .37635804 .5269928 .42837525 .46798707 .4423828 .43399049 .4423828 .37599183 .4423828 .34098817 .38935853 .32899476 .36634828 .3039856 .43237306 .25 .4423828 .22099304 .4423828 .116989139 .4423828 .05999756 .3133545 .05999756 .28834535 .05999756 .27833558 .069992069 .27833558 .07199097 .27833558 .07998657 .27833558 .08299255 .28033448 .084991458 .28933717 .11898804 .39535523 .18499756 .42037965 .21899414 .42037965 .23799134 .42037965 .272995 .4113617 .272995 .35334779 .272995 .32235719 .2559967 .25532533 .21899414 .11528015 .20298767 .053268434 .16799927 .011245728 .12399292 .011245728 .117996219 .011245728 .09498596 .011245728 .07398987 .024276734 .09899902 .029266358 .12098694 .05027771 .12098694 .07827759 .12098694 .105270389 .09899902 .11328125 .083999637 .11328125 .053985597 .11328125 .0289917 .08728027 .0289917 .055267335 .0289917 .009246826 .07899475-.0107421879 .12298584-.0107421879 .18899536-.0107421879 .22499085 .059280397 .22799683 .0652771 .23999024 .028274537 .27598573-.0107421879 .33599855-.0107421879 .43899537-.0107421879 .49598695 .118270877 .49598695 .14328003 .49598695 .1532898 .4869995 .1532898 .48399354 .1532898 .47499085 .1532898 .47299195 .14929199 .47099305 .14228821 .43798829 .03527832 .36999513 .011245728 .33799745 .011245728 .29899598 .011245728 .2829895 .043273927 .2829895 .07727051 .2829895 .09927368 .2889862 .121276859 .2999878 .16529846L.33399964 .30233766Z"/>
<path id="font_2_121" d="M.45999146 .31976319C.45999146 .39982606 .45498658 .47988893 .41999818 .5539398 .37399293 .65000918 .2919922 .6660156 .25 .6660156 .18998719 .6660156 .116989139 .64001467 .07598877 .54693606 .04399109 .47789 .038986207 .39982606 .038986207 .31976319 .038986207 .24472046 .042999269 .15464783 .083999637 .07859802 .1269989-.0024719239 .19999695-.022460938 .24899292-.022460938 .30299378-.022460938 .3789978-.0014648438 .4229889 .09359741 .45498658 .16265869 .45999146 .2407074 .45999146 .31976319M.3769989 .3317871C.3769989 .25672914 .3769989 .18867493 .3659973 .12461853 .35099793 .029556275 .2939911-.00047302247 .24899292-.00047302247 .20999146-.00047302247 .15098572 .024551392 .1329956 .12062073 .12199402 .18066406 .12199402 .2727356 .12199402 .3317871 .12199402 .39582826 .12199402 .46188355 .12998963 .5159149 .14898682 .63500979 .22399903 .64401248 .24899292 .64401248 .28199769 .64401248 .34799195 .6259918 .36698915 .52693179 .3769989 .47088624 .3769989 .39482118 .3769989 .3317871Z"/>
<path id="font_2_88" d="M.19198609 .052993776C.19198609 .08198547 .16799927 .10598755 .13899231 .10598755 .10998535 .10598755 .085998538 .08198547 .085998538 .052993776 .085998538 .023986817 .10998535 0 .13899231 0 .16799927 0 .19198609 .023986817 .19198609 .052993776Z"/>
<path id="font_2_107" d="M.44898988 .17396546H.42399598C.4189911 .14398194 .4119873 .099990848 .4019928 .084991458 .394989 .07699585 .32899476 .07699585 .30699159 .07699585H.1269989L.23298645 .17996216C.3889923 .31803895 .44898988 .37210084 .44898988 .47216798 .44898988 .5860901 .35899354 .6660156 .23699951 .6660156 .12399292 .6660156 .049987794 .57411196 .049987794 .48516847 .049987794 .4291687 .099990848 .4291687 .102996829 .4291687 .11999512 .4291687 .15499878 .44117738 .15499878 .48217774 .15499878 .5081787 .13699341 .5341797 .101989749 .5341797 .09399414 .5341797 .09199524 .5341797 .08898926 .5331726 .11199951 .59806826 .1659851 .63500979 .22399903 .63500979 .31498719 .63500979 .35798646 .5541382 .35798646 .47216798 .35798646 .39196778 .30799867 .31297303 .25299073 .25097657L.06098938 .036987306C.049987794 .025985718 .049987794 .023986817 .049987794 0H.42099L.44898988 .17396546Z"/>
<path id="font_2_56" d="M.44898988 .20091248C.44898988 .31991578 .36698915 .41992188 .25898744 .41992188 .21099854 .41992188 .16799927 .4039154 .13198853 .36891175V.5641022C.1519928 .55778506 .18499756 .55078127 .21699524 .55078127 .33999635 .55078127 .4099884 .6418457 .4099884 .65493777 .4099884 .6609802 .40699769 .6660156 .3999939 .6660156 .3999939 .66607668 .39698792 .66607668 .3919983 .66308596 .37199403 .65408328 .32299806 .63378909 .2559967 .63378909 .21598816 .63409426 .16999817 .641098 .12298584 .6621094 .114990238 .6651001 .11099243 .6651001 .11099243 .6651001 .100997928 .66508486 .100997928 .657074 .100997928 .64108279V.3447113C.100997928 .3266449 .100997928 .31861878 .114990238 .31861878 .12199402 .31861878 .12399292 .32164 .12799073 .32765199 .13899231 .34371949 .17599488 .3979187 .25698854 .3979187 .30899049 .3979187 .33399964 .3517456 .34199525 .3336792 .35798646 .2965393 .3600006 .2574005 .3600006 .20721436 .3600006 .17218018 .3600006 .112197879 .33599855 .07032776 .31199647 .031448366 .2749939 .0055389406 .22898865 .0055389406 .1559906 .0055389406 .09899902 .05836487 .08198547 .1171875 .084991458 .11685181 .08799744 .115859989 .09899902 .115859989 .13198853 .115859989 .14898682 .14085388 .14898682 .16485596 .14898682 .18885803 .13198853 .21386719 .09899902 .21386719 .084991458 .21386719 .049987794 .2068634 .049987794 .16085816 .049987794 .07432556 .11898804-.022460938 .23098755-.022460938 .34700013-.022460938 .44898988 .07331848 .44898988 .20019531V.20091248Z"/>
<path id="font_2_100" d="M.4850006 .6435547H.24198914C.11999512 .6435547 .117996219 .6566467 .11399841 .67578127H.08898926L.055999757 .46954347H.08099365C.083999637 .48554994 .09298706 .54855349 .10598755 .5605469 .11299133 .5665436 .19099427 .5665436 .20399475 .5665436H.41099549L.29899598 .40853883C.20899964 .2735443 .17599488 .13453675 .17599488 .03253174 .17599488 .022537232 .17599488-.022460938 .22200012-.022460938 .2679901-.022460938 .2679901 .022537232 .2679901 .03253174V.08354187C.2679901 .13853455 .2709961 .19354248 .2789917 .24754334 .2829895 .27053834 .29699708 .35653688 .34098817 .41854859L.47599793 .608551C.4850006 .62054446 .4850006 .62254336 .4850006 .6435547Z"/>
<path id="font_2_82" d="M.4189911 0V.0309906H.3869934C.29699708 .0309906 .2939911 .041992189 .2939911 .07902527V.64012148C.2939911 .6640167 .2939911 .6660156 .2709961 .6660156 .20899964 .60227969 .12098694 .60227969 .08898926 .60227969V.57128909C.10899353 .57128909 .16799927 .57128909 .21998596 .5972748V.07902527C.21998596 .042999269 .21699524 .0309906 .1269989 .0309906H.09498596V0C.12998963 .0029907227 .21699524 .0029907227 .25698854 .0029907227 .29699708 .0029907227 .38398744 .0029907227 .4189911 0Z"/>
<path id="font_1_2" d="M.34999085 .056259157C.36099244 .015258789 .3959961-.0107421879 .43899537-.0107421879 .47399903-.0107421879 .49699403 .012252808 .5130005 .044265748 .5299988 .08027649 .54299929 .14129639 .54299929 .14329529 .54299929 .1532898 .5339966 .1532898 .5309906 .1532898 .5209961 .1532898 .519989 .14929199 .5169983 .13528443 .5029907 .07926941 .48399354 .011245728 .44198609 .011245728 .42099 .011245728 .41099549 .024261475 .41099549 .057266237 .41099549 .07926941 .4229889 .12628174 .43099977 .16130066L.45899964 .2693329C.46199037 .28433229 .47200013 .32234193 .47599793 .3373413 .48098756 .36035157 .4909973 .3983612 .4909973 .40437318 .4909973 .42237855 .47698976 .43138124 .46199037 .43138124 .45700074 .43138124 .43099977 .43037416 .4229889 .3963623 .4039917 .323349 .3600006 .14828491 .34799195 .09527588 .34700013 .091278079 .30699159 .011245728 .23399353 .011245728 .18199158 .011245728 .17199707 .056259157 .17199707 .09327698 .17199707 .14929199 .19999695 .22831726 .22599793 .29733277 .23799134 .3273468 .24299622 .34135438 .24299622 .36035157 .24299622 .405365 .21099854 .4423828 .16099549 .4423828 .06599426 .4423828 .0289917 .29733277 .0289917 .28833009 .0289917 .27833558 .038986207 .27833558 .040985109 .27833558 .050994874 .27833558 .051986696 .28033448 .056991579 .29634095 .08198547 .38336183 .11999512 .42037965 .1579895 .42037965 .16699219 .42037965 .18299866 .41937257 .18299866 .38735963 .18299866 .36335755 .17199707 .3343506 .1659851 .31933595 .1289978 .2203064 .10798645 .15829468 .10798645 .10928345 .10798645 .014251709 .1769867-.0107421879 .23098755-.0107421879 .29699708-.0107421879 .33299256 .03425598 .34999085 .056259157Z"/>
<path id="font_1_1" d="M.20599365 .3996582H.2999878C.31999208 .3996582 .32998658 .3996582 .32998658 .41966249 .32998658 .43066407 .31999208 .43066407 .3019867 .43066407H.21398926C.25 .5724945 .25498963 .59246829 .25498963 .59846499 .25498963 .61546328 .24299622 .62545779 .22599793 .62545779 .22299195 .62545779 .19499207 .62446597 .18598938 .58947756L.14698792 .43066407H.052993776C.032989503 .43066407 .022994996 .43066407 .022994996 .4116516 .022994996 .3996582 .0309906 .3996582 .050994874 .3996582H.13899231C.066986087 .11608887 .06298828 .099121097 .06298828 .08114624 .06298828 .02722168 .100997928-.0107421879 .15499878-.0107421879 .25698854-.0107421879 .31399537 .13505554 .31399537 .14305115 .31399537 .1530304 .30599977 .1530304 .3019867 .1530304 .29299928 .1530304 .2919922 .15003968 .2869873 .13905335 .24398804 .035217287 .19099427 .011245728 .15699768 .011245728 .13598633 .011245728 .12599182 .024230957 .12599182 .057174684 .12599182 .08114624 .12799073 .088134769 .13198853 .10510254L.20599365 .3996582Z"/>
<path id="font_3_7" d="M.68699648 .32714845C.70199587 .32714845 .72099307 .32714845 .72099307 .34713746 .72099307 .36714173 .70199587 .36714173 .6879883 .36714173H.08898926C.07499695 .36714173 .055999757 .36714173 .055999757 .34713746 .055999757 .32714845 .07499695 .32714845 .08999634 .32714845H.68699648M.6879883 .13284302C.70199587 .13284302 .72099307 .13284302 .72099307 .15284729 .72099307 .17285156 .70199587 .17285156 .68699648 .17285156H.08999634C.07499695 .17285156 .055999757 .17285156 .055999757 .15284729 .055999757 .13284302 .07499695 .13284302 .08898926 .13284302H.6879883Z"/>
<path id="font_3_1" d="M.45999146 .31976319C.45999146 .39982606 .45498658 .47988893 .41999818 .5539398 .37399293 .65000918 .2919922 .6660156 .25 .6660156 .18998719 .6660156 .116989139 .64001467 .07598877 .54693606 .04399109 .47789 .038986207 .39982606 .038986207 .31976319 .038986207 .24472046 .042999269 .15464783 .083999637 .07859802 .1269989-.0024719239 .19999695-.022460938 .24899292-.022460938 .30299378-.022460938 .3789978-.0014648438 .4229889 .09359741 .45498658 .16265869 .45999146 .2407074 .45999146 .31976319M.24899292-.00047302247C.20999146-.00047302247 .15098572 .024551392 .1329956 .12062073 .12199402 .18066406 .12199402 .2727356 .12199402 .3317871 .12199402 .39582826 .12199402 .46188355 .12998963 .5159149 .14898682 .63500979 .22399903 .64401248 .24899292 .64401248 .28199769 .64401248 .34799195 .6259918 .36698915 .52693179 .3769989 .47088624 .3769989 .39482118 .3769989 .3317871 .3769989 .25672914 .3769989 .18867493 .3659973 .12461853 .35099793 .029556275 .2939911-.00047302247 .24899292-.00047302247Z"/>
<path id="font_3_2" d="M.2939911 .64004519C.2939911 .66400149 .2939911 .6660156 .2709961 .6660156 .20899964 .60227969 .12098694 .60227969 .08898926 .60227969V.57128909C.10899353 .57128909 .16799927 .57128909 .21998596 .5972748V.07902527C.21998596 .042999269 .21699524 .0309906 .1269989 .0309906H.09498596V0C.12998963 .0029907227 .21699524 .0029907227 .25698854 .0029907227 .29699708 .0029907227 .38398744 .0029907227 .4189911 0V.0309906H.3869934C.29699708 .0309906 .2939911 .041992189 .2939911 .07902527V.64004519Z"/>
<path id="font_3_3" d="M.1269989 .07699585 .23298645 .18003845C.3889923 .31811524 .44898988 .3721466 .44898988 .47216798 .44898988 .5860901 .35899354 .6660156 .23699951 .6660156 .12399292 .6660156 .049987794 .57411196 .049987794 .48516847 .049987794 .4291687 .099990848 .4291687 .102996829 .4291687 .11999512 .4291687 .15499878 .44117738 .15499878 .48217774 .15499878 .5081787 .13699341 .5341797 .101989749 .5341797 .09399414 .5341797 .09199524 .5341797 .08898926 .5331726 .11199951 .59806826 .1659851 .63500979 .22399903 .63500979 .31498719 .63500979 .35798646 .5541382 .35798646 .47216798 .35798646 .39215089 .30799867 .31311036 .25299073 .25108338L.06098938 .036987306C.049987794 .025985718 .049987794 .023986817 .049987794 0H.42099L.44898988 .17404175H.42399598C.4189911 .14402771 .4119873 .1000061 .4019928 .084991458 .394989 .07699585 .32899476 .07699585 .30699159 .07699585H.1269989Z"/>
<path id="font_3_4" d="M.2899933 .35191346C.37199403 .37893678 .42999269 .4490509 .42999269 .52809146 .42999269 .6100464 .34199525 .6660156 .24598694 .6660156 .14498902 .6660156 .068984989 .60606387 .068984989 .53009036 .068984989 .49710084 .09098816 .47808839 .11999512 .47808839 .15098572 .47808839 .17098999 .50009158 .17098999 .5290985 .17098999 .57910159 .12399292 .57910159 .10899353 .57910159 .13999939 .62802127 .20599365 .64100649 .24198914 .64100649 .2829895 .64100649 .33799745 .6190338 .33799745 .5290985 .33799745 .51708987 .33599855 .45906068 .30999757 .4149933 .27999879 .36691285 .24598694 .36390687 .22099304 .36291505 .21299744 .36190797 .18899536 .35990907 .18199158 .35990907 .17399597 .35890199 .16699219 .35791017 .16699219 .3479004 .16699219 .33691407 .17399597 .33691407 .19099427 .33691407H.23498535C.31698609 .33691407 .35398866 .2686615 .35398866 .17037964 .35398866 .034469606 .2849884 .0055389406 .24099732 .0055389406 .19799805 .0055389406 .12298584 .022491456 .08799744 .08137512 .12298584 .07637024 .1539917 .09837341 .1539917 .1363678 .1539917 .17237854 .1269989 .19238281 .09799194 .19238281 .07398987 .19238281 .041992189 .17837525 .041992189 .1343689 .041992189 .043441774 .1349945-.022460938 .24398804-.022460938 .3659973-.022460938 .45700074 .06838989 .45700074 .17037964 .45700074 .252594 .3939972 .33088685 .2899933 .35191346Z"/>
<path id="font_3_5" d="M.2939911 .16503906V.07800293C.2939911 .041992189 .2919922 .0309906 .21798706 .0309906H.19699097V0C.23799134 .0029907227 .2899933 .0029907227 .33198548 .0029907227 .37399293 .0029907227 .4269867 .0029907227 .46798707 0V.0309906H.44699098C.37298585 .0309906 .37098695 .041992189 .37098695 .07800293V.16503906H.47099305V.19602967H.37098695V.65075686C.37098695 .67074587 .37098695 .6767578 .35499574 .6767578 .34599305 .6767578 .34298707 .6767578 .33499146 .66474917L.027999878 .19602967V.16503906H.2939911M.2999878 .19602967H.055999757L.2999878 .5688019V.19602967Z"/>
<path id="font_3_6" d="M.44898988 .20022583C.44898988 .3193512 .36698915 .41944886 .25898744 .41944886 .21099854 .41944886 .16799927 .40345765 .13198853 .36842347V.5637665C.1519928 .5577698 .18499756 .55078127 .21699524 .55078127 .33999635 .55078127 .4099884 .6417694 .4099884 .6547699 .4099884 .6607666 .40699769 .6657715 .3999939 .6657715 .39898683 .6657715 .39698792 .6657715 .3919983 .66278079 .37199403 .6537781 .32299806 .6337738 .2559967 .6337738 .21598816 .6337738 .16999817 .6407776 .12298584 .6617737 .114990238 .66477969 .11299133 .66477969 .11099243 .66477969 .100997928 .66477969 .100997928 .6567688 .100997928 .6407776V.34439088C.100997928 .32637025 .100997928 .31835938 .114990238 .31835938 .12199402 .31835938 .12399292 .32136537 .12799073 .32736207 .13899231 .3433838 .17599488 .39746095 .25698854 .39746095 .30899049 .39746095 .33399964 .35139466 .34199525 .33337403 .35798646 .29632569 .3600006 .25727845 .3600006 .20722962 .3600006 .17222595 .3600006 .11222839 .33599855 .07035828 .31199647 .031463624 .2749939 .0055389406 .22898865 .0055389406 .1559906 .0055389406 .09899902 .058380128 .08198547 .11723328 .084991458 .1162262 .08799744 .115234378 .09899902 .115234378 .13198853 .115234378 .14898682 .14022827 .14898682 .16423035 .14898682 .18823242 .13198853 .21322632 .09899902 .21322632 .084991458 .21322632 .049987794 .20622254 .049987794 .16023255 .049987794 .07434082 .11898804-.022460938 .23098755-.022460938 .34700013-.022460938 .44898988 .073349 .44898988 .20022583Z"/>
</defs>
<path transform="matrix(1.00008,0,0,-1.00005,26.611695,196.8252)" stroke-width=".3985" stroke-linecap="butt" stroke-miterlimit="10" stroke-linejoin="miter" fill="none" stroke="#000000" d="M-25.51364 0H280.23643"/>
<path transform="matrix(1.00008,0,0,-1.00005,307.0698,196.8252)" stroke-width=".3985" stroke-linecap="round" stroke-linejoin="round" fill="none" stroke="#000000" d="M-2.07224 2.39104C-1.69365 .95639-.84999 .27895 0 0-.84999-.27895-1.69365-.95639-2.07224-2.39104"/>
<use data-text="x" xlink:href="#font_1_3" transform="matrix(9.963397,0,0,-9.963098,310.78944,193.30503)"/>
<path transform="matrix(1.00008,0,0,-1.00005,26.611695,196.8252)" stroke-width=".3985" stroke-linecap="butt" stroke-miterlimit="10" stroke-linejoin="miter" fill="none" stroke="#000000" d="M63.78021 4.25224V-4.25224"/>
<use data-text="0" xlink:href="#font_2_121" transform="matrix(9.963397,0,0,-9.963098,81.53909,211.23291)"/>
<use data-text="." xlink:href="#font_2_88" transform="matrix(9.963397,0,0,-9.963098,86.52078,211.23291)"/>
<use data-text="2" xlink:href="#font_2_107" transform="matrix(9.963397,0,0,-9.963098,89.2906,211.23291)"/>
<use data-text="5" xlink:href="#font_2_56" transform="matrix(9.963397,0,0,-9.963098,94.27231,211.23291)"/>
<path transform="matrix(1.00008,0,0,-1.00005,26.611695,196.8252)" stroke-width=".3985" stroke-linecap="butt" stroke-miterlimit="10" stroke-linejoin="miter" fill="none" stroke="#000000" d="M127.56056 4.25224V-4.25224"/>
<use data-text="0" xlink:href="#font_2_121" transform="matrix(9.963397,0,0,-9.963098,147.8154,211.23291)"/>
<use data-text="." xlink:href="#font_2_88" transform="matrix(9.963397,0,0,-9.963098,152.79709,211.23291)"/>
<use data-text="5" xlink:href="#font_2_56" transform="matrix(9.963397,0,0,-9.963098,155.56691,211.23291)"/>
<path transform="matrix(1.00008,0,0,-1.00005,26.611695,196.8252)" stroke-width=".3985" stroke-linecap="butt" stroke-miterlimit="10" stroke-linejoin="miter" fill="none" stroke="#000000" d="M191.34093 4.25224V-4.25224"/>
<use data-text="0" xlink:href="#font_2_121" transform="matrix(9.963397,0,0,-9.963098,209.11029,211.33292)"/>
<use data-text="." xlink:href="#font_2_88" transform="matrix(9.963397,0,0,-9.963098,214.09198,211.33292)"/>
<use data-text="7" xlink:href="#font_2_100" transform="matrix(9.963397,0,0,-9.963098,216.86182,211.33292)"/>
<use data-text="5" xlink:href="#font_2_56" transform="matrix(9.963397,0,0,-9.963098,221.8435,211.33292)"/>
<path transform="matrix(1.00008,0,0,-1.00005,26.611695,196.8252)" stroke-width=".3985" stroke-linecap="butt" stroke-miterlimit="10" stroke-linejoin="miter" fill="none" stroke="#000000" d="M255.12128 4.25224V-4.25224"/>
<use data-text="1" xlink:href="#font_2_82" transform="matrix(9.963397,0,0,-9.963098,279.26289,211.23291)"/>
<path transform="matrix(1.00008,0,0,-1.00005,26.611695,196.8252)" stroke-width=".3985" stroke-linecap="butt" stroke-miterlimit="10" stroke-linejoin="miter" fill="none" stroke="#000000" d="M2.54973 85.04042H-2.54973"/>
<use data-text="1" xlink:href="#font_2_82" transform="matrix(9.963397,0,0,-9.963098,15.559814,115.098117)"/>
<path transform="matrix(1.00008,0,0,-1.00005,26.611695,196.8252)" stroke-width=".3985" stroke-linecap="butt" stroke-miterlimit="10" stroke-linejoin="miter" fill="none" stroke="#000000" d="M2.54973 170.08086H-2.54973"/>
<use data-text="2" xlink:href="#font_2_107" transform="matrix(9.963397,0,0,-9.963098,15.559814,30.053864)"/>
<path transform="matrix(1.00008,0,0,-1.00005,26.611695,196.8252)" stroke-width=".3985" stroke-linecap="butt" stroke-miterlimit="10" stroke-linejoin="miter" fill="none" stroke="#000000" d="M0-8.50455V186.69017"/>
<path transform="matrix(0,-1.00005,-1.00008,-0,26.611695,9.926437)" stroke-width=".3985" stroke-linecap="round" stroke-linejoin="round" fill="none" stroke="#000000" d="M-2.07224 2.39104C-1.69365 .95639-.84999 .27895 0 0-.84999-.27895-1.69365-.95639-2.07224-2.39104"/>
<use data-text="u" xlink:href="#font_1_2" transform="matrix(9.963397,0,0,-9.963098,30.131974,6.207672)"/>
<path transform="matrix(1.00008,0,0,-1.00005,26.611695,196.8252)" stroke-width=".3985" stroke-linecap="butt" stroke-miterlimit="10" stroke-linejoin="miter" fill="none" stroke="#000000" d="M0 170.08086 2.57312 169.90564 5.14626 169.39566 7.71939 168.54576 10.29266 167.35973 12.8658 165.84543 15.43892 164.00409 18.01205 161.84488 20.58533 159.38202 23.15846 156.61548 25.7316 153.56607 28.30472 150.23903 30.87799 146.6498 33.45113 142.81534 36.02426 138.74735 38.5974 134.46395 41.17065 129.98458 43.74379 125.31963 46.31693 120.4964 48.8902 115.53172 51.46333 110.4412 54.03645 105.25073 56.60959 99.97983 59.18286 94.64795 61.756 89.2784 64.32913 83.89201 66.90225 78.50952 69.47552 73.15424 72.04866 67.8457 74.6218 62.60468 77.19493 57.45444 79.76819 52.41708 82.34132 47.50952 84.91446 42.75246 87.4876 38.1654 90.06087 33.76389 92.63399 29.57129 95.20712 25.60188 97.7804 21.86995 100.35353 18.39236 102.92667 15.17947 105.49979 12.24942 108.07306 9.61267 110.6462 7.2757 113.21933 5.25403 115.79247 3.55156 118.36572 2.17348 120.93886 1.13147 123.512 .42686 126.08513 .05836 128.6584 .03502 131.23152 .35161 133.80466 1.00693 136.37779 2.00218 138.95107 3.32576 141.5242 4.98152 144.09732 6.95909 146.6706 9.24806 149.24373 11.84459 151.81687 14.73048 154.39 17.90054 156.96326 21.34184 159.53639 25.03482 162.10953 28.97308 164.68267 33.13585 167.25594 37.50362 169.82906 42.06604 172.40219 46.79843 174.97533 51.68524 177.5486 56.70569 180.12174 61.84164 182.69486 67.06845 185.26799 72.3679 187.84127 77.71925 190.4144 83.10048 192.98754 88.48558 195.56079 93.85896 198.13393 99.19737 200.70706 104.47867 203.2802 109.68341 205.85347 114.78949 208.42659 119.77495 210.99973 124.61894 213.57286 129.30591 216.14614 133.81642 218.71927 138.1297 221.29239 142.23014 223.86553 146.1022 226.4388 149.72647 229.01194 153.09378 231.58507 156.18468 234.15819 158.99272 236.73146 161.50489 239.3046 163.70565 241.87773 165.59369 244.451 167.1586 247.02413 168.39133 249.59726 169.29187 252.1704 169.85247 254.74367 170.07306"/>
<use data-text="t" xlink:href="#font_1_1" transform="matrix(9.963397,0,0,-9.963098,284.89537,29.953858)"/>
<use data-text="=" xlink:href="#font_3_7" transform="matrix(9.963397,0,0,-9.963098,291.26087,29.953858)"/>
<use data-text="0" xlink:href="#font_3_1" transform="matrix(9.963397,0,0,-9.963098,301.76228,29.953858)"/>
<path transform="matrix(1.00008,0,0,-1.00005,26.611695,196.8252)" stroke-width=".3985" stroke-linecap="butt" stroke-miterlimit="10" stroke-linejoin="miter" fill="none" stroke="#000000" d="M0 142.20938 2.57312 142.09131 5.14626 141.74872 7.71939 141.1765 10.29266 140.37976 12.8658 139.3611 15.43892 138.12317 18.01205 136.67246 20.58533 135.01668 23.15846 133.15592 25.7316 131.10698 28.30472 128.86992 30.87799 126.45764 33.45113 123.8793 36.02426 121.14523 38.5974 118.26453 41.17065 115.25403 43.74379 112.11772 46.31693 108.87495 48.8902 105.5375 51.46333 102.11569 54.03645 98.62643 56.60959 95.08263 59.18286 91.49863 61.756 87.88866 64.32913 84.26964 66.90225 80.65057 69.47552 77.051 72.04866 73.48123 74.6218 69.95822 77.19493 66.49619 79.76819 63.10944 82.34132 59.8109 84.91446 56.61227 87.4876 53.52914 90.06087 50.57059 92.63399 47.75214 95.20712 45.08296 97.7804 42.57468 100.35353 40.23637 102.92667 38.07716 105.49979 36.10739 108.07306 34.33482 110.6462 32.76343 113.21933 31.4035 115.79247 30.25903 118.36572 29.33382 120.93886 28.63313 123.512 28.15947 126.08513 27.91165 128.6584 27.89609 131.23152 28.10889 133.80466 28.54877 136.37779 29.21835 138.95107 30.10721 141.5242 31.22058 144.09732 32.55063 146.6706 34.08961 149.24373 35.83485 151.81687 37.7748 154.39 39.9055 156.96326 42.21915 159.53639 44.70148 162.10953 47.3499 164.68267 50.14755 167.25594 53.08408 169.82906 56.15161 172.40219 59.33208 174.97533 62.61763 177.5486 65.99274 180.12174 69.44565 182.69486 72.9596 185.26799 76.52155 187.84127 80.11986 190.4144 83.73627 192.98754 87.35533 195.56079 90.96791 198.13393 94.5571 200.70706 98.10739 203.2802 101.60573 205.85347 105.03922 208.42659 108.38966 210.99973 111.6467 213.57286 114.79729 216.14614 117.82982 218.71927 120.72998 221.29239 123.48608 223.86553 126.08914 226.4388 128.52472 229.01194 130.78907 231.58507 132.86655 234.15819 134.7546 236.73146 136.44406 239.3046 137.92337 241.87773 139.19242 244.451 140.24481 247.02413 141.07265 249.59726 141.67867 252.1704 142.05496 254.74367 142.2029"/>
<use data-text="t" xlink:href="#font_1_1" transform="matrix(9.963397,0,0,-9.963098,284.89537,57.825258)"/>
<use data-text="=" xlink:href="#font_3_7" transform="matrix(9.963397,0,0,-9.963098,291.26087,57.825258)"/>
<use data-text="1" xlink:href="#font_3_2" transform="matrix(9.963397,0,0,-9.963098,301.76228,57.825258)"/>
<use data-text="0" xlink:href="#font_3_1" transform="matrix(9.963397,0,0,-9.963098,306.74397,57.825258)"/>
<path transform="matrix(1.00008,0,0,-1.00005,26.611695,196.8252)" stroke-width=".3985" stroke-linecap="butt" stroke-miterlimit="10" stroke-linejoin="miter" fill="none" stroke="#000000" d="M0 123.46146 2.57312 123.3823 5.14626 123.15134 7.71939 122.76724 10.29266 122.23134 12.8658 121.54747 15.43892 120.71571 18.01205 119.73988 20.58533 118.62654 23.15846 117.37694 25.7316 115.99887 28.30472 114.49625 30.87799 112.87422 33.45113 111.14189 36.02426 109.30447 38.5974 107.36972 41.17065 105.34546 43.74379 103.23814 46.31693 101.05814 48.8902 98.81587 51.46333 96.5152 54.03645 94.17041 56.60959 91.78928 59.18286 89.38092 61.756 86.95436 64.32913 84.52266 66.90225 82.0909 69.47552 79.67087 72.04866 77.27286 74.6218 74.90472 77.19493 72.5781 79.76819 70.3021 82.34132 68.0845 84.91446 65.93564 87.4876 63.86336 90.06087 61.87411 92.63399 59.98087 95.20712 58.18628 97.7804 56.50069 100.35353 54.92929 102.92667 53.47852 105.49979 52.15366 108.07306 50.96248 110.6462 49.90749 113.21933 48.99399 115.79247 48.22449 118.36572 47.60164 120.93886 47.13063 123.512 46.81271 126.08513 46.6466 128.6584 46.63622 131.23152 46.77896 133.80466 47.0748 136.37779 47.52507 138.95107 48.12196 141.5242 48.87071 144.09732 49.76346 146.6706 50.79767 149.24373 51.97202 151.81687 53.2748 154.39 54.70737 156.96326 56.26193 159.53639 57.93066 162.10953 59.70966 164.68267 61.59122 167.25594 63.56358 169.82906 65.62552 172.40219 67.76398 174.97533 69.97122 177.5486 72.23943 180.12174 74.55959 182.69486 76.92125 185.26799 79.31532 187.84127 81.73276 190.4144 84.16452 192.98754 86.59622 195.56079 89.02405 198.13393 91.43634 200.70706 93.82135 203.2802 96.17392 205.85347 98.47981 208.42659 100.73247 210.99973 102.92151 213.57286 105.03922 216.14614 107.07648 218.71927 109.0255 221.29239 110.87851 223.86553 112.62769 226.4388 114.26526 229.01194 115.78607 231.58507 117.1823 234.15819 118.45137 236.73146 119.58678 239.3046 120.58076 241.87773 121.43327 244.451 122.14049 247.02413 122.69716 249.59726 123.1046 252.1704 123.35767 254.74367 123.45753"/>
<use data-text="t" xlink:href="#font_1_1" transform="matrix(9.963397,0,0,-9.963098,284.89537,76.57219)"/>
<use data-text="=" xlink:href="#font_3_7" transform="matrix(9.963397,0,0,-9.963098,291.26087,76.57219)"/>
<use data-text="2" xlink:href="#font_3_3" transform="matrix(9.963397,0,0,-9.963098,301.76228,76.57219)"/>
<use data-text="0" xlink:href="#font_3_1" transform="matrix(9.963397,0,0,-9.963098,306.74397,76.57219)"/>
<path transform="matrix(1.00008,0,0,-1.00005,26.611695,196.8252)" stroke-width=".3985" stroke-linecap="butt" stroke-miterlimit="10" stroke-linejoin="miter" fill="none" stroke="#000000" d="M0 110.86424 2.57312 110.81102 5.14626 110.65532 7.71939 110.3971 10.29266 110.03763 12.8658 109.57697 15.43892 109.0177 18.01205 108.36243 20.58533 107.61499 23.15846 106.77415 25.7316 105.84895 28.30472 104.83809 30.87799 103.74811 33.45113 102.58415 36.02426 101.34883 38.5974 100.04729 41.17065 98.68741 43.74379 97.27171 46.31693 95.8067 48.8902 94.29889 51.46333 92.75343 54.03645 91.17683 56.60959 89.57684 59.18286 87.95743 61.756 86.32632 64.32913 84.69263 66.90225 83.05766 69.47552 81.43172 72.04866 79.8201 74.6218 78.22795 77.19493 76.6643 79.76819 75.1344 82.34132 73.64478 84.91446 72.1992 87.4876 70.80685 90.06087 69.47032 92.63399 68.19737 95.20712 66.99187 97.7804 65.85779 100.35353 64.80284 102.92667 63.82701 105.49979 62.93683 108.07306 62.13622 110.6462 61.42639 113.21933 60.81264 115.79247 60.29619 118.36572 59.87708 120.93886 59.56042 123.512 59.34636 126.08513 59.23476 128.6584 59.22829 131.23152 59.32428 133.80466 59.52281 136.37779 59.82518 138.95107 60.22742 141.5242 60.72958 144.09732 61.3304 146.6706 62.02594 149.24373 62.81355 151.81687 63.69078 154.39 64.65356 156.96326 65.69817 159.53639 66.8193 162.10953 68.01573 164.68267 69.27956 167.25594 70.60573 169.82906 71.99161 172.40219 73.42805 174.97533 74.91254 177.5486 76.43723 180.12174 77.99695 182.69486 79.58394 185.26799 81.19296 187.84127 82.81758 190.4144 84.45256 192.98754 86.08626 195.56079 87.71739 198.13393 89.3381 200.70706 90.94197 203.2802 92.52245 205.85347 94.07309 208.42659 95.58739 210.99973 97.05891 213.57286 98.48108 216.14614 99.85136 218.71927 101.16066 221.29239 102.40639 223.86553 103.58202 226.4388 104.6824 229.01194 105.70488 231.58507 106.64436 234.15819 107.49692 236.73146 108.2599 239.3046 108.92818 241.87773 109.50044 244.451 109.97665 247.02413 110.35034 249.59726 110.62416 252.1704 110.79414 254.74367 110.86163"/>
<use data-text="t" xlink:href="#font_1_1" transform="matrix(9.963397,0,0,-9.963098,284.89537,89.168819)"/>
<use data-text="=" xlink:href="#font_3_7" transform="matrix(9.963397,0,0,-9.963098,291.26087,89.168819)"/>
<use data-text="3" xlink:href="#font_3_4" transform="matrix(9.963397,0,0,-9.963098,301.76228,89.168819)"/>
<use data-text="0" xlink:href="#font_3_1" transform="matrix(9.963397,0,0,-9.963098,306.74397,89.168819)"/>
<path transform="matrix(1.00008,0,0,-1.00005,26.611695,196.8252)" stroke-width=".3985" stroke-linecap="butt" stroke-miterlimit="10" stroke-linejoin="miter" fill="none" stroke="#000000" d="M0 102.3921 2.57312 102.35576 5.14626 102.25197 7.71939 102.07806 10.29266 101.83672 12.8658 101.52788 15.43892 101.15158 18.01205 100.71039 20.58533 100.20822 23.15846 99.64377 25.7316 99.0222 28.30472 98.34354 30.87799 97.61038 33.45113 96.82791 36.02426 95.99875 38.5974 95.12416 41.17065 94.21063 43.74379 93.2582 46.31693 92.27461 48.8902 91.26117 51.46333 90.22308 54.03645 89.16292 56.60959 88.0885 59.18286 86.99979 61.756 85.9046 64.32913 84.80682 66.90225 83.70905 69.47552 82.61514 72.04866 81.53296 74.6218 80.46373 77.19493 79.41264 79.76819 78.38492 82.34132 77.38318 84.91446 76.41255 87.4876 75.47699 90.06087 74.57901 92.63399 73.72263 95.20712 72.91289 97.7804 72.15118 100.35353 71.44269 102.92667 70.7861 105.49979 70.18921 108.07306 69.6507 110.6462 69.17448 113.21933 68.76184 115.79247 68.41405 118.36572 68.13248 120.93886 67.91968 123.512 67.77693 126.08513 67.70169 128.6584 67.69649 131.23152 67.76138 133.80466 67.895 136.37779 68.09746 138.95107 68.36736 141.5242 68.70602 144.09732 69.10959 146.6706 69.57672 149.24373 70.10617 151.81687 70.69525 154.39 71.34149 156.96326 72.0435 159.53639 72.79742 162.10953 73.60063 164.68267 74.45059 167.25594 75.34204 169.82906 76.2724 172.40219 77.23784 174.97533 78.2357 177.5486 79.25955 180.12174 80.30798 182.69486 81.37462 185.26799 82.45557 187.84127 83.54683 190.4144 84.6446 192.98754 85.74239 195.56079 86.8389 198.13393 87.92888 200.70706 89.0059 203.2802 90.06734 205.85347 91.10934 208.42659 92.12668 210.99973 93.11545 213.57286 94.07181 216.14614 94.99182 218.71927 95.8716 221.29239 96.70856 223.86553 97.49878 226.4388 98.23842 229.01194 98.92488 231.58507 99.55551 234.15819 100.12906 236.73146 100.64162 239.3046 101.09056 241.87773 101.47598 244.451 101.79518 247.02413 102.04692 249.59726 102.22989 252.1704 102.34537 254.74367 102.38951"/>
<use data-text="t" xlink:href="#font_1_1" transform="matrix(9.963397,0,0,-9.963098,284.89537,97.64124)"/>
<use data-text="=" xlink:href="#font_3_7" transform="matrix(9.963397,0,0,-9.963098,291.26087,97.64124)"/>
<use data-text="4" xlink:href="#font_3_5" transform="matrix(9.963397,0,0,-9.963098,301.76228,97.64124)"/>
<use data-text="0" xlink:href="#font_3_1" transform="matrix(9.963397,0,0,-9.963098,306.74397,97.64124)"/>
<path transform="matrix(1.00008,0,0,-1.00005,26.611695,196.8252)" stroke-width=".3985" stroke-linecap="butt" stroke-miterlimit="10" stroke-linejoin="miter" fill="none" stroke="#000000" d="M0 96.70204 2.57312 96.67741 5.14626 96.60732 7.71939 96.49057 10.29266 96.32835 12.8658 96.1207 15.43892 95.86768 18.01205 95.57184 20.58533 95.23444 23.15846 94.85428 25.7316 94.43643 28.30472 93.98096 30.87799 93.48787 33.45113 92.96231 36.02426 92.40437 38.5974 91.81783 41.17065 91.20279 43.74379 90.56303 46.31693 89.90125 48.8902 89.2213 51.46333 88.52321 54.03645 87.8108 56.60959 87.08804 59.18286 86.35748 61.756 85.62044 64.32913 84.8834 66.90225 84.14503 69.47552 83.4106 72.04866 82.68265 74.6218 81.96503 77.19493 81.25786 79.76819 80.56754 82.34132 79.89406 84.91446 79.24268 87.4876 78.61331 90.06087 78.00995 92.63399 77.43509 95.20712 76.89009 97.7804 76.3788 100.35353 75.9013 102.92667 75.4614 105.49979 75.05916 108.07306 74.69713 110.6462 74.37662 113.21933 74.10019 115.79247 73.86665 118.36572 73.6772 120.93886 73.53445 123.512 73.43846 126.08513 73.38783 128.6584 73.38396 131.23152 73.42805 133.80466 73.51758 136.37779 73.65385 138.95107 73.8355 141.5242 74.06258 144.09732 74.33379 146.6706 74.64778 149.24373 75.00337 151.81687 75.39914 154.39 75.83382 156.96326 76.30615 159.53639 76.81224 162.10953 77.35204 164.68267 77.92297 167.25594 78.52246 169.82906 79.14795 172.40219 79.79674 174.97533 80.4676 177.5486 81.15535 180.12174 81.85995 182.69486 82.57625 185.26799 83.30289 187.84127 84.03737 190.4144 84.7744 192.98754 85.51271 195.56079 86.24847 198.13393 86.98164 200.70706 87.70567 203.2802 88.41937 205.85347 89.11877 208.42659 89.80264 210.99973 90.46703 213.57286 91.10934 216.14614 91.7283 218.71927 92.31999 221.29239 92.88187 223.86553 93.41263 226.4388 93.90959 229.01194 94.37154 231.58507 94.79585 234.15819 95.18126 236.73146 95.52513 239.3046 95.82745 241.87773 96.08568 244.451 96.30107 247.02413 96.46977 249.59726 96.59305 252.1704 96.66962 254.74367 96.70076"/>
<use data-text="t" xlink:href="#font_1_1" transform="matrix(9.963397,0,0,-9.963098,284.89537,103.32953)"/>
<use data-text="=" xlink:href="#font_3_7" transform="matrix(9.963397,0,0,-9.963098,291.26087,103.32953)"/>
<use data-text="5" xlink:href="#font_3_6" transform="matrix(9.963397,0,0,-9.963098,301.76228,103.32953)"/>
<use data-text="0" xlink:href="#font_3_1" transform="matrix(9.963397,0,0,-9.963098,306.74397,103.32953)"/>
</svg>
