<svg xmlns="http://www.w3.org/2000/svg" xmlns:xlink="http://www.w3.org/1999/xlink" xmlns:inkscape="http://www.inkscape.org/namespaces/inkscape" version="1.1" width="268" height="119" viewBox="0 0 268 119">
<defs>
<path id="font_1_2" d="M.33399964 .30233766C.33999635 .32835389 .36299134 .42037965 .43299867 .42037965 .43798829 .42037965 .46199037 .42037965 .48298646 .40734864 .45498658 .402359 .43499757 .37734986 .43499757 .35334779 .43499757 .33735658 .44599916 .31835938 .47299195 .31835938 .49499513 .31835938 .5269928 .3363495 .5269928 .37635804 .5269928 .42837525 .46798707 .4423828 .43399049 .4423828 .37599183 .4423828 .34098817 .38935853 .32899476 .36634828 .3039856 .43237306 .25 .4423828 .22099304 .4423828 .116989139 .4423828 .05999756 .3133545 .05999756 .28834535 .05999756 .27833558 .069992069 .27833558 .07199097 .27833558 .07998657 .27833558 .08299255 .28033448 .084991458 .28933717 .11898804 .39535523 .18499756 .42037965 .21899414 .42037965 .23799134 .42037965 .272995 .4113617 .272995 .35334779 .272995 .32235719 .2559967 .25532533 .21899414 .11528015 .20298767 .053268434 .16799927 .011245728 .12399292 .011245728 .117996219 .011245728 .09498596 .011245728 .07398987 .024276734 .09899902 .029266358 .12098694 .05027771 .12098694 .07827759 .12098694 .105270389 .09899902 .11328125 .083999637 .11328125 .053985597 .11328125 .0289917 .08728027 .0289917 .055267335 .0289917 .009246826 .07899475-.0107421879 .12298584-.0107421879 .18899536-.0107421879 .22499085 .059280397 .22799683 .0652771 .23999024 .028274537 .27598573-.0107421879 .33599855-.0107421879 .43899537-.0107421879 .49598695 .118270877 .49598695 .14328003 .49598695 .1532898 .4869995 .1532898 .48399354 .1532898 .47499085 .1532898 .47299195 .14929199 .47099305 .14228821 .43798829 .03527832 .36999513 .011245728 .33799745 .011245728 .29899598 .011245728 .2829895 .043273927 .2829895 .07727051 .2829895 .09927368 .2889862 .121276859 .2999878 .16529846L.33399964 .30233766Z"/>
<path id="font_1_3" d="M.48599244 .38136292C.48999024 .39537049 .48999024 .39736939 .48999024 .40437318 .48999024 .42237855 .47599793 .43138124 .46099855 .43138124 .45098878 .43138124 .43499757 .42536927 .42599488 .41036988 .42399598 .405365 .41600038 .37435914 .4119873 .35635377 .40499879 .33035279 .397995 .30334474 .3919983 .27633668L.34700013 .09628296C.34298707 .08126831 .2999878 .011245728 .23399353 .011245728 .18299866 .011245728 .17199707 .055267335 .17199707 .0922699 .17199707 .1382904 .18899536 .20030213 .22299195 .28833009 .23899842 .3293457 .24299622 .3403473 .24299622 .36035157 .24299622 .405365 .21099854 .4423828 .16099549 .4423828 .06599426 .4423828 .0289917 .29733277 .0289917 .28833009 .0289917 .27833558 .038986207 .27833558 .040985109 .27833558 .050994874 .27833558 .051986696 .28033448 .056991579 .29634095 .083999637 .3903656 .12399292 .42037965 .1579895 .42037965 .1659851 .42037965 .18299866 .42037965 .18299866 .3883667 .18299866 .36335755 .17298889 .3373413 .1659851 .31834413 .12599182 .21231079 .10798645 .1552887 .10798645 .10827637 .10798645 .019256592 .17098999-.0107421879 .22999573-.0107421879 .2689972-.0107421879 .30299378 .0062561037 .33099366 .03425598 .31799317-.017745972 .30599977-.06674194 .2659912-.11973572 .23999024-.15385437 .20199585-.18309021 .1559906-.18309021 .14199829-.18309021 .09700012-.18005371 .07998657-.14074707 .09599304-.14074707 .10899353-.14074707 .12298584-.1287384 .1329956-.11973572 .14299011-.10673523 .14299011-.08773804 .14299011-.056747438 .115997318-.052734376 .10598755-.052734376 .08299255-.052734376 .049987794-.068740848 .049987794-.11773682 .049987794-.16796875 .09399414-.20507813 .1559906-.20507813 .25898744-.20507813 .3619995-.11373901 .3899994-.00074768069L.48599244 .38136292Z"/>
<path id="font_1_1" d="M.2649994 .37265016H.37799073C.34498597 .22489929 .33599855 .18196106 .33599855 .11508179 .33599855 .100097659 .33599855 .073150638 .34399415 .03919983 .35398866-.0047454836 .36499024-.0107421879 .37998963-.0107421879 .3999939-.0107421879 .42099 .007247925 .42099 .02722168 .42099 .033218385 .42099 .035202028 .4149933 .049179079 .38598634 .12106323 .38598634 .18595886 .38598634 .21391297 .38598634 .26683045 .3929901 .32073976 .4039917 .37265016H.5179901C.5309906 .37265016 .5669861 .37265016 .5669861 .406662 .5669861 .43066407 .54599 .43066407 .5269928 .43066407H.19198609C.16999817 .43066407 .13198853 .43066407 .08799744 .38365174 .052993776 .34469605 .026992798 .29878236 .026992798 .29379273 .026992798 .29278565 .026992798 .28379823 .038986207 .28379823 .04699707 .28379823 .04899597 .28779603 .054992677 .29577638 .10398865 .37265016 .1619873 .37265016 .18199158 .37265016H.23899842C.20698548 .25186158 .15299988 .13105774 .11099243 .04020691 .102996829 .025222779 .102996829 .023223877 .102996829 .016235352 .102996829-.002746582 .11898804-.0107421879 .13198853-.0107421879 .1619873-.0107421879 .16999817 .017242432 .18199158 .05418396 .19599915 .100097659 .19599915 .10209656 .20899964 .15202332L.2649994 .37265016Z"/>
<path id="font_2_1" d="M.1269989 .07699585 .23298645 .18003845C.3889923 .31811524 .44898988 .3721466 .44898988 .47216798 .44898988 .5860901 .35899354 .6660156 .23699951 .6660156 .12399292 .6660156 .049987794 .57411196 .049987794 .48516847 .049987794 .4291687 .099990848 .4291687 .102996829 .4291687 .11999512 .4291687 .15499878 .44117738 .15499878 .48217774 .15499878 .5081787 .13699341 .5341797 .101989749 .5341797 .09399414 .5341797 .09199524 .5341797 .08898926 .5331726 .11199951 .59806826 .1659851 .63500979 .22399903 .63500979 .31498719 .63500979 .35798646 .5541382 .35798646 .47216798 .35798646 .39215089 .30799867 .31311036 .25299073 .25108338L.06098938 .036987306C.049987794 .025985718 .049987794 .023986817 .049987794 0H.42099L.44898988 .17404175H.42399598C.4189911 .14402771 .4119873 .1000061 .4019928 .084991458 .394989 .07699585 .32899476 .07699585 .30699159 .07699585H.1269989Z"/>
<path id="font_2_2" d="M.2899933 .35191346C.37199403 .37893678 .42999269 .4490509 .42999269 .52809146 .42999269 .6100464 .34199525 .6660156 .24598694 .6660156 .14498902 .6660156 .068984989 .60606387 .068984989 .53009036 .068984989 .49710084 .09098816 .47808839 .11999512 .47808839 .15098572 .47808839 .17098999 .50009158 .17098999 .5290985 .17098999 .57910159 .12399292 .57910159 .10899353 .57910159 .13999939 .62802127 .20599365 .64100649 .24198914 .64100649 .2829895 .64100649 .33799745 .6190338 .33799745 .5290985 .33799745 .51708987 .33599855 .45906068 .30999757 .4149933 .27999879 .36691285 .24598694 .36390687 .22099304 .36291505 .21299744 .36190797 .18899536 .35990907 .18199158 .35990907 .17399597 .35890199 .16699219 .35791017 .16699219 .3479004 .16699219 .33691407 .17399597 .33691407 .19099427 .33691407H.23498535C.31698609 .33691407 .35398866 .2686615 .35398866 .17037964 .35398866 .034469606 .2849884 .0055389406 .24099732 .0055389406 .19799805 .0055389406 .12298584 .022491456 .08799744 .08137512 .12298584 .07637024 .1539917 .09837341 .1539917 .1363678 .1539917 .17237854 .1269989 .19238281 .09799194 .19238281 .07398987 .19238281 .041992189 .17837525 .041992189 .1343689 .041992189 .043441774 .1349945-.022460938 .24398804-.022460938 .3659973-.022460938 .45700074 .06838989 .45700074 .17037964 .45700074 .252594 .3939972 .33088685 .2899933 .35191346Z"/>
<path id="font_3_1" d="M.6589966 .23046875C.6759949 .23046875 .69400027 .23046875 .69400027 .25045777 .69400027 .27046205 .6759949 .27046205 .6589966 .27046205H.117996219C.100997928 .27046205 .08299255 .27046205 .08299255 .25045777 .08299255 .23046875 .100997928 .23046875 .117996219 .23046875H.6589966Z"/>
<path id="font_4_64" d="M.27598573 .18710327V.24511719H.010986328V.18710327H.27598573Z"/>
<path id="font_4_82" d="M.4189911 0V.0309906H.3869934C.29699708 .0309906 .2939911 .041992189 .2939911 .07902527V.64012148C.2939911 .6640167 .2939911 .6660156 .2709961 .6660156 .20899964 .60227969 .12098694 .60227969 .08898926 .60227969V.57128909C.10899353 .57128909 .16799927 .57128909 .21998596 .5972748V.07902527C.21998596 .042999269 .21699524 .0309906 .1269989 .0309906H.09498596V0C.12998963 .0029907227 .21699524 .0029907227 .25698854 .0029907227 .29699708 .0029907227 .38398744 .0029907227 .4189911 0Z"/>
</defs>
<path transform="matrix(1.00009,0,0,-1.00005,129.83342,64.81959)" stroke-width=".3985" stroke-linecap="butt" stroke-miterlimit="10" stroke-linejoin="miter" fill="none" stroke="#000000" d="M-127.55977 0H127.16125"/>
<path transform="matrix(1.00009,0,0,-1.00005,257.20539,64.81959)" stroke-width=".3985" stroke-linecap="round" stroke-linejoin="round" fill="none" stroke="#000000" d="M-2.07224 2.39104C-1.69365 .95639-.84999 .27895 0 0-.84999-.27895-1.69365-.95639-2.07224-2.39104"/>
<use data-text="x" xlink:href="#font_1_2" transform="matrix(9.963496,0,0,-9.963098,260.92524,61.29941)"/>
<path transform="matrix(1.00009,0,0,-1.00005,129.83342,64.81959)" stroke-width=".3985" stroke-linecap="butt" stroke-miterlimit="10" stroke-linejoin="miter" fill="none" stroke="#000000" d="M0-53.15024V52.75174"/>
<path transform="matrix(0,-1.00005,-1.00009,-0,129.83342,11.865955)" stroke-width=".3985" stroke-linecap="round" stroke-linejoin="round" fill="none" stroke="#000000" d="M-2.07224 2.39104C-1.69365 .95639-.84999 .27895 0 0-.84999-.27895-1.69365-.95639-2.07224-2.39104"/>
<use data-text="y" xlink:href="#font_1_3" transform="matrix(9.963496,0,0,-9.963098,133.35373,6.2096636)"/>
<path transform="matrix(1.00009,0,0,-1.00005,129.83342,64.81959)" stroke-width=".3985" stroke-linecap="butt" stroke-miterlimit="10" stroke-linejoin="miter" fill="none" stroke="#000000" d="M40.07399 4.25226V-4.25226"/>
<use data-text="&#x03c0;" xlink:href="#font_1_1" transform="matrix(9.963496,0,0,-9.963098,166.89276,76.88219)"/>
<path transform="matrix(1.00009,0,0,-1.00005,129.83342,64.81959)" stroke-width=".3985" stroke-linecap="butt" stroke-miterlimit="10" stroke-linejoin="miter" fill="none" stroke="#000000" d="M80.148 4.25226V-4.25226"/>
<use data-text="2" xlink:href="#font_2_1" transform="matrix(9.963496,0,0,-9.963098,204.47914,79.0133)"/>
<use data-text="&#x03c0;" xlink:href="#font_1_1" transform="matrix(9.963496,0,0,-9.963098,209.46059,79.0133)"/>
<path transform="matrix(1.00009,0,0,-1.00005,129.83342,64.81959)" stroke-width=".3985" stroke-linecap="butt" stroke-miterlimit="10" stroke-linejoin="miter" fill="none" stroke="#000000" d="M120.222 4.25226V-4.25226"/>
<use data-text="3" xlink:href="#font_2_2" transform="matrix(9.963496,0,0,-9.963098,244.55673,79.0133)"/>
<use data-text="&#x03c0;" xlink:href="#font_1_1" transform="matrix(9.963496,0,0,-9.963098,249.53818,79.0133)"/>
<path transform="matrix(1.00009,0,0,-1.00005,129.83342,64.81959)" stroke-width=".3985" stroke-linecap="butt" stroke-miterlimit="10" stroke-linejoin="miter" fill="none" stroke="#000000" d="M-40.07399 4.25226V-4.25226"/>
<use data-text="&#x2212;" xlink:href="#font_3_1" transform="matrix(9.963496,0,0,-9.963098,82.8622,78.40427)"/>
<use data-text="&#x03c0;" xlink:href="#font_1_1" transform="matrix(9.963496,0,0,-9.963098,90.61189,78.40427)"/>
<path transform="matrix(1.00009,0,0,-1.00005,129.83342,64.81959)" stroke-width=".3985" stroke-linecap="butt" stroke-miterlimit="10" stroke-linejoin="miter" fill="none" stroke="#000000" d="M-80.148 4.25226V-4.25226"/>
<use data-text="&#x2212;" xlink:href="#font_3_1" transform="matrix(9.963496,0,0,-9.963098,40.294374,79.0133)"/>
<use data-text="2" xlink:href="#font_2_1" transform="matrix(9.963496,0,0,-9.963098,48.044069,79.0133)"/>
<use data-text="&#x03c0;" xlink:href="#font_1_1" transform="matrix(9.963496,0,0,-9.963098,53.025514,79.0133)"/>
<path transform="matrix(1.00009,0,0,-1.00005,129.83342,64.81959)" stroke-width=".3985" stroke-linecap="butt" stroke-miterlimit="10" stroke-linejoin="miter" fill="none" stroke="#000000" d="M-120.222 4.25226V-4.25226"/>
<use data-text="&#x2212;" xlink:href="#font_3_1" transform="matrix(9.963496,0,0,-9.963098,.21676636,79.0133)"/>
<use data-text="3" xlink:href="#font_2_2" transform="matrix(9.963496,0,0,-9.963098,7.966461,79.0133)"/>
<use data-text="&#x03c0;" xlink:href="#font_1_1" transform="matrix(9.963496,0,0,-9.963098,12.9479069,79.0133)"/>
<path transform="matrix(1.00009,0,0,-1.00005,129.83342,64.81959)" stroke-width=".3985" stroke-linecap="butt" stroke-miterlimit="10" stroke-linejoin="miter" fill="none" stroke="#000000" d="M1.27565-42.5202H-1.27565"/>
<use data-text="-" xlink:href="#font_4_64" transform="matrix(9.963496,0,0,-9.963098,116.73824,110.65988)"/>
<use data-text="1" xlink:href="#font_4_82" transform="matrix(9.963496,0,0,-9.963098,120.0561,110.65988)"/>
<path transform="matrix(1.00009,0,0,-1.00005,129.83342,64.81959)" stroke-width=".3985" stroke-linecap="butt" stroke-miterlimit="10" stroke-linejoin="miter" fill="none" stroke="#000000" d="M1.27565 42.5202H-1.27565"/>
<use data-text="1" xlink:href="#font_4_82" transform="matrix(9.963496,0,0,-9.963098,120.05554,25.614632)"/>
<path transform="matrix(1.00009,0,0,-1.00005,129.83342,64.81959)" stroke-width=".3985" stroke-linecap="butt" stroke-miterlimit="10" stroke-linejoin="miter" fill="none" stroke="#000000" d="M-80.148 42.5202H-40.07399"/>
<path transform="matrix(1.00009,0,0,-1.00005,129.83342,64.81959)" stroke-width=".3985" stroke-linecap="butt" stroke-miterlimit="10" stroke-linejoin="miter" fill="none" stroke="#000000" d="M-120.222-42.5202H-80.148"/>
<path transform="matrix(1.00009,0,0,-1.00005,129.83342,64.81959)" stroke-width=".3985" stroke-linecap="butt" stroke-miterlimit="10" stroke-linejoin="miter" fill="none" stroke="#000000" d="M0 42.5202H40.07399"/>
<path transform="matrix(1.00009,0,0,-1.00005,129.83342,64.81959)" stroke-width=".3985" stroke-linecap="butt" stroke-miterlimit="10" stroke-linejoin="miter" fill="none" stroke="#000000" d="M-40.07399-42.5202H0"/>
<path transform="matrix(1.00009,0,0,-1.00005,129.83342,64.81959)" stroke-width=".3985" stroke-linecap="butt" stroke-miterlimit="10" stroke-linejoin="miter" fill="none" stroke="#000000" d="M80.148 42.5202H120.222"/>
<path transform="matrix(1.00009,0,0,-1.00005,129.83342,64.81959)" stroke-width=".3985" stroke-linecap="butt" stroke-miterlimit="10" stroke-linejoin="miter" fill="none" stroke="#000000" d="M40.07399-42.5202H80.148"/>
<path transform="matrix(1.00009,0,0,-1.00005,129.83342,64.81959)" stroke-width=".3985" stroke-linecap="butt" stroke-miterlimit="10" stroke-linejoin="miter" fill="none" stroke="#0000ff" d="M-120.222-.00323C-120.222-.00323-119.7866-9.25444-119.61938-12.6329-119.45216-16.01137-119.184-21.33743-119.01678-24.35294-118.84956-27.36845-118.58139-31.90468-118.41417-34.36664-118.24695-36.82861-117.97879-40.31035-117.81157-42.09715-117.64435-43.88399-117.37617-46.17175-117.20897-47.2448-117.04175-48.31784-116.77356-49.42749-116.60634-49.83095-116.43913-50.23439-116.17096-50.30417-116.00375-50.15276-115.83653-50.00136-115.56834-49.27966-115.40112-48.73965-115.23392-48.19963-114.96574-46.99937-114.79852-46.26057-114.6313-45.52179-114.36314-44.16817-114.19592-43.4149-114.02872-42.66162-113.76053-41.44618-113.5933-40.83134-113.42609-40.2165-113.15793-39.35722-112.9907-38.98355-112.82349-38.60988-112.55531-38.22826-112.38809-38.13815-112.22087-38.04807-111.95271-38.15839-111.78549-38.33408-111.61827-38.50978-111.3501-39.02951-111.18288-39.40462-111.01566-39.77972-110.74748-40.5613-110.58026-41.03767-110.41306-41.51404-110.14488-42.36938-109.97768-42.8381-109.81046-43.30681-109.54227-44.05215-109.37505-44.41599-109.20784-44.77983-108.93967-45.26859-108.77245-45.46059-108.60524-45.65259-108.33705-45.80746-108.16983-45.79991-108.00262-45.79236-107.73445-45.5989-107.56723-45.40608-107.40001-45.21326-107.13185-44.73586-106.96463-44.41016-106.79741-44.08447-106.52924-43.44135-106.36201-43.0587-106.1948-42.67604-105.92664-42.00812-105.75941-41.65208-105.5922-41.29608-105.324-40.74707-105.1568-40.49268-104.98958-40.2383-104.7214-39.92097-104.5542-39.81854-104.38698-39.71613-104.1188-39.68797-103.9516-39.75432-103.78436-39.82065-103.51619-40.0806-103.34897-40.29672-103.18176-40.51285-102.91359-40.99614-102.74637-41.3121-102.57916-41.62805-102.31097-42.22818-102.14375-42.57405-101.97655-42.91989-101.70837-43.50436-101.54115-43.80482-101.37395-44.10532-101.10576-44.54892-100.93854-44.73975-100.77132-44.93059-100.50316-45.13971-100.33594-45.1803-100.16873-45.22089-99.90056-45.15138-99.73334-45.0324-99.56612-44.91338-99.29794-44.57524-99.13072-44.32257-98.9635-44.06989-98.69534-43.54308-98.52812-43.21118-98.3609-42.87929-98.09271-42.27069-97.9255-41.93042-97.75829-41.59016-97.49011-41.03285-97.3229-40.75867-97.15569-40.48448-96.88751-40.09999-96.72029-39.95416-96.55309-39.80833-96.2849-39.68925-96.11769-39.70763-95.95047-39.72597-95.6823-39.90405-95.51508-40.08652-95.34787-40.26898-95.07968-40.71004-94.91246-41.02277-94.74524-41.33548-94.47708-41.96033-94.30986-42.34047-94.14265-42.72063-93.87448-43.39792-93.70724-43.76268-93.54002-44.12743-93.27187-44.7022-93.10464-44.96945-92.93742-45.2367-92.66927-45.58409-92.50204-45.68898-92.33482-45.79384-92.06665-45.8181-91.89943-45.7253-91.73221-45.63249-91.46404-45.3044-91.29683-45.02005-91.12961-44.73569-90.86143-44.10286-90.69421-43.67572-90.527-43.24857-90.25882-42.42694-90.09161-41.94147-89.9244-41.45598-89.65622-40.61563-89.489-40.1767-89.3218-39.73776-89.0536-39.06448-88.88638-38.77786-88.71916-38.49127-88.451-38.15968-88.28378-38.11092-88.11658-38.06213-87.84839-38.19301-87.68117-38.42622-87.51395-38.65945-87.24579-39.28859-87.07857-39.79196-86.91135-40.29535-86.64319-41.35371-86.47597-42.05434-86.30873-42.75496-86.04057-44.07356-85.87335-44.84161-85.70613-45.60966-85.43796-46.92651-85.27075-47.58997-85.10353-48.25342-84.83536-49.25478-84.66814-49.62332-84.50092-49.99187-84.23274-50.35384-84.06554-50.2462-83.89832-50.13853-83.63013-49.57507-83.4629-48.84737-83.2957-48.11964-83.02753-46.43076-82.8603-45.00124-82.69308-43.57172-82.42493-40.67859-82.2577-38.54431-82.0905-36.41-81.82231-32.37689-81.65509-29.61868-81.48787-26.86044-81.21971-21.88922-81.05249-18.66486-80.88527-15.44049-80.6171-9.85207-80.44987-6.37968-80.28265-2.90732-80.0145 2.889-79.84727 6.36153-79.68005 9.83406-79.41188 15.423-79.24467 18.64798-79.07744 21.87297-78.80928 26.846-78.64206 29.60504-78.47484 32.36407-78.20667 36.39796-78.03946 38.53326-77.87224 40.66855-77.60405 43.56415-77.43683 44.99474-77.26962 46.42532-77.00145 48.11557-76.83424 48.8441-76.66702 49.57265-76.39885 50.13715-76.23161 50.24553-76.0644 50.35391-75.79623 49.99327-75.62901 49.62527-75.46179 49.25728-75.19363 48.25641-75.02641 47.59322-74.85919 46.93005-74.59102 45.61356-74.4238 44.8455-74.25658 44.07745-73.98842 42.75848-73.8212 42.0576-73.65398 41.3567-73.38579 40.29745-73.21858 39.7939-73.05136 39.29034-72.7832 38.66185-72.61598 38.42816-72.44876 38.19447-72.18059 38.06145-72.01338 38.1096-71.84616 38.15776-71.57797 38.48885-71.41075 38.77527-71.24355 39.0617-70.97537 39.73499-70.80817 40.17409-70.64095 40.61322-70.37276 41.4547-70.20554 41.94017-70.03833 42.42564-69.77016 43.24591-69.60294 43.67311-69.43571 44.10034-69.16756 44.73485-69.00034 45.0194-68.83311 45.30392-68.56494 45.63092-68.39772 45.724-68.2305 45.81708-67.96234 45.7947-67.79512 45.69026-67.6279 45.58586-67.35971 45.23866-67.1925 44.97137-67.02528 44.70412-66.75713 44.12862-66.5899 43.76395-66.42268 43.39928-66.1545 42.72295-65.98729 42.34306-65.82007 41.9632-65.5519 41.33908-65.38467 41.026-65.21747 40.7129-64.9493 40.26941-64.78209 40.08652-64.61487 39.90361-64.34668 39.72606-64.17946 39.70763-64.01225 39.68916-63.74408 39.80795-63.57686 39.95349-63.40965 40.09906-63.14146 40.48253-62.97424 40.75674-62.80704 41.03094-62.53886 41.58961-62.37164 41.92978-62.20444 42.26996-61.93626 42.87677-61.76904 43.20857-61.6018 43.54039-61.33365 44.06833-61.16643 44.32127-60.9992 44.57423-60.73105 44.91255-60.56383 45.03172-60.3966 45.1509-60.12842 45.22052-59.96121 45.1803-59.79399 45.14008-59.52582 44.93228-59.35861 44.74171-59.19139 44.55115-58.92322 44.10733-58.756 43.80678-58.58878 43.5062-58.3206 42.92111-58.1534 42.57533-57.98618 42.22958-57.718 41.63075-57.55078 41.3147-57.38358 40.99864-57.11539 40.51385-56.94817 40.29736-56.78096 40.08087-56.51279 39.82092-56.34557 39.75432-56.17836 39.68771-55.91017 39.7151-55.74295 39.81726-55.57573 39.91942-55.30757 40.23633-55.14035 40.49072-54.97314 40.74512-54.70497 41.29468-54.53775 41.6508-54.37053 42.00691-54.10236 42.6749-53.93513 43.05739-53.76791 43.4399-53.49974 44.08197-53.33253 44.4076-53.16531 44.73318-52.89714 45.21098-52.72992 45.40413-52.5627 45.5973-52.29453 45.79192-52.12732 45.79991-51.9601 45.80792-51.69193 45.65369-51.52469 45.46187-51.35748 45.27005-51.08931 44.78096-50.9221 44.4173-50.75488 44.05363-50.48671 43.30927-50.31949 42.8407-50.15228 42.37215-49.8841 41.51674-49.71687 41.04027-49.54965 40.5638-49.2815 39.78195-49.11427 39.40657-48.94707 39.03119-48.67888 38.5109-48.51166 38.33475-48.34444 38.15858-48.07628 38.04712-47.90906 38.13686-47.74184 38.22658-47.47368 38.60829-47.30646 38.98158-47.13924 39.3549-46.87106 40.21289-46.70384 40.82744-46.53662 41.44202-46.26845 42.65755-46.10124 43.41101-45.93402 44.16446-45.66583 45.5189-45.49861 46.25797-45.3314 46.99704-45.06323 48.1974-44.89603 48.7377-44.7288 49.278-44.46063 50.00035-44.29341 50.15211-44.12619 50.30385-43.85802 50.23416-43.6908 49.83159-43.52357 49.42903-43.25542 48.32268-43.0882 47.25063-42.92099 46.1786-42.6528 43.89087-42.48558 42.10495-42.31836 40.31906-42.0502 36.83994-41.88298 34.37895-41.71576 31.91795-41.44759 27.38275-41.28036 24.36789-41.11314 21.35301-40.84499 16.02797-40.67776 12.64977-40.51054 9.27159-40.24237 3.52432-40.07516 .02011-39.90794-3.4841-39.63977-9.2279-39.47255-12.6063-39.30533-15.98466-39.03716-21.31235-38.86995-24.32893-38.70273-27.3455-38.43454-31.88461-38.26732-34.34782-38.10011-36.81105-37.83194-40.2939-37.66472-42.08224-37.4975-43.87059-37.22934-46.16246-37.06212-47.23703-36.8949-48.31158-36.62672-49.42232-36.4595-49.82704-36.29228-50.23178-36.02412-50.30417-35.8569-50.15404-35.68968-50.0039-35.42151-49.28397-35.25429-48.74484-35.08707-48.2057-34.81891-47.00687-34.65169-46.26836-34.48447-45.52983-34.2163-44.17567-34.04907-43.42204-33.88185-42.66841-33.6137-41.45209-33.44647-40.83655-33.27925-40.22101-33.01108-39.35997-32.84387-38.98549-32.67665-38.61102-32.40846-38.22823-32.24124-38.1375-32.07404-38.04675-31.80586-38.15598-31.63866-38.33151-31.47144-38.50705-31.20325-39.02774-31.03603-39.40266-30.86882-39.77759-30.60065-40.55748-30.43343-41.03377-30.2662-41.51006-29.99805-42.36678-29.83083-42.83553-29.6636-43.30426-29.39543-44.0481-29.22821-44.41211-29.06099-44.77614-28.79283-45.26672-28.62561-45.45927-28.45839-45.65182-28.1902-45.8071-28.023-45.79991-27.85577-45.79272-27.58762-45.59984-27.4204-45.40738-27.25317-45.21492-26.985-44.73828-26.8178-44.41275-26.65056-44.08725-26.38239-43.44362-26.21516-43.0613-26.04796-42.67899-25.77979-42.01329-25.61258-41.65727-25.44536-41.30124-25.17717-40.75026-25.00995-40.49525-24.84274-40.24025-24.57457-39.92201-24.40735-39.81921-24.24013-39.71642-23.97195-39.68825-23.80473-39.75432-23.63751-39.82037-23.36935-40.07968-23.20213-40.29544-23.03491-40.5112-22.76675-40.99385-22.59953-41.30952-22.43231-41.62521-22.16412-42.22485-21.99692-42.5708-21.8297-42.91675-21.56154-43.50223-21.39432-43.8029-21.2271-44.10355-20.95891-44.54663-20.7917-44.73782-20.62448-44.929-20.35631-45.14008-20.18909-45.18094-20.02188-45.2218-19.75371-45.15111-19.5865-45.0324-19.41927-44.91365-19.1511-44.57748-18.98387-44.32518-18.81667-44.07286-18.5485-43.54556-18.38127-43.21376-18.21407-42.88194-17.94588-42.27383-17.77866-41.93365-17.61145-41.59349-17.34328-41.0363-17.17606-40.76193-17.00885-40.48758-16.74068-40.10239-16.57344-39.9561-16.40622-39.80983-16.13806-39.6898-15.97084-39.70763-15.80362-39.72542-15.53546-39.90237-15.36824-40.08456-15.20102-40.26677-14.93283-40.70818-14.76563-41.0208-14.5984-41.33342-14.33023-41.958-14.16302-42.33786-13.9958-42.71774-13.72762-43.39374-13.56041-43.75876-13.39319-44.1238-13.12502-44.70117-12.95781-44.96878-12.79059-45.2364-12.52242-45.58263-12.3552-45.68767-12.18799-45.79272-11.9198-45.81822-11.7526-45.72597-11.58537-45.6337-11.3172-45.30666-11.14998-45.02264-10.98277-44.73863-10.71458-44.10582-10.54736-43.67896-10.38014-43.25209-10.11198-42.43158-9.94476-41.946-9.77756-41.46043-9.50938-40.6186-9.34215-40.17929-9.17493-39.74-8.90677-39.0666-8.73955-38.77982-8.57233-38.49301-8.30415-38.16144-8.13695-38.1122-7.96973-38.06297-7.70155-38.19234-7.53433-38.42493-7.36711-38.65752-7.09894-39.28595-6.93173-39.78871-6.76451-40.29147-6.49632-41.34843-6.3291-42.0485-6.1619-42.74858-5.89372-44.06651-5.72652-44.83447-5.5593-45.60243-5.29112-46.91942-5.1239-47.5835-4.9567-48.24756-4.6885-49.2513-4.52129-49.62073-4.35406-49.99016-4.0859-50.3526-3.91869-50.2462-3.75148-50.1398-3.48329-49.57994-3.31607-48.85385-3.14885-48.12775-2.88069-46.441-2.71347-45.01291-2.54625-43.58482-2.27809-40.69403-2.11087-38.56117-1.94363-36.42833-1.67548-32.3976-1.50826-29.64072-1.34103-26.88383-1.07286-21.91492-.90565-18.69147-.73843-15.46802-.47025-9.88062-.30302-6.40823-.13582-2.93587 .13231 2.86186 .29953 6.33493 .46675 9.808 .73492 15.3978 .90215 18.62332 1.06937 21.84885 1.33754 26.8222 1.50475 29.58232 1.67197 32.34244 1.94012 36.3796 2.10735 38.5164 2.27457 40.65323 2.54276 43.55101 2.70996 44.98306 2.87718 46.41512 3.14536 48.10747 3.31258 48.83763 3.47978 49.56778 3.74797 50.1358 3.91518 50.24553 4.0824 50.35526 4.35057 49.99579 4.51779 49.62852 4.685 49.26126 4.95317 48.26122 5.12039 47.5984 5.28761 46.93558 5.55579 45.61922 5.723 44.85135 5.89023 44.08348 6.15839 42.76515 6.3256 42.06409 6.49283 41.36299 6.761 40.30264 6.92822 39.79843 7.09544 39.29425 7.36362 38.66425 7.53082 38.43011 7.69804 38.19597 7.9662 38.06311 8.13344 38.11092 8.30066 38.1587 8.56883 38.48882 8.73604 38.77463 8.90326 39.06044 9.17143 39.73221 9.33865 40.17085 9.50586 40.60953 9.77405 41.4507 9.94125 41.93626 10.10847 42.42183 10.37665 43.24304 10.54387 43.67052 10.71107 44.098 10.97926 44.73273 11.14648 45.01744 11.3137 45.30215 11.58186 45.62946 11.74908 45.72269 11.91629 45.81595 12.18446 45.79356 12.35168 45.68962 12.5189 45.58565 12.78708 45.23996 12.9543 44.97333 13.12152 44.70668 13.3897 44.13232 13.5569 43.76784 13.72412 43.40337 13.9923 42.72636 14.15952 42.3463 14.32674 41.96625 14.59491 41.34204 14.76212 41.0286 14.92934 40.71515 15.19751 40.27036 15.36473 40.08717 15.53195 39.904 15.80013 39.72697 15.96733 39.70825 16.13455 39.68953 16.40273 39.80713 16.56995 39.95222 16.73715 40.09732 17.00534 40.48029 17.17256 40.75414 17.33978 41.02797 17.60794 41.58572 17.77516 41.92589 17.94237 42.26607 18.21056 42.87372 18.37778 43.20598 18.545 43.53824 18.81316 44.0675 18.98038 44.32063 19.1476 44.57378 19.41576 44.91098 19.58298 45.03043 19.7502 45.14987 20.01837 45.22156 20.1856 45.18161 20.35281 45.14166 20.62099 44.93274 20.7882 44.74236 20.95541 44.55197 21.2236 44.10948 21.39082 43.80937 21.55803 43.50926 21.8262 42.925 21.99341 42.57924 22.16063 42.23347 22.4288 41.63353 22.59602 41.31729 22.76324 41.00107 23.03142 40.51663 23.19864 40.29997 23.36586 40.0833 23.63402 39.82259 23.80124 39.75562 23.96844 39.68864 24.23663 39.71547 24.40385 39.81726 24.57108 39.91905 24.83923 40.23547 25.00645 40.48941 25.17368 40.74335 25.44183 41.29181 25.60907 41.64757 25.77629 42.0033 26.04445 42.67087 26.21167 43.05351 26.37889 43.43617 26.64706 44.07959 26.81427 44.40562 26.98149 44.73166 27.24968 45.21013 27.4169 45.40349 27.5841 45.59682 27.85228 45.79091 28.01949 45.79927 28.1867 45.80765 28.4549 45.6551 28.62212 45.46384 28.78932 45.27257 29.0575 44.78397 29.22472 44.42055 29.39192 44.05714 29.6601 43.31316 29.82732 42.84459 29.99452 42.37604 30.26271 41.52007 30.42993 41.0435 30.59715 40.56694 30.86531 39.7853 31.03253 39.40982 31.19975 39.03435 31.46793 38.51404 31.63515 38.33734 31.80237 38.16064 32.07053 38.04735 32.23775 38.13618 32.40497 38.22504 32.67314 38.60497 32.84036 38.9777 33.00758 39.35048 33.27574 40.20853 33.44296 40.8229 33.61018 41.43729 33.87836 42.65277 34.04556 43.4058 34.21278 44.15881 34.48097 45.51102 34.64818 46.25017 34.8154 46.98933 35.08357 48.19206 35.2508 48.73317 35.418 49.27429 35.68619 49.99715 35.85341 50.15016 36.02061 50.3032 36.28879 50.23709 36.45601 49.83615 36.62321 49.4352 36.89139 48.33107 37.05861 47.26038 37.22583 46.18968 37.494 43.9037 37.66122 42.11923 37.82843 40.33476 38.0966 36.85861 38.26382 34.3991 38.43105 31.93956 38.69922 27.40623 38.86644 24.39252 39.03366 21.37883 39.30182 16.05598 39.46904 12.67831 39.63626 9.30066 39.90442 3.55293 40.07164 .04863 40.23888-3.45566 40.50705-9.19948 40.67426-12.5784 40.84148-15.95732 41.10965-21.2867 41.27686-24.30428 41.44408-27.32187 41.71227-31.86255 41.87947-34.32704 42.04669-36.79155 42.31487-40.2767 42.48209-42.06668 42.64929-43.85663 42.91748-46.15147 43.0847-47.22795 43.25192-48.3044 43.52008-49.41885 43.6873-49.82512 43.8545-50.23137 44.12268-50.30525 44.2899-50.156 44.45712-50.00676 44.7253-49.28815 44.89252-48.74937 45.05974-48.21062 45.3279-47.01114 45.49512-46.27289 45.66234-45.53465 45.93051-44.18216 46.09773-43.42851 46.26495-42.67488 46.53313-41.45717 46.70033-40.84108 46.86755-40.22499 47.13571-39.36293 47.30293-38.9881 47.47015-38.61327 47.73834-38.23073 47.90555-38.13947 48.07277-38.04817 48.34094-38.15567 48.50816-38.3302 48.67537-38.50473 48.94356-39.0229 49.11076-39.39748 49.27798-39.77203 49.54616-40.5536 49.71338-41.02989 49.88058-41.50618 50.14876-42.36153 50.316-42.83032 50.48322-43.29913 50.75137-44.0443 50.9186-44.40886 51.08582-44.77344 51.35397-45.265 51.5212-45.458 51.68842-45.651 51.95659-45.80666 52.12381-45.79991 52.29103-45.79315 52.5592-45.60143 52.72641-45.40933 52.89363-45.21724 53.1618-44.74051 53.32903-44.41536 53.49625-44.09021 53.76442-43.44832 53.93163-43.06583 54.09885-42.68333 54.36702-42.01514 54.53424-41.65857 54.70145-41.302 54.96964-40.751 55.13684-40.49593 55.30406-40.24081 55.57224-39.92284 55.73946-39.81985 55.90666-39.71687 56.17485-39.68806 56.34207-39.75368 56.5093-39.81927 56.77745-40.07716 56.94467-40.29283 57.1119-40.5085 57.38005-40.99254 57.54727-41.30823 57.71451-41.6239 57.98267-42.22263 58.14989-42.5682 58.31711-42.91377 58.58528-43.49815 58.75249-43.799 58.91971-44.09984 59.18788-44.54488 59.3551-44.73651 59.52232-44.92815 59.7905-45.13898 59.9577-45.1803 60.12492-45.22162 60.39311-45.15279 60.56033-45.03432 60.72754-44.91586 60.99571-44.5788 61.16292-44.32646 61.33014-44.07416 61.59831-43.54706 61.76553-43.21571 61.93274-42.88437 62.20093-42.27847 62.36815-41.9382 62.53537-41.59795 62.80353-41.03813 62.97075-40.76321 63.13795-40.4883 63.40614-40.1033 63.57336-39.95677 63.74059-39.81024 64.00874-39.6896 64.17596-39.70695 64.34319-39.72432 64.61136-39.90005 64.77856-40.08197 64.9458-40.26389 65.21396-40.70566 65.38118-41.0182 65.5484-41.33073 65.81657-41.95485 65.98378-42.33463 66.151-42.71442 66.41919-43.3905 66.58641-43.75552 66.75362-44.12056 67.02179-44.69766 67.189-44.96555 67.35622-45.23343 67.62439-45.5808 67.79163-45.68637 67.95883-45.79196 68.227-45.8184 68.39423-45.72661 68.56145-45.6348 68.8296-45.30832 68.99683-45.02458 69.16403-44.74084 69.43222-44.10815 69.59944-43.68155 69.76666-43.25496 70.03482-42.4352 70.20204-41.94989 70.36926-41.4646 70.63744-40.6233 70.80466-40.18384 70.97188-39.74435 71.24004-39.06993 71.40726-38.78241 71.57448-38.49489 71.84265-38.16148 72.00986-38.11156 72.17708-38.06161 72.44527-38.19035 72.61249-38.42232 72.7797-38.65431 73.04787-39.28122 73.21507-39.78352 73.3823-40.28583 73.65048-41.34277 73.8177-42.04266 73.98491-42.74255 74.25308-44.05986 74.4203-44.828 74.58751-45.59613 74.85568-46.91443 75.0229-47.57895 75.19012-48.24347 75.4583-49.24724 75.62552-49.6175 75.79272-49.98775 76.0609-50.3527 76.22812-50.24748 76.39534-50.14227 76.66351-49.58388 76.83073-48.85904 76.99796-48.1342 77.26611-46.44965 77.43333-45.02328 77.60056-43.59691 77.86874-40.70992 78.03595-38.57869 78.20317-36.44745 78.47133-32.41866 78.63855-29.66278 78.80577-26.9069 79.07394-21.93883 79.24115-18.71613 79.40837-15.4934 79.67656-9.9073 79.84377-6.43549 80.01099-2.96367 80.27916 2.83322 80.44638 6.30638 80.61359 9.77954 80.88177 15.3703 81.04898 18.59673 81.2162 21.82314 81.48438 26.79881 81.6516 29.56027 81.8188 32.32175 82.08698 36.36137 82.2542 38.49954 82.42143 40.63771 82.68959 43.53708 82.85681 44.97075 83.02402 46.40442 83.29219 48.10066 83.45941 48.83243 83.62663 49.56421 83.8948 50.13391 84.06203 50.24489 84.22925 50.35588 84.4974 49.99869 84.66463 49.6324 84.83185 49.26613 85.1 48.26753 85.26724 47.60489 85.43446 46.94228 85.70264 45.62459 85.86984 44.85655 86.03706 44.0885 86.30524 42.77036 86.47246 42.06927 86.63966 41.3682 86.90785 40.3083 87.07506 39.80363 87.24228 39.299 87.51045 38.66699 87.67767 38.43207 87.84488 38.19713 88.11307 38.06326 88.28029 38.11024 88.44751 38.15721 88.71567 38.48529 88.88289 38.77074 89.0501 39.05618 89.31827 39.72914 89.48549 40.16762 89.65271 40.60611 89.92088 41.44559 90.0881 41.93106 90.25533 42.41653 90.52348 43.23877 90.6907 43.66663 90.85793 44.09447 91.1261 44.72968 91.29332 45.01485 91.46054 45.30002 91.72871 45.62828 91.89592 45.72206 92.06314 45.81586 92.3313 45.79451 92.49854 45.6909 92.66576 45.58733 92.93393 45.24182 93.10114 44.9753 93.26836 44.70874 93.53653 44.13419 93.70375 43.76979 93.87096 43.4054 94.13914 42.72888 94.30637 42.3489 94.47359 41.96895 94.74174 41.34471 94.90897 41.03116 95.07617 40.71762 95.34436 40.27264 95.51158 40.08911 95.6788 39.90556 95.94696 39.72751 96.11418 39.70825 96.2814 39.68901 96.54956 39.80536 96.71678 39.95026 96.884 40.09518 97.15218 40.4791 97.3194 40.75284 97.48662 41.0266 97.75479 41.5833 97.922 41.9233 98.08922 42.26329 98.35739 42.87112 98.52461 43.20337 98.69183 43.53564 98.96 44.06473 99.12721 44.31802 99.29443 44.57135 99.5626 44.90932 99.72983 45.02911 99.89705 45.14893 100.16522 45.2211 100.33243 45.18161 100.49965 45.14212 100.76782 44.93443 100.93504 44.74431 101.10225 44.55421 101.37044 44.11133 101.53766 43.81131 101.70488 43.51129 101.97304 42.9276 102.14026 42.58185 102.30748 42.23607 102.57565 41.63556 102.74287 41.31924 102.9101 41.00291 103.17825 40.51895 103.34547 40.30193 103.5127 40.08492 103.78087 39.82256 103.94807 39.75497 104.1153 39.6874 104.38347 39.71304 104.55069 39.81467 104.71791 39.91632 104.98608 40.23355 105.15329 40.48749 105.32051 40.74141 105.5887 41.28938 105.75592 41.64496 105.92313 42.00052 106.1913 42.6676 106.3585 43.05026 106.52573 43.4329 106.7939 44.07672 106.96112 44.40303 107.12834 44.72934 107.39651 45.20839 107.56374 45.4022 107.73096 45.596 107.99911 45.79102 108.16634 45.79991 108.33354 45.80879 108.60173 45.65752 108.76895 45.46642 108.93617 45.2753 109.20433 44.78581 109.37155 44.4225 109.53877 44.05917 109.80695 43.31593 109.97417 42.84784 110.14139 42.37973 110.40955 41.52509 110.57677 41.0487 110.74399 40.57233 111.01216 39.79044 111.17937 39.41434 111.34659 39.03827 111.61478 38.51532 111.782 38.33798 111.9492 38.16064 112.21738 38.0479 112.38458 38.13618 112.5518 38.22449 112.81999 38.6024 112.98721 38.97446 113.15442 39.34651 113.42259 40.20372 113.58981 40.81773 113.75703 41.43175 114.02519 42.64713 114.19241 43.39996 114.35962 44.1528 114.6278 45.50436 114.79503 46.2437 114.96225 46.98305 115.23041 48.18663 115.39763 48.72862 115.56485 49.27065 115.83304 49.99615 116.00024 50.15016 116.16747 50.30417 116.43562 50.23875 116.60284 49.83871 116.77007 49.43869 117.03824 48.33585 117.20544 47.26686 117.37268 46.19789 117.64085 43.91664 117.80806 42.13414 117.97528 40.35167 118.24345 36.87802 118.41066 34.41985 118.57788 31.96165 118.84607 27.43007 119.01329 24.41718 119.1805 21.40428 119.44867 16.08194 119.61589 12.70491 119.7831 9.32788 120.2185 .07784 120.2185 .07784"/>
</svg>
