<svg xmlns="http://www.w3.org/2000/svg" xmlns:xlink="http://www.w3.org/1999/xlink" xmlns:inkscape="http://www.inkscape.org/namespaces/inkscape" version="1.1" width="210" height="212" viewBox="0 0 210 212">
<defs>
<path id="font_1_1" d="M.33399964 .30233766C.33999635 .32835389 .36299134 .42037965 .43299867 .42037965 .43798829 .42037965 .46199037 .42037965 .48298646 .40734864 .45498658 .402359 .43499757 .37734986 .43499757 .35334779 .43499757 .33735658 .44599916 .31835938 .47299195 .31835938 .49499513 .31835938 .5269928 .3363495 .5269928 .37635804 .5269928 .42837525 .46798707 .4423828 .43399049 .4423828 .37599183 .4423828 .34098817 .38935853 .32899476 .36634828 .3039856 .43237306 .25 .4423828 .22099304 .4423828 .116989139 .4423828 .05999756 .3133545 .05999756 .28834535 .05999756 .27833558 .069992069 .27833558 .07199097 .27833558 .07998657 .27833558 .08299255 .28033448 .084991458 .28933717 .11898804 .39535523 .18499756 .42037965 .21899414 .42037965 .23799134 .42037965 .272995 .4113617 .272995 .35334779 .272995 .32235719 .2559967 .25532533 .21899414 .11528015 .20298767 .053268434 .16799927 .011245728 .12399292 .011245728 .117996219 .011245728 .09498596 .011245728 .07398987 .024276734 .09899902 .029266358 .12098694 .05027771 .12098694 .07827759 .12098694 .105270389 .09899902 .11328125 .083999637 .11328125 .053985597 .11328125 .0289917 .08728027 .0289917 .055267335 .0289917 .009246826 .07899475-.0107421879 .12298584-.0107421879 .18899536-.0107421879 .22499085 .059280397 .22799683 .0652771 .23999024 .028274537 .27598573-.0107421879 .33599855-.0107421879 .43899537-.0107421879 .49598695 .118270877 .49598695 .14328003 .49598695 .1532898 .4869995 .1532898 .48399354 .1532898 .47499085 .1532898 .47299195 .14929199 .47099305 .14228821 .43798829 .03527832 .36999513 .011245728 .33799745 .011245728 .29899598 .011245728 .2829895 .043273927 .2829895 .07727051 .2829895 .09927368 .2889862 .121276859 .2999878 .16529846L.33399964 .30233766Z"/>
<path id="font_1_2" d="M.48599244 .38136292C.48999024 .39537049 .48999024 .39736939 .48999024 .40437318 .48999024 .42237855 .47599793 .43138124 .46099855 .43138124 .45098878 .43138124 .43499757 .42536927 .42599488 .41036988 .42399598 .405365 .41600038 .37435914 .4119873 .35635377 .40499879 .33035279 .397995 .30334474 .3919983 .27633668L.34700013 .09628296C.34298707 .08126831 .2999878 .011245728 .23399353 .011245728 .18299866 .011245728 .17199707 .055267335 .17199707 .0922699 .17199707 .1382904 .18899536 .20030213 .22299195 .28833009 .23899842 .3293457 .24299622 .3403473 .24299622 .36035157 .24299622 .405365 .21099854 .4423828 .16099549 .4423828 .06599426 .4423828 .0289917 .29733277 .0289917 .28833009 .0289917 .27833558 .038986207 .27833558 .040985109 .27833558 .050994874 .27833558 .051986696 .28033448 .056991579 .29634095 .083999637 .3903656 .12399292 .42037965 .1579895 .42037965 .1659851 .42037965 .18299866 .42037965 .18299866 .3883667 .18299866 .36335755 .17298889 .3373413 .1659851 .31834413 .12599182 .21231079 .10798645 .1552887 .10798645 .10827637 .10798645 .019256592 .17098999-.0107421879 .22999573-.0107421879 .2689972-.0107421879 .30299378 .0062561037 .33099366 .03425598 .31799317-.017745972 .30599977-.06674194 .2659912-.11973572 .23999024-.15385437 .20199585-.18309021 .1559906-.18309021 .14199829-.18309021 .09700012-.18005371 .07998657-.14074707 .09599304-.14074707 .10899353-.14074707 .12298584-.1287384 .1329956-.11973572 .14299011-.10673523 .14299011-.08773804 .14299011-.056747438 .115997318-.052734376 .10598755-.052734376 .08299255-.052734376 .049987794-.068740848 .049987794-.11773682 .049987794-.16796875 .09399414-.20507813 .1559906-.20507813 .25898744-.20507813 .3619995-.11373901 .3899994-.00074768069L.48599244 .38136292Z"/>
<path id="font_2_1" d="M.5629883 .31715394C.56999209 .3451538 .58200076 .3931427 .58200076 .40014649 .58200076 .42114259 .56599429 .44413758 .5349884 .44413758 .5189972 .44413758 .48199464 .4351349 .46899415 .3911438 .46499635 .3771515 .41999818 .19616699 .4119873 .16316223 .4059906 .14016724 .39898683 .11117554 .39698792 .093170169 .3789978 .06918335 .33999635 .028182984 .2889862 .028182984 .22999573 .028182984 .22898865 .07817078 .22898865 .10116577 .22898865 .16217041 .2599945 .24015808 .28799439 .31214906 .2979889 .33815003 .30099488 .3451538 .30099488 .3621521 .30099488 .4201355 .24299622 .45214845 .18798828 .45214845 .08198547 .45214845 .03199768 .31614686 .03199768 .29615785 .03199768 .28215028 .04699707 .28215028 .055999757 .28215028 .067993167 .28215028 .07499695 .28215028 .07899475 .29515077 .11199951 .4061432 .1659851 .4161377 .18199158 .4161377 .18899536 .4161377 .19898987 .4161377 .19898987 .3951416 .19898987 .3721466 .18699646 .34414674 .18299866 .33215333 .14099121 .2271576 .12199402 .17115784 .12199402 .122177127 .12199402 .008178711 .22200012-.0078125 .2809906-.0078125 .30999757-.0078125 .35398866-.0038146973 .4079895 .047180177 .43998719-.0018157959 .49798585-.0078125 .5219879-.0078125 .5589905-.0078125 .58799746 .013183594 .60899356 .049179079 .6339874 .08917236 .6469879 .14317322 .6469879 .14816284 .6469879 .16217041 .6319885 .16217041 .6230011 .16217041 .6119995 .16217041 .60798647 .16217041 .6029968 .15716553 .6009979 .15516663 .6009979 .15316773 .59498599 .12817383 .57499697 .0501709 .5529938 .028182984 .5269928 .028182984 .5119934 .028182984 .5039978 .03817749 .5039978 .06517029 .5039978 .08216858 .5079956 .09817505 .5179901 .13816834 .5249939 .16616822 .5349884 .2061615 .5399933 .22816468L.5629883 .31715394Z"/>
<path id="font_2_2" d="M.54100039 .3621521C.54100039 .45314027 .47399903 .45314027 .47299195 .45314027 .43299867 .45314027 .39698792 .41114808 .39698792 .3771515 .39698792 .3491516 .41799928 .33714295 .4269867 .33215333 .46899415 .30714417 .47698976 .28915406 .47698976 .26914979 .47698976 .24716187 .4189911 .028182984 .3019867 .028182984 .22999573 .028182984 .22999573 .08818054 .22999573 .106170658 .22999573 .16416931 .2579956 .2371521 .2899933 .31715394 .2979889 .33714295 .30099488 .34614564 .30099488 .3621521 .30099488 .4201355 .24299622 .45214845 .18798828 .45214845 .08198547 .45214845 .03199768 .31614686 .03199768 .29615785 .03199768 .28215028 .04699707 .28215028 .055999757 .28215028 .067993167 .28215028 .07499695 .28215028 .07899475 .29515077 .11099243 .4031372 .1639862 .4161377 .18199158 .4161377 .18899536 .4161377 .19898987 .4161377 .19898987 .3951416 .19898987 .3721466 .18699646 .3431549 .18399048 .33514405 .13798523 .21916199 .12298584 .17416382 .12298584 .12617493 .12298584 .020187378 .20899964-.0078125 .29599-.0078125 .46798707-.0078125 .54100039 .27615357 .54100039 .3621521Z"/>
<path id="font_3_83" d="M.6239929 .4967041C.6239929 .59465029 .5249939 .6826172 .3880005 .6826172H.034988405V.6516113H.05899048C.13598633 .6516113 .13798523 .64060977 .13798523 .6046295V.07795715C.13798523 .041992189 .13598633 .0309906 .05899048 .0309906H.034988405V0C.069992069 .0029907227 .14399719 .0029907227 .18199158 .0029907227 .21998596 .0029907227 .29499818 .0029907227 .32998658 0V.0309906H.30599977C.22898865 .0309906 .22698975 .041992189 .22698975 .07795715V.3157959H.3959961C.5159912 .3157959 .6239929 .39675904 .6239929 .4967041M.5209961 .4967041C.5209961 .4497223 .5209961 .34179688 .3619995 .34179688H.22399903V.6116333C.22399903 .64460757 .22599793 .6516113 .272995 .6516113H.3619995C.5209961 .6516113 .5209961 .54566958 .5209961 .4967041Z"/>
<path id="font_3_96" d="M.3639984 .38137818C.3639984 .41337586 .33299256 .4423828 .2899933 .4423828 .21699524 .4423828 .18099976 .37538148 .16699219 .3323822V.4423828L.027999878 .43066407V.3996582C.09799194 .3996582 .10598755 .39266969 .10598755 .34370423V.07595825C.10598755 .0309906 .09498596 .0309906 .027999878 .0309906V0L.14199829 .0029907227C.18199158 .0029907227 .22898865 .0029907227 .2689972 0V.0309906H.24798584C.17399597 .0309906 .17199707 .04197693 .17199707 .07795715V.23181153C.17199707 .33137513 .21398926 .42037965 .2899933 .42037965 .29699708 .42037965 .29899598 .42037965 .30099488 .41937257 .2979889 .41838075 .27799989 .40637208 .27799989 .3803711 .27799989 .35237123 .29899598 .33737184 .32099916 .33737184 .33898927 .33737184 .3639984 .3493805 .3639984 .38137818Z"/>
<path id="font_3_81" d="M.47099305 .21424866C.47099305 .34223939 .37098695 .4482422 .25 .4482422 .125 .4482422 .027999878 .3392334 .027999878 .21424866 .027999878 .085250858 .13198853-.0107421879 .24899292-.0107421879 .36999513-.0107421879 .47099305 .087249759 .47099305 .21424866M.3880005 .22224427C.3880005 .18624878 .3880005 .13224793 .3659973 .08824158 .34399415 .04324341 .2999878 .014251709 .25 .014251709 .20698548 .014251709 .16299439 .035247804 .13598633 .08125305 .11099243 .12524414 .11099243 .18624878 .11099243 .22224427 .11099243 .26124574 .11099243 .31523133 .1349945 .35923768 .1619873 .40522767 .20899964 .426239 .24899292 .426239 .29299928 .426239 .33599855 .40423585 .3619995 .36123658 .3880005 .3182373 .3880005 .26023866 .3880005 .22224427Z"/>
<path id="font_3_68" d="M.20999146-.049972536V.4423828L.057998659 .43138124V.40037538C.1349945 .40037538 .14399719 .39337159 .14399719 .34432984V-.051971437C.14399719-.09700012 .1349945-.18309021 .070999149-.18309021 .06599426-.18309021 .042999269-.18309021 .016998291-.17001343 .03199768-.16600037 .051986696-.1519928 .051986696-.125 .051986696-.09899902 .033996583-.07899475 .005996704-.07899475-.022003174-.07899475-.040008546-.09899902-.040008546-.125-.040008546-.17704773 .015991211-.20507813 .07299805-.20507813 .147995-.20507813 .20999146-.14100647 .20999146-.049972536M.20999146 .6042175C.20999146 .6312256 .18699646 .65722659 .15699768 .65722659 .12298584 .65722659 .102996829 .6292114 .102996829 .6042175 .102996829 .57722476 .12599182 .55122378 .1559906 .55122378 .18998719 .55122378 .20999146 .57922366 .20999146 .6042175Z"/>
<path id="font_4_1" d="M.61299136 .3531494C.61299136 .43814088 .55599978 .45314027 .5359955 .45314027 .49699403 .45314027 .45599366 .4121399 .45599366 .3721466 .45599366 .34014894 .47698976 .32914735 .48999024 .32214356 .5209961 .30415345 .5349884 .28814698 .5349884 .26815797 .5349884 .24116516 .47200013 .03817749 .35899354 .03817749 .2769928 .03817749 .27598573 .09516907 .27598573 .11717224 .27598573 .16616822 .2979889 .22515869 .33299256 .30914308 .34199525 .33215333 .34700013 .34414674 .34700013 .36013795 .34700013 .4201355 .28199769 .45214845 .21798706 .45214845 .10398865 .45214845 .04399109 .32514955 .04399109 .29615785 .04399109 .27815248 .06098938 .27815248 .07598877 .27815248 .100997928 .27815248 .102996829 .28015138 .10899353 .30015565 .12599182 .35714723 .16899109 .4061432 .21199036 .4061432 .21798706 .4061432 .22898865 .4061432 .22898865 .3821411 .22898865 .36314393 .22099304 .34513856 .21398926 .32614137 .16899109 .216156 .1559906 .17416382 .1559906 .13417053 .1559906 .013183594 .2679901-.0078125 .35099793-.0078125 .5249939-.0078125 .61299136 .24415589 .61299136 .3531494Z"/>
<path id="font_5_1" d="M.47099305 .6553192C.47099305 .67033389 .47099305 .69433596 .44699098 .69433596 .42199708 .69433596 .42199708 .6713257 .42199708 .6553192V.04899597H.116989139C.101989749 .04899597 .07699585 .04899597 .07699585 .024993897 .07699585 0 .099990848 0 .116989139 0H.776001C.7919922 0 .81599429 0 .81599429 .023986817 .81599429 .04899597 .79299929 .04899597 .776001 .04899597H.47099305V.6553192Z"/>
</defs>
<path transform="matrix(1.00006,0,0,-1,57.79238,153.399)" stroke-width=".3985" stroke-linecap="butt" stroke-miterlimit="10" stroke-linejoin="miter" fill="none" stroke="#000000" d="M-56.69362 0H141.33554"/>
<path transform="matrix(1.00006,0,0,-1,199.33567,153.399)" stroke-width=".3985" stroke-linecap="round" stroke-linejoin="round" fill="none" stroke="#000000" d="M-2.07224 2.39104C-1.69365 .95639-.84999 .27895 0 0-.84999-.27895-1.69365-.95639-2.07224-2.39104"/>
<use data-text="x" xlink:href="#font_1_1" transform="matrix(9.963197,0,0,-9.9626,203.05509,149.879)"/>
<path transform="matrix(1.00006,0,0,-1,57.79238,153.399)" stroke-width=".3985" stroke-linecap="butt" stroke-miterlimit="10" stroke-linejoin="miter" fill="none" stroke="#000000" d="M0-56.69362V141.33554"/>
<path transform="matrix(0,-1,-1.00006,-0,57.79238,11.864212)" stroke-width=".3985" stroke-linecap="round" stroke-linejoin="round" fill="none" stroke="#000000" d="M-2.07224 2.39104C-1.69365 .95639-.84999 .27895 0 0-.84999-.27895-1.69365-.95639-2.07224-2.39104"/>
<use data-text="y" xlink:href="#font_1_2" transform="matrix(9.963197,0,0,-9.9626,61.31259,6.208008)"/>
<path transform="matrix(1.00006,0,0,-1,57.79238,153.399)" stroke-width=".79701" stroke-linecap="butt" stroke-miterlimit="10" stroke-linejoin="miter" fill="none" stroke="#000000" d="M0 0 28.15352 112.61403"/>
<path transform="matrix(.24252455,-.97014,-.97019818,-.24251,86.04424,40.39837)" stroke-width=".79701" stroke-linecap="round" stroke-linejoin="round" fill="none" stroke="#000000" d="M-2.55046 3.11095C-2.0845 1.24435-1.04614 .36295 0 0-1.04614-.36295-2.0845-1.24435-2.55046-3.11095"/>
<use data-text="u" xlink:href="#font_2_1" transform="matrix(9.963197,0,0,-9.9626,75.685459,98.91901)"/>
<path transform="matrix(1.00006,0,0,-1,57.79238,153.399)" stroke-width=".79701" stroke-linecap="butt" stroke-miterlimit="10" stroke-linejoin="miter" fill="none" stroke="#000000" d="M0 0 112.67442 56.33722"/>
<path transform="matrix(.89441367,-.44717,-.4471968,-.89436,170.82999,96.88359)" stroke-width=".79701" stroke-linecap="round" stroke-linejoin="round" fill="none" stroke="#000000" d="M-2.55046 3.11095C-2.0845 1.24435-1.04614 .36295 0 0-1.04614-.36295-2.0845-1.24435-2.55046-3.11095"/>
<use data-text="v" xlink:href="#font_2_2" transform="matrix(9.963197,0,0,-9.9626,174.9054,98.91901)"/>
<path transform="matrix(1.00006,0,0,-1,57.79238,153.399)" stroke-width="1.19553" stroke-linecap="butt" stroke-miterlimit="10" stroke-linejoin="miter" fill="none" stroke="#000000" d="M0 0 72.63222 36.31589"/>
<path transform="matrix(.89441367,-.44717,-.4471968,-.89436,130.9636,116.81581)" stroke-width="1.19553" stroke-linecap="round" stroke-linejoin="round" fill="none" stroke="#000000" d="M-3.02867 3.83081C-2.47534 1.53229-1.24231 .44691 0 0-1.24231-.44691-2.47534-1.53229-3.02867-3.83081"/>
<use data-text="P" xlink:href="#font_3_83" transform="matrix(9.963197,0,0,-9.9626,135.41704,127.271)"/>
<use data-text="r" xlink:href="#font_3_96" transform="matrix(9.963197,0,0,-9.9626,142.20198,127.271)"/>
<use data-text="o" xlink:href="#font_3_81" transform="matrix(9.963197,0,0,-9.9626,146.10755,127.271)"/>
<use data-text="j" xlink:href="#font_3_68" transform="matrix(9.963197,0,0,-9.9626,151.35816,127.271)"/>
<use data-text="v" xlink:href="#font_4_1" transform="matrix(6.9742186,0,0,-6.9738,154.41718,129.812)"/>
<use data-text="u" xlink:href="#font_2_1" transform="matrix(9.963197,0,0,-9.9626,159.7135,127.271)"/>
<path transform="matrix(1.00006,0,0,-1,57.79238,153.399)" stroke-width=".3985" stroke-linecap="butt" stroke-dasharray="2.98883,2.98883" stroke-miterlimit="10" stroke-linejoin="miter" fill="none" stroke="#000000" d="M73.70143 36.85048 28.3468 113.38724"/>
<path transform="matrix(1.00006,0,0,-1,57.79238,153.399)" stroke-width="1.19553" stroke-linecap="butt" stroke-miterlimit="10" stroke-linejoin="miter" fill="none" stroke="#000000" d="M0 0-44.74518 75.5083"/>
<path transform="matrix(-.50981059,-.86024,-.86029157,.50978,12.73978,77.3765)" stroke-width="1.19553" stroke-linecap="round" stroke-linejoin="round" fill="none" stroke="#000000" d="M-3.02867 3.83081C-2.47534 1.53229-1.24231 .44691 0 0-1.24231-.44691-2.47534-1.53229-3.02867-3.83081"/>
<use data-text="u" xlink:href="#font_2_1" transform="matrix(9.963197,0,0,-9.9626,16.353898,71.450008)"/>
<use data-text="&#x22a5;" xlink:href="#font_5_1" transform="matrix(6.9742186,0,0,-6.9738,23.139313,72.945)"/>
</svg>
