<svg xmlns="http://www.w3.org/2000/svg" xmlns:xlink="http://www.w3.org/1999/xlink" xmlns:inkscape="http://www.inkscape.org/namespaces/inkscape" version="1.1" width="231" height="78" viewBox="0 0 231 78">
<defs>
<path id="font_1_1" d="M.44198609 .69781497C.43499757 .7108154 .43299867 .7158203 .41600038 .7158203 .39898683 .7158203 .39698792 .7108154 .3899994 .69781497L.051986696 .019989014C.04699707 .010986328 .04699707 .008987427 .04699707 .0079956059 .04699707 0 .052993776 0 .068984989 0H.7630005C.7789917 0 .7849884 0 .7849884 .0079956059 .7849884 .008987427 .7849884 .010986328 .7799988 .019989014L.44198609 .69781497M.38398744 .61582949 .6529999 .07598877H.11399841L.38398744 .61582949Z"/>
<path id="font_2_1" d="M.33399964 .30233766C.33999635 .32835389 .36299134 .42037965 .43299867 .42037965 .43798829 .42037965 .46199037 .42037965 .48298646 .40734864 .45498658 .402359 .43499757 .37734986 .43499757 .35334779 .43499757 .33735658 .44599916 .31835938 .47299195 .31835938 .49499513 .31835938 .5269928 .3363495 .5269928 .37635804 .5269928 .42837525 .46798707 .4423828 .43399049 .4423828 .37599183 .4423828 .34098817 .38935853 .32899476 .36634828 .3039856 .43237306 .25 .4423828 .22099304 .4423828 .116989139 .4423828 .05999756 .3133545 .05999756 .28834535 .05999756 .27833558 .069992069 .27833558 .07199097 .27833558 .07998657 .27833558 .08299255 .28033448 .084991458 .28933717 .11898804 .39535523 .18499756 .42037965 .21899414 .42037965 .23799134 .42037965 .272995 .4113617 .272995 .35334779 .272995 .32235719 .2559967 .25532533 .21899414 .11528015 .20298767 .053268434 .16799927 .011245728 .12399292 .011245728 .117996219 .011245728 .09498596 .011245728 .07398987 .024276734 .09899902 .029266358 .12098694 .05027771 .12098694 .07827759 .12098694 .105270389 .09899902 .11328125 .083999637 .11328125 .053985597 .11328125 .0289917 .08728027 .0289917 .055267335 .0289917 .009246826 .07899475-.0107421879 .12298584-.0107421879 .18899536-.0107421879 .22499085 .059280397 .22799683 .0652771 .23999024 .028274537 .27598573-.0107421879 .33599855-.0107421879 .43899537-.0107421879 .49598695 .118270877 .49598695 .14328003 .49598695 .1532898 .4869995 .1532898 .48399354 .1532898 .47499085 .1532898 .47299195 .14929199 .47099305 .14228821 .43798829 .03527832 .36999513 .011245728 .33799745 .011245728 .29899598 .011245728 .2829895 .043273927 .2829895 .07727051 .2829895 .09927368 .2889862 .121276859 .2999878 .16529846L.33399964 .30233766Z"/>
</defs>
<path transform="matrix(1.00003,0,0,-1.00005,16.26992,30.146706)" stroke-width=".3985" stroke-linecap="butt" stroke-miterlimit="10" stroke-linejoin="miter" fill="none" stroke="#000000" d="M14.17339 0C14.17339 15.6557 7.82784 28.3468 0 28.3468-7.82784 28.3468-14.17339 15.6557-14.17339 0-14.17339-15.6557-7.82784-28.3468 0-28.3468 7.82784-28.3468 14.17339-15.6557 14.17339 0ZM0 0"/>
<path transform="matrix(1.00003,0,0,-1.00005,16.26992,30.146706)" stroke-width=".3985" stroke-linecap="butt" stroke-miterlimit="10" stroke-linejoin="miter" fill="none" stroke="#000000" d="M0-28.3468H198.42766"/>
<path transform="matrix(1.00003,0,0,-1.00005,16.26992,30.146706)" stroke-width=".3985" stroke-linecap="butt" stroke-miterlimit="10" stroke-linejoin="miter" fill="none" stroke="#000000" d="M0 28.3468H198.42766"/>
<path transform="matrix(1.00003,0,0,-1.00005,16.26992,30.146706)" stroke-width=".3985" stroke-linecap="butt" stroke-miterlimit="10" stroke-linejoin="miter" fill="none" stroke="#000000" d="M198.42766-28.3468C206.25551-28.3468 212.60106-15.6557 212.60106 0 212.60106 15.6557 206.25551 28.3468 198.42766 28.3468"/>
<path transform="matrix(1.00003,0,0,-1.00005,16.26992,30.146706)" stroke-width=".3985" stroke-linecap="butt" stroke-miterlimit="10" stroke-linejoin="miter" fill="none" stroke="#7f807f" d="M106.3005 0C106.3005 15.6557 99.95496 28.3468 92.1271 28.3468 84.29927 28.3468 77.95372 15.6557 77.95372 0 77.95372-15.6557 84.29927-28.3468 92.1271-28.3468 99.95496-28.3468 106.3005-15.6557 106.3005 0ZM92.1271 0"/>
<path transform="matrix(1.00003,0,0,-1.00005,16.26992,30.146706)" stroke-width=".3985" stroke-linecap="butt" stroke-miterlimit="10" stroke-linejoin="miter" fill="none" stroke="#7f807f" d="M106.30052-28.3468C114.12837-28.3468 120.47392-15.6557 120.47392 0 120.47392 15.6557 114.12837 28.3468 106.30052 28.3468"/>
<path transform="matrix(1.00003,0,0,-1.00005,16.26992,30.146706)" stroke-width=".3985" stroke-linecap="butt" stroke-miterlimit="10" stroke-linejoin="miter" fill="none" stroke="#000000" d="M92.92412-35.43349H105.50351"/>
<path transform="matrix(-1.00003,-0,0,1.00005,108.997577,65.58197)" stroke-width=".3985" stroke-linecap="round" stroke-linejoin="round" fill="none" stroke="#000000" d="M-2.07224 2.39104C-1.69365 .95639-.84999 .27895 0 0-.84999-.27895-1.69365-.95639-2.07224-2.39104"/>
<path transform="matrix(-1.00003,-0,0,1.00005,108.59907,65.58197)" stroke-width=".3985" stroke-linecap="butt" stroke-miterlimit="10" stroke-linejoin="miter" fill="none" stroke="#000000" d="M0 2.29141V-2.29141"/>
<path transform="matrix(1.00003,0,0,-1.00005,121.97586,65.58197)" stroke-width=".3985" stroke-linecap="round" stroke-linejoin="round" fill="none" stroke="#000000" d="M-2.07224 2.39104C-1.69365 .95639-.84999 .27895 0 0-.84999-.27895-1.69365-.95639-2.07224-2.39104"/>
<path transform="matrix(1.00003,0,0,-1.00005,122.37438,65.58197)" stroke-width=".3985" stroke-linecap="butt" stroke-miterlimit="10" stroke-linejoin="miter" fill="none" stroke="#000000" d="M0 2.29141V-2.29141"/>
<use data-text="&#x2206;" xlink:href="#font_1_1" transform="matrix(9.962899,0,0,-9.963098,108.48869,75.90999)"/>
<use data-text="x" xlink:href="#font_2_1" transform="matrix(9.962899,0,0,-9.963098,116.79095,75.90999)"/>
</svg>
