<svg xmlns="http://www.w3.org/2000/svg" xmlns:xlink="http://www.w3.org/1999/xlink" xmlns:inkscape="http://www.inkscape.org/namespaces/inkscape" version="1.1" width="320" height="111" viewBox="0 0 320 111">
<defs>
<path id="font_1_4" d="M.5369873 .5947571C.522995 .5818329 .48999024 .55400088 .48999024 .5361023 .48999024 .5261078 .5 .516098 .5099945 .516098 .5189972 .516098 .5239868 .5231018 .5289917 .5290985 .54100039 .5440674 .56399539 .5718994 .60798647 .59376528 .61499026 .59776309 .625 .6027527 .625 .61476138 .625 .62475588 .6179962 .62976077 .61099246 .6347656 .58898928 .6497803 .5779877 .66781619 .56999209 .69184878 .56799319 .7008667 .56399539 .7138672 .5499878 .7138672 .5359955 .7138672 .5299988 .7008667 .5299988 .69285586 .5299988 .68785098 .5379944 .65579226 .55400088 .6347656H.21699524C.19999695 .6347656 .18199158 .6347656 .18199158 .61476138 .18199158 .5947571 .19999695 .5947571 .21699524 .5947571H.5369873Z"/>
<path id="font_1_3" d="M.46798707 .37236024C.46798707 .42637635 .44198609 .4423828 .42399598 .4423828 .39898683 .4423828 .375 .41636659 .375 .3943634 .375 .38136292 .37998963 .3753662 .3909912 .36434938 .4119873 .3443451 .4249878 .31834413 .4249878 .28233338 .4249878 .24032593 .3639984 .011245728 .24699402 .011245728 .19599915 .011245728 .17298889 .04626465 .17298889 .09828186 .17298889 .15429688 .19999695 .22731018 .23098755 .31033326 .23799134 .3273468 .24299622 .34135438 .24299622 .36035157 .24299622 .405365 .21099854 .4423828 .16099549 .4423828 .066986087 .4423828 .0289917 .29733277 .0289917 .28833009 .0289917 .27833558 .038986207 .27833558 .040985109 .27833558 .050994874 .27833558 .051986696 .28033448 .056991579 .29634095 .085998538 .39736939 .1289978 .42037965 .1579895 .42037965 .1659851 .42037965 .18299866 .42037965 .18299866 .3883667 .18299866 .36335755 .17298889 .3363495 .1659851 .31834413 .12199402 .20230103 .10899353 .15629578 .10899353 .11328125 .10899353 .0052490236 .19699097-.0107421879 .24299622-.0107421879 .41099549-.0107421879 .46798707 .32034303 .46798707 .37236024Z"/>
<path id="font_1_2" d="M.34999085 .056259157C.36099244 .015258789 .3959961-.0107421879 .43899537-.0107421879 .47399903-.0107421879 .49699403 .012252808 .5130005 .044265748 .5299988 .08027649 .54299929 .14129639 .54299929 .14329529 .54299929 .1532898 .5339966 .1532898 .5309906 .1532898 .5209961 .1532898 .519989 .14929199 .5169983 .13528443 .5029907 .07926941 .48399354 .011245728 .44198609 .011245728 .42099 .011245728 .41099549 .024261475 .41099549 .057266237 .41099549 .07926941 .4229889 .12628174 .43099977 .16130066L.45899964 .2693329C.46199037 .28433229 .47200013 .32234193 .47599793 .3373413 .48098756 .36035157 .4909973 .3983612 .4909973 .40437318 .4909973 .42237855 .47698976 .43138124 .46199037 .43138124 .45700074 .43138124 .43099977 .43037416 .4229889 .3963623 .4039917 .323349 .3600006 .14828491 .34799195 .09527588 .34700013 .091278079 .30699159 .011245728 .23399353 .011245728 .18199158 .011245728 .17199707 .056259157 .17199707 .09327698 .17199707 .14929199 .19999695 .22831726 .22599793 .29733277 .23799134 .3273468 .24299622 .34135438 .24299622 .36035157 .24299622 .405365 .21099854 .4423828 .16099549 .4423828 .06599426 .4423828 .0289917 .29733277 .0289917 .28833009 .0289917 .27833558 .038986207 .27833558 .040985109 .27833558 .050994874 .27833558 .051986696 .28033448 .056991579 .29634095 .08198547 .38336183 .11999512 .42037965 .1579895 .42037965 .16699219 .42037965 .18299866 .41937257 .18299866 .38735963 .18299866 .36335755 .17199707 .3343506 .1659851 .31933595 .1289978 .2203064 .10798645 .15829468 .10798645 .10928345 .10798645 .014251709 .1769867-.0107421879 .23098755-.0107421879 .29699708-.0107421879 .33299256 .03425598 .34999085 .056259157Z"/>
<path id="font_1_1" d="M.2869873 .68333438C.2869873 .6843262 .2869873 .69433596 .27398683 .69433596 .25099183 .69433596 .17799378 .6863251 .1519928 .6843262 .14399719 .68333438 .1329956 .6823273 .1329956 .6643219 .1329956 .6523285 .14199829 .6523285 .15699768 .6523285 .20498657 .6523285 .20698548 .6453247 .20698548 .6353302L.20399475 .6153412 .05899048 .039260866C.054992677 .025253296 .054992677 .023254395 .054992677 .01725769 .054992677-.0057525637 .07499695-.0107421879 .083999637-.0107421879 .09700012-.0107421879 .11199951-.0017547608 .117996219 .010253906 .12298584 .019256592 .16799927 .20431519 .17399597 .22932434 .20799256 .22631836 .2899933 .21031189 .2899933 .14428711 .2899933 .13729859 .2899933 .13328552 .2869873 .123291019 .2849884 .11128235 .2829895 .09927368 .2829895 .088272098 .2829895 .029251099 .32299806-.0107421879 .375-.0107421879 .40499879-.0107421879 .43199159 .0052490236 .45399476 .042266847 .47898866 .08627319 .48999024 .14129639 .48999024 .14329529 .48999024 .1532898 .48098756 .1532898 .47799684 .1532898 .46798707 .1532898 .46699525 .14929199 .46398927 .13528443 .44400025 .06227112 .42099 .011245728 .3769989 .011245728 .35798646 .011245728 .34498597 .022247315 .34498597 .058273317 .34498597 .07527161 .34899903 .09828186 .35299684 .11428833 .35699464 .13128662 .35699464 .13528443 .35699464 .14529419 .35699464 .21031189 .2939911 .23931885 .20899964 .2503357 .23999024 .26834107 .27198792 .30033876 .29499818 .32435609 .34298707 .37734986 .3889923 .42037965 .43798829 .42037965 .44400025 .42037965 .44499208 .42037965 .44699098 .41937257 .45899964 .41737367 .45999146 .41737367 .46798707 .4113617 .46998597 .4103546 .46998597 .40934754 .47200013 .40734864 .42399598 .4043579 .4149933 .36535646 .4149933 .35334779 .4149933 .33735658 .42599488 .31835938 .45298768 .31835938 .47898866 .31835938 .5079956 .3403473 .5079956 .37934876 .5079956 .40934754 .4850006 .4423828 .43998719 .4423828 .4119873 .4423828 .3659973 .43437196 .2939911 .35435487 .2599945 .3163452 .22099304 .27633668 .18299866 .26133729L.2869873 .68333438Z"/>
</defs>
<path transform="matrix(1.00002,0,0,-1.00006,2.4936753,98.0021)" d="M0 0H113.38724L141.73404 85.04042H28.3468Z" fill="#bfbfbf"/>
<path transform="matrix(1.00002,0,0,-1.00006,2.4936753,98.0021)" stroke-width="1.19553" stroke-linecap="butt" stroke-miterlimit="10" stroke-linejoin="miter" fill="none" stroke="#000000" d="M0 0 27.96878 83.90633"/>
<path transform="matrix(.31621633,-.94869688,-.948659,-.31622897,30.65202,13.523674)" stroke-width="1.19553" stroke-linecap="round" stroke-linejoin="round" fill="none" stroke="#000000" d="M-3.02867 3.83081C-2.47534 1.53229-1.24231 .44691 0 0-1.24231-.44691-2.47534-1.53229-3.02867-3.83081"/>
<use data-text="&#x20d7;" xlink:href="#font_1_4" transform="matrix(9.962799,0,0,-9.963197,27.861184,9.0377659)"/>
<use data-text="v" xlink:href="#font_1_3" transform="matrix(9.962799,0,0,-9.963197,28.249733,9.0377659)"/>
<path transform="matrix(1.00002,0,0,-1.00006,2.4936753,98.0021)" stroke-width="1.19553" stroke-linecap="butt" stroke-miterlimit="10" stroke-linejoin="miter" fill="none" stroke="#000000" d="M0 0H112.19171"/>
<path transform="matrix(1.00002,0,0,-1.00006,115.2854,98.0021)" stroke-width="1.19553" stroke-linecap="round" stroke-linejoin="round" fill="none" stroke="#000000" d="M-3.02867 3.83081C-2.47534 1.53229-1.24231 .44691 0 0-1.24231-.44691-2.47534-1.53229-3.02867-3.83081"/>
<use data-text="&#x20d7;" xlink:href="#font_1_4" transform="matrix(9.962799,0,0,-9.963197,119.67402,109.03876)"/>
<use data-text="u" xlink:href="#font_1_2" transform="matrix(9.962799,0,0,-9.963197,119.803539,109.03876)"/>
<path transform="matrix(1.00002,0,0,-1.00006,148.14459,98.0021)" d="M0 0H113.38724L141.73404 85.04042H28.3468Z" fill="#bfbfbf"/>
<path transform="matrix(1.00002,0,0,-1.00006,148.14459,98.0021)" stroke-width="1.19553" stroke-linecap="butt" stroke-miterlimit="10" stroke-linejoin="miter" fill="none" stroke="#000000" d="M0 0 27.96878 83.90633"/>
<path transform="matrix(.31621633,-.94869688,-.948659,-.31622897,176.30294,13.523674)" stroke-width="1.19553" stroke-linecap="round" stroke-linejoin="round" fill="none" stroke="#000000" d="M-3.02867 3.83081C-2.47534 1.53229-1.24231 .44691 0 0-1.24231-.44691-2.47534-1.53229-3.02867-3.83081"/>
<use data-text="&#x20d7;" xlink:href="#font_1_4" transform="matrix(9.962799,0,0,-9.963197,173.51111,9.0377659)"/>
<use data-text="v" xlink:href="#font_1_3" transform="matrix(9.962799,0,0,-9.963197,173.89966,9.0377659)"/>
<path transform="matrix(1.00002,0,0,-1.00006,148.14459,98.0021)" stroke-width="1.19553" stroke-linecap="butt" stroke-miterlimit="10" stroke-linejoin="miter" fill="none" stroke="#000000" d="M0 0H140.53853"/>
<path transform="matrix(1.00002,0,0,-1.00006,289.2837,98.0021)" stroke-width="1.19553" stroke-linecap="round" stroke-linejoin="round" fill="none" stroke="#000000" d="M-3.02867 3.83081C-2.47534 1.53229-1.24231 .44691 0 0-1.24231-.44691-2.47534-1.53229-3.02867-3.83081"/>
<use data-text="k" xlink:href="#font_1_1" transform="matrix(9.962799,0,0,-9.963197,293.7995,109.03876)"/>
<use data-text="&#x20d7;" xlink:href="#font_1_4" transform="matrix(9.962799,0,0,-9.963197,299.1595,109.03876)"/>
<use data-text="u" xlink:href="#font_1_2" transform="matrix(9.962799,0,0,-9.963197,299.29896,109.03876)"/>
<path transform="matrix(1.00002,0,0,-1.00006,148.14459,98.0021)" stroke-width=".3985" stroke-linecap="butt" stroke-miterlimit="10" stroke-linejoin="miter" fill="none" stroke="#000000" d="M141.73404 0 170.08086 85.04042H28.3468"/>
</svg>
