<svg xmlns="http://www.w3.org/2000/svg" xmlns:xlink="http://www.w3.org/1999/xlink" xmlns:inkscape="http://www.inkscape.org/namespaces/inkscape" version="1.1" width="261" height="103" viewBox="0 0 261 103">
<defs>
<path id="font_1_1" d="M.33399964 .30233766C.33999635 .32835389 .36299134 .42037965 .43299867 .42037965 .43798829 .42037965 .46199037 .42037965 .48298646 .40734864 .45498658 .402359 .43499757 .37734986 .43499757 .35334779 .43499757 .33735658 .44599916 .31835938 .47299195 .31835938 .49499513 .31835938 .5269928 .3363495 .5269928 .37635804 .5269928 .42837525 .46798707 .4423828 .43399049 .4423828 .37599183 .4423828 .34098817 .38935853 .32899476 .36634828 .3039856 .43237306 .25 .4423828 .22099304 .4423828 .116989139 .4423828 .05999756 .3133545 .05999756 .28834535 .05999756 .27833558 .069992069 .27833558 .07199097 .27833558 .07998657 .27833558 .08299255 .28033448 .084991458 .28933717 .11898804 .39535523 .18499756 .42037965 .21899414 .42037965 .23799134 .42037965 .272995 .4113617 .272995 .35334779 .272995 .32235719 .2559967 .25532533 .21899414 .11528015 .20298767 .053268434 .16799927 .011245728 .12399292 .011245728 .117996219 .011245728 .09498596 .011245728 .07398987 .024276734 .09899902 .029266358 .12098694 .05027771 .12098694 .07827759 .12098694 .105270389 .09899902 .11328125 .083999637 .11328125 .053985597 .11328125 .0289917 .08728027 .0289917 .055267335 .0289917 .009246826 .07899475-.0107421879 .12298584-.0107421879 .18899536-.0107421879 .22499085 .059280397 .22799683 .0652771 .23999024 .028274537 .27598573-.0107421879 .33599855-.0107421879 .43899537-.0107421879 .49598695 .118270877 .49598695 .14328003 .49598695 .1532898 .4869995 .1532898 .48399354 .1532898 .47499085 .1532898 .47299195 .14929199 .47099305 .14228821 .43798829 .03527832 .36999513 .011245728 .33799745 .011245728 .29899598 .011245728 .2829895 .043273927 .2829895 .07727051 .2829895 .09927368 .2889862 .121276859 .2999878 .16529846L.33399964 .30233766Z"/>
<path id="font_2_64" d="M.27598573 .18710327V.24511719H.010986328V.18710327H.27598573Z"/>
<path id="font_2_82" d="M.4189911 0V.0309906H.3869934C.29699708 .0309906 .2939911 .041992189 .2939911 .07902527V.64012148C.2939911 .6640167 .2939911 .6660156 .2709961 .6660156 .20899964 .60227969 .12098694 .60227969 .08898926 .60227969V.57128909C.10899353 .57128909 .16799927 .57128909 .21998596 .5972748V.07902527C.21998596 .042999269 .21699524 .0309906 .1269989 .0309906H.09498596V0C.12998963 .0029907227 .21699524 .0029907227 .25698854 .0029907227 .29699708 .0029907227 .38398744 .0029907227 .4189911 0Z"/>
<path id="font_2_121" d="M.45999146 .31976319C.45999146 .39982606 .45498658 .47988893 .41999818 .5539398 .37399293 .65000918 .2919922 .6660156 .25 .6660156 .18998719 .6660156 .116989139 .64001467 .07598877 .54693606 .04399109 .47789 .038986207 .39982606 .038986207 .31976319 .038986207 .24472046 .042999269 .15464783 .083999637 .07859802 .1269989-.0024719239 .19999695-.022460938 .24899292-.022460938 .30299378-.022460938 .3789978-.0014648438 .4229889 .09359741 .45498658 .16265869 .45999146 .2407074 .45999146 .31976319M.3769989 .3317871C.3769989 .25672914 .3769989 .18867493 .3659973 .12461853 .35099793 .029556275 .2939911-.00047302247 .24899292-.00047302247 .20999146-.00047302247 .15098572 .024551392 .1329956 .12062073 .12199402 .18066406 .12199402 .2727356 .12199402 .3317871 .12199402 .39582826 .12199402 .46188355 .12998963 .5159149 .14898682 .63500979 .22399903 .64401248 .24899292 .64401248 .28199769 .64401248 .34799195 .6259918 .36698915 .52693179 .3769989 .47088624 .3769989 .39482118 .3769989 .3317871Z"/>
<path id="font_2_88" d="M.19198609 .052993776C.19198609 .08198547 .16799927 .10598755 .13899231 .10598755 .10998535 .10598755 .085998538 .08198547 .085998538 .052993776 .085998538 .023986817 .10998535 0 .13899231 0 .16799927 0 .19198609 .023986817 .19198609 .052993776Z"/>
<path id="font_2_56" d="M.44898988 .20091248C.44898988 .31991578 .36698915 .41992188 .25898744 .41992188 .21099854 .41992188 .16799927 .4039154 .13198853 .36891175V.5641022C.1519928 .55778506 .18499756 .55078127 .21699524 .55078127 .33999635 .55078127 .4099884 .6418457 .4099884 .65493777 .4099884 .6609802 .40699769 .6660156 .3999939 .6660156 .3999939 .66607668 .39698792 .66607668 .3919983 .66308596 .37199403 .65408328 .32299806 .63378909 .2559967 .63378909 .21598816 .63409426 .16999817 .641098 .12298584 .6621094 .114990238 .6651001 .11099243 .6651001 .11099243 .6651001 .100997928 .66508486 .100997928 .657074 .100997928 .64108279V.3447113C.100997928 .3266449 .100997928 .31861878 .114990238 .31861878 .12199402 .31861878 .12399292 .32164 .12799073 .32765199 .13899231 .34371949 .17599488 .3979187 .25698854 .3979187 .30899049 .3979187 .33399964 .3517456 .34199525 .3336792 .35798646 .2965393 .3600006 .2574005 .3600006 .20721436 .3600006 .17218018 .3600006 .112197879 .33599855 .07032776 .31199647 .031448366 .2749939 .0055389406 .22898865 .0055389406 .1559906 .0055389406 .09899902 .05836487 .08198547 .1171875 .084991458 .11685181 .08799744 .115859989 .09899902 .115859989 .13198853 .115859989 .14898682 .14085388 .14898682 .16485596 .14898682 .18885803 .13198853 .21386719 .09899902 .21386719 .084991458 .21386719 .049987794 .2068634 .049987794 .16085816 .049987794 .07432556 .11898804-.022460938 .23098755-.022460938 .34700013-.022460938 .44898988 .07331848 .44898988 .20019531V.20091248Z"/>
<path id="font_1_2" d="M.48599244 .38136292C.48999024 .39537049 .48999024 .39736939 .48999024 .40437318 .48999024 .42237855 .47599793 .43138124 .46099855 .43138124 .45098878 .43138124 .43499757 .42536927 .42599488 .41036988 .42399598 .405365 .41600038 .37435914 .4119873 .35635377 .40499879 .33035279 .397995 .30334474 .3919983 .27633668L.34700013 .09628296C.34298707 .08126831 .2999878 .011245728 .23399353 .011245728 .18299866 .011245728 .17199707 .055267335 .17199707 .0922699 .17199707 .1382904 .18899536 .20030213 .22299195 .28833009 .23899842 .3293457 .24299622 .3403473 .24299622 .36035157 .24299622 .405365 .21099854 .4423828 .16099549 .4423828 .06599426 .4423828 .0289917 .29733277 .0289917 .28833009 .0289917 .27833558 .038986207 .27833558 .040985109 .27833558 .050994874 .27833558 .051986696 .28033448 .056991579 .29634095 .083999637 .3903656 .12399292 .42037965 .1579895 .42037965 .1659851 .42037965 .18299866 .42037965 .18299866 .3883667 .18299866 .36335755 .17298889 .3373413 .1659851 .31834413 .12599182 .21231079 .10798645 .1552887 .10798645 .10827637 .10798645 .019256592 .17098999-.0107421879 .22999573-.0107421879 .2689972-.0107421879 .30299378 .0062561037 .33099366 .03425598 .31799317-.017745972 .30599977-.06674194 .2659912-.11973572 .23999024-.15385437 .20199585-.18309021 .1559906-.18309021 .14199829-.18309021 .09700012-.18005371 .07998657-.14074707 .09599304-.14074707 .10899353-.14074707 .12298584-.1287384 .1329956-.11973572 .14299011-.10673523 .14299011-.08773804 .14299011-.056747438 .115997318-.052734376 .10598755-.052734376 .08299255-.052734376 .049987794-.068740848 .049987794-.11773682 .049987794-.16796875 .09399414-.20507813 .1559906-.20507813 .25898744-.20507813 .3619995-.11373901 .3899994-.00074768069L.48599244 .38136292Z"/>
<path id="font_2_107" d="M.44898988 .17396546H.42399598C.4189911 .14398194 .4119873 .099990848 .4019928 .084991458 .394989 .07699585 .32899476 .07699585 .30699159 .07699585H.1269989L.23298645 .17996216C.3889923 .31803895 .44898988 .37210084 .44898988 .47216798 .44898988 .5860901 .35899354 .6660156 .23699951 .6660156 .12399292 .6660156 .049987794 .57411196 .049987794 .48516847 .049987794 .4291687 .099990848 .4291687 .102996829 .4291687 .11999512 .4291687 .15499878 .44117738 .15499878 .48217774 .15499878 .5081787 .13699341 .5341797 .101989749 .5341797 .09399414 .5341797 .09199524 .5341797 .08898926 .5331726 .11199951 .59806826 .1659851 .63500979 .22399903 .63500979 .31498719 .63500979 .35798646 .5541382 .35798646 .47216798 .35798646 .39196778 .30799867 .31297303 .25299073 .25097657L.06098938 .036987306C.049987794 .025985718 .049987794 .023986817 .049987794 0H.42099L.44898988 .17396546Z"/>
<path id="font_2_100" d="M.4850006 .6435547H.24198914C.11999512 .6435547 .117996219 .6566467 .11399841 .67578127H.08898926L.055999757 .46954347H.08099365C.083999637 .48554994 .09298706 .54855349 .10598755 .5605469 .11299133 .5665436 .19099427 .5665436 .20399475 .5665436H.41099549L.29899598 .40853883C.20899964 .2735443 .17599488 .13453675 .17599488 .03253174 .17599488 .022537232 .17599488-.022460938 .22200012-.022460938 .2679901-.022460938 .2679901 .022537232 .2679901 .03253174V.08354187C.2679901 .13853455 .2709961 .19354248 .2789917 .24754334 .2829895 .27053834 .29699708 .35653688 .34098817 .41854859L.47599793 .608551C.4850006 .62054446 .4850006 .62254336 .4850006 .6435547Z"/>
</defs>
<path transform="matrix(1.00009,0,0,-1.00006,125.8327,88.25734)" stroke-width=".3985" stroke-linecap="butt" stroke-miterlimit="10" stroke-linejoin="miter" fill="none" stroke="#000000" d="M-124.72662 0H124.32813"/>
<path transform="matrix(1.00009,0,0,-1.00006,250.37128,88.25734)" stroke-width=".3985" stroke-linecap="round" stroke-linejoin="round" fill="none" stroke="#000000" d="M-2.07224 2.39104C-1.69365 .95639-.84999 .27895 0 0-.84999-.27895-1.69365-.95639-2.07224-2.39104"/>
<use data-text="x" xlink:href="#font_1_1" transform="matrix(9.963496,0,0,-9.963197,254.09024,84.73713)"/>
<path transform="matrix(1.00009,0,0,-1.00006,125.8327,88.25734)" stroke-width=".3985" stroke-linecap="butt" stroke-miterlimit="10" stroke-linejoin="miter" fill="none" stroke="#000000" d="M-113.38724 2.12796V-2.12796"/>
<use data-text="-" xlink:href="#font_2_64" transform="matrix(9.963496,0,0,-9.963197,8.28511,100.54108)"/>
<use data-text="1" xlink:href="#font_2_82" transform="matrix(9.963496,0,0,-9.963197,11.602951,100.54108)"/>
<path transform="matrix(1.00009,0,0,-1.00006,125.8327,88.25734)" stroke-width=".3985" stroke-linecap="butt" stroke-miterlimit="10" stroke-linejoin="miter" fill="none" stroke="#000000" d="M-56.69359 2.12796V-2.12796"/>
<use data-text="-" xlink:href="#font_2_64" transform="matrix(9.963496,0,0,-9.963197,61.10788,100.54108)"/>
<use data-text="0" xlink:href="#font_2_121" transform="matrix(9.963496,0,0,-9.963197,64.42572,100.54108)"/>
<use data-text="." xlink:href="#font_2_88" transform="matrix(9.963496,0,0,-9.963197,69.40747,100.54108)"/>
<use data-text="5" xlink:href="#font_2_56" transform="matrix(9.963496,0,0,-9.963197,72.17732,100.54108)"/>
<path transform="matrix(1.00009,0,0,-1.00006,125.8327,88.25734)" stroke-width=".3985" stroke-linecap="butt" stroke-miterlimit="10" stroke-linejoin="miter" fill="none" stroke="#000000" d="M0 2.12796V-2.12796"/>
<use data-text="0" xlink:href="#font_2_121" transform="matrix(9.963496,0,0,-9.963197,123.34148,100.54108)"/>
<path transform="matrix(1.00009,0,0,-1.00006,125.8327,88.25734)" stroke-width=".3985" stroke-linecap="butt" stroke-miterlimit="10" stroke-linejoin="miter" fill="none" stroke="#000000" d="M56.69359 2.12796V-2.12796"/>
<use data-text="0" xlink:href="#font_2_121" transform="matrix(9.963496,0,0,-9.963197,176.16423,100.54108)"/>
<use data-text="." xlink:href="#font_2_88" transform="matrix(9.963496,0,0,-9.963197,181.14597,100.54108)"/>
<use data-text="5" xlink:href="#font_2_56" transform="matrix(9.963496,0,0,-9.963197,183.91584,100.54108)"/>
<path transform="matrix(1.00009,0,0,-1.00006,125.8327,88.25734)" stroke-width=".3985" stroke-linecap="butt" stroke-miterlimit="10" stroke-linejoin="miter" fill="none" stroke="#000000" d="M113.38724 2.12796V-2.12796"/>
<use data-text="1" xlink:href="#font_2_82" transform="matrix(9.963496,0,0,-9.963197,236.73969,100.54108)"/>
<path transform="matrix(1.00009,0,0,-1.00006,125.8327,88.25734)" stroke-width=".3985" stroke-linecap="butt" stroke-miterlimit="10" stroke-linejoin="miter" fill="none" stroke="#000000" d="M0-.42801V50.62358"/>
<path transform="matrix(0,-1.00006,-1.00009,-0,125.8327,37.43146)" stroke-width=".3985" stroke-linecap="round" stroke-linejoin="round" fill="none" stroke="#000000" d="M-2.07224 2.39104C-1.69365 .95639-.84999 .27895 0 0-.84999-.27895-1.69365-.95639-2.07224-2.39104"/>
<use data-text="y" xlink:href="#font_1_2" transform="matrix(9.963496,0,0,-9.963197,129.35303,31.774952)"/>
<path transform="matrix(1.00009,0,0,-1.00006,125.8327,88.25734)" stroke-width=".3985" stroke-linecap="butt" stroke-miterlimit="10" stroke-linejoin="miter" fill="none" stroke="#000000" d="M2.83394 10.62732H-2.83394"/>
<use data-text="0" xlink:href="#font_2_121" transform="matrix(9.963496,0,0,-9.963197,96.78109,80.83789)"/>
<use data-text="." xlink:href="#font_2_88" transform="matrix(9.963496,0,0,-9.963197,101.762828,80.83789)"/>
<use data-text="0" xlink:href="#font_2_121" transform="matrix(9.963496,0,0,-9.963197,104.53269,80.83789)"/>
<use data-text="2" xlink:href="#font_2_107" transform="matrix(9.963496,0,0,-9.963197,109.51443,80.83789)"/>
<use data-text="5" xlink:href="#font_2_56" transform="matrix(9.963496,0,0,-9.963197,114.49616,80.83789)"/>
<path transform="matrix(1.00009,0,0,-1.00006,125.8327,88.25734)" stroke-width=".3985" stroke-linecap="butt" stroke-miterlimit="10" stroke-linejoin="miter" fill="none" stroke="#000000" d="M2.83394 21.26125H-2.83394"/>
<use data-text="0" xlink:href="#font_2_121" transform="matrix(9.963496,0,0,-9.963197,101.762538,70.203258)"/>
<use data-text="." xlink:href="#font_2_88" transform="matrix(9.963496,0,0,-9.963197,106.74427,70.203258)"/>
<use data-text="0" xlink:href="#font_2_121" transform="matrix(9.963496,0,0,-9.963197,109.51414,70.203258)"/>
<use data-text="5" xlink:href="#font_2_56" transform="matrix(9.963496,0,0,-9.963197,114.49587,70.203258)"/>
<path transform="matrix(1.00009,0,0,-1.00006,125.8327,88.25734)" stroke-width=".3985" stroke-linecap="butt" stroke-miterlimit="10" stroke-linejoin="miter" fill="none" stroke="#000000" d="M2.83394 31.88881H-2.83394"/>
<use data-text="0" xlink:href="#font_2_121" transform="matrix(9.963496,0,0,-9.963197,96.78109,59.624624)"/>
<use data-text="." xlink:href="#font_2_88" transform="matrix(9.963496,0,0,-9.963197,101.762828,59.624624)"/>
<use data-text="0" xlink:href="#font_2_121" transform="matrix(9.963496,0,0,-9.963197,104.53269,59.624624)"/>
<use data-text="7" xlink:href="#font_2_100" transform="matrix(9.963496,0,0,-9.963197,109.51443,59.624624)"/>
<use data-text="5" xlink:href="#font_2_56" transform="matrix(9.963496,0,0,-9.963197,114.49616,59.624624)"/>
<path transform="matrix(1.00009,0,0,-1.00006,125.8327,88.25734)" stroke-width=".3985" stroke-linecap="butt" stroke-miterlimit="10" stroke-linejoin="miter" fill="none" stroke="#000000" d="M2.83394 42.52274H-2.83394"/>
<use data-text="0" xlink:href="#font_2_121" transform="matrix(9.963496,0,0,-9.963197,106.74498,48.939985)"/>
<use data-text="." xlink:href="#font_2_88" transform="matrix(9.963496,0,0,-9.963197,111.726718,48.939985)"/>
<use data-text="1" xlink:href="#font_2_82" transform="matrix(9.963496,0,0,-9.963197,114.49658,48.939985)"/>
<path transform="matrix(1.00009,0,0,-1.00006,125.8327,88.25734)" stroke-width=".3985" stroke-linecap="butt" stroke-miterlimit="10" stroke-linejoin="miter" fill="none" stroke="#000000" d="M-113.38724 86.45334-112.81972 80.47144-112.25226 74.68404-111.68474 69.07178-111.11728 63.66086-110.54976 58.36647-109.9823 53.26704-109.41478 48.34251-108.84732 43.57373-108.27979 38.97368-107.71233 34.56177-107.1448 30.29259-106.57735 26.17278-106.00983 22.22148-105.44237 18.43254-104.87485 14.74736-104.30739 11.23068-103.73987 7.85698-103.17241 4.63242-102.60489 1.54398-102.03743 1.38185-101.46991 4.22356-100.90245 6.90314-100.33493 9.45296-99.76747 11.91843-99.19995 14.18275-98.63249 16.35634-98.06497 18.46492-97.49751 20.379-96.93 22.23448-96.36253 23.92145-95.79501 25.55641-95.22755 27.04227-94.66003 28.4565-94.09258 29.76721-93.52505 30.96733-92.9576 32.05754-92.39008 33.07616-91.82262 33.9714-91.2551 34.81488-90.68764 35.522-90.12012 36.19035-89.55266 36.75473-88.98514 37.22195-88.41768 37.63058-87.85016 37.95508-87.2827 38.22757-86.71518 38.3897-86.14772 38.48708-85.5802 38.52606-85.01274 38.46107-84.44522 38.40932-83.87776 38.24057-83.31024 38.02644-82.74278 37.76695-82.17526 37.44246-81.6078 37.05983-81.04028 36.62498-80.47282 36.12537-79.9053 35.58699-79.33784 34.99-78.77032 34.36726-78.20287 33.6989-77.63535 33.01117-77.06789 32.25206-76.50037 31.47356-75.9329 30.69484-75.36539 29.80598-74.79793 28.89774-74.23041 28.00888-73.66295 27.06802-73.09543 26.08203-72.52797 25.0828-71.96045 24.0902-71.39299 23.05858-70.82547 21.98798-70.258 20.924-69.69048 19.8014-69.12302 18.71803-68.5555 17.58907-67.98804 16.4407-67.42052 15.31172-66.85306 14.12437-66.28554 12.98901-65.71808 11.79529-65.15056 10.64032-64.5831 9.46596-64.01558 8.26561-63.44812 7.08487-62.8806 5.88452-62.31314 4.69717-61.74562 3.53583-61.17816 2.34209-60.61064 1.18712-60.04318 0-59.47566 1.12874-58.9082 2.2837-58.34068 3.43845-57.77322 4.55443-57.2057 5.69002-56.63824 6.86436-56.07072 7.92174-55.50327 9.01172-54.93575 10.07594-54.36829 11.13992-53.80077 12.13914-53.2333 13.20314-52.66579 14.19576-52.09833 15.18198-51.5308 16.16821-50.96335 17.09584-50.39583 18.03668-49.82837 18.95154-49.26085 19.82101-48.69339 20.69688-48.12587 21.49475-47.55841 22.30586-46.99089 23.10396-46.42343 23.88245-45.85591 24.64156-45.28845 25.33568-44.72093 26.04942-44.15347 26.71117-43.58595 27.34714-43.0185 27.9505-42.45097 28.53448-41.88351 29.10547-41.316 29.61786-40.74854 30.10448-40.18102 30.59108-39.61356 31.01294-39.04604 31.44757-38.47858 31.81082-37.91106 32.16768-37.3436 32.48555-36.77608 32.79704-36.20862 33.06953-35.6411 33.27066-35.07364 33.51077-34.50612 33.67291-33.93866 33.82864-33.37114 33.95201-32.80367 34.00378-32.23615 34.06877-31.66869 34.10776-31.10117 34.08815-30.5337 34.06215-29.96619 34.01677-29.39873 33.9584-28.8312 33.83527-28.26375 33.69252-27.69623 33.53677-27.12877 33.30304-26.56125 33.08253-25.99379 32.84242-25.42627 32.53755-24.85881 32.25206-24.29129 31.90819-23.72383 31.57092-23.15631 31.15569-22.58885 30.75983-22.02133 30.31859-21.45387 29.8386-20.88635 29.39735-20.3189 28.85875-19.75137 28.33975-19.18391 27.80138-18.6164 27.21077-18.04893 26.63979-17.48141 25.99765-16.91396 25.3683-16.34644 24.72594-15.77898 24.01881-15.21146 23.34384-14.644 22.61734-14.07648 21.89061-13.50902 21.15088-12.9415 20.39177-12.37404 19.62628-11.80652 18.79579-11.23906 17.9977-10.67154 17.21281-10.10408 16.34972-9.53656 15.49985-8.9691 14.6176-8.40158 13.75452-7.83412 12.88527-7.2666 12.00279-6.69914 11.10094-6.13162 10.18608-5.56416 9.27122-4.99664 8.32399-4.42918 7.39636-3.86166 6.4815-3.2942 5.50827-2.72668 4.56743-2.15923 3.6202-1.5917 2.69234-1.02425 1.7451-.45673 .77187 .11066 .1945 .67818 1.13535 1.24564 2.08897 1.81316 3.04282 2.38062 3.98344 2.94814 4.95029 3.5156 5.87152 4.08311 6.82538 4.65059 7.75323 5.21811 8.69385 5.78557 9.6087 6.35309 10.51695 6.92055 11.41881 7.48807 12.31429 8.05553 13.21614 8.62305 14.079 9.1905 14.94847 9.75803 15.81134 10.32549 16.66782 10.893 17.4983 11.46046 18.30917 12.02798 19.12666 12.59544 19.89877 13.16296 20.68388 13.73042 21.43 14.29794 22.1761 14.8654 22.88322 15.43292 23.60995 16.00038 24.2977 16.5679 24.95944 17.13536 25.61479 17.70288 26.23116 18.27034 26.86052 18.83786 27.4315 19.40532 28.00249 19.97284 28.53448 20.5403 29.06648 21.10782 29.5531 21.67528 30.0201 22.2428 30.46796 22.81026 30.89597 23.37778 31.3242 23.94524 31.69406 24.51276 32.00555 25.08022 32.3558 25.64774 32.64792 26.2152 32.9138 26.78271 33.1603 27.35017 33.36803 27.9177 33.54977 28.48515 33.74428 29.05267 33.86765 29.62013 33.9714 30.18765 34.02977 30.75511 34.07515 31.32263 34.10776 31.89009 34.09476 32.45761 34.04915 33.02507 33.97801 33.59259 33.89365 34.16005 33.7379 34.72757 33.58853 35.29503 33.4134 35.86255 33.1863 36.43001 32.93979 36.99753 32.6673 37.56499 32.3688 38.1325 32.00555 38.69997 31.65508 39.26749 31.25282 39.83495 30.83759 40.40247 30.38358 40.96992 29.90996 41.53745 29.40373 42.10492 28.86536 42.67244 28.30737 43.2399 27.69739 43.80742 27.08763 44.37488 26.44528 44.9424 25.75754 45.50986 25.06981 46.07738 24.32368 46.64484 23.59695 47.21236 22.82484 47.77982 22.02036 48.34734 21.18988 48.9148 20.34001 49.48232 19.46414 50.04977 18.57529 50.6173 17.66043 51.18475 16.71959 51.75227 15.78534 52.31973 14.80573 52.88725 13.7999 53.45471 12.78128 54.02223 11.75629 54.58969 10.71169 55.15721 9.64108 55.72467 8.55772 56.29219 7.46112 56.85965 6.38414 57.42717 5.24878 57.99463 4.12619 58.56215 2.98445 59.12961 1.83609 59.69713 .66812 60.26459 .48 60.8321 1.66074 61.39957 2.8417 61.96709 4.02243 62.53455 5.1904 63.10207 6.37114 63.66953 7.5455 64.23705 8.73285 64.8045 9.92657 65.37202 11.12054 65.93948 12.28828 66.507 13.46263 67.07446 14.60461 67.64198 15.75296 68.20944 16.90132 68.77696 18.02368 69.34442 19.13966 69.91194 20.24265 70.4794 21.33923 71.04692 22.3966 71.61438 23.46083 72.1819 24.50543 72.74936 25.49142 73.31688 26.48427 73.88434 27.4445 74.45186 28.38513 75.01932 29.28699 75.58684 30.13686 76.1543 30.99333 76.72182 31.79782 77.28928 32.56993 77.8568 33.29666 78.42426 33.99739 78.99178 34.65276 79.55923 35.23012 80.12677 35.7945 80.69423 36.3201 81.26175 36.79372 81.82921 37.20897 82.39673 37.55922 82.96419 37.89032 83.53171 38.13681 84.09917 38.33794 84.66669 38.46768 85.23415 38.51945 85.80167 38.53906 86.36913 38.4417 86.93665 38.32494 87.5041 38.1172 88.07162 37.84471 88.63908 37.48146 89.2066 37.06622 89.77406 36.54723 90.34158 35.94385 90.90904 35.2821 91.47656 34.50339 92.04402 33.65352 92.61154 32.6739 93.179 31.65508 93.74652 30.50034 94.31398 29.2936 94.8815 27.9505 95.44896 26.49727 96.01648 24.95305 96.58394 23.28548 97.15146 21.53375 97.71892 19.64566 98.28644 17.63445 98.8539 15.54523 99.42142 13.30688 99.98888 10.9518 100.5564 8.47334 101.12386 5.87152 101.69138 3.13358 102.25883 .27249 102.82635 2.75072 103.39381 5.88452 103.96133 9.16109 104.5288 12.58678 105.09631 16.15521 105.66377 19.88577 106.2313 23.7527 106.79875 27.76237 107.36627 31.9148 107.93373 36.26173 108.50125 40.75801 109.06871 45.41643 109.63623 50.23059 110.20369 55.2069 110.77121 60.36491 111.33867 65.72408 111.90619 71.23236 112.47365 76.916 113.04117 82.78114"/>
</svg>
