<svg xmlns="http://www.w3.org/2000/svg" xmlns:xlink="http://www.w3.org/1999/xlink" xmlns:inkscape="http://www.inkscape.org/namespaces/inkscape" version="1.1" width="117" height="117" viewBox="0 0 117 117">
<defs>
<path id="font_1_1" d="M.5629883 .31715394C.56999209 .3451538 .58200076 .3931427 .58200076 .40014649 .58200076 .42114259 .56599429 .44413758 .5349884 .44413758 .5189972 .44413758 .48199464 .4351349 .46899415 .3911438 .46499635 .3771515 .41999818 .19616699 .4119873 .16316223 .4059906 .14016724 .39898683 .11117554 .39698792 .093170169 .3789978 .06918335 .33999635 .028182984 .2889862 .028182984 .22999573 .028182984 .22898865 .07817078 .22898865 .10116577 .22898865 .16217041 .2599945 .24015808 .28799439 .31214906 .2979889 .33815003 .30099488 .3451538 .30099488 .3621521 .30099488 .4201355 .24299622 .45214845 .18798828 .45214845 .08198547 .45214845 .03199768 .31614686 .03199768 .29615785 .03199768 .28215028 .04699707 .28215028 .055999757 .28215028 .067993167 .28215028 .07499695 .28215028 .07899475 .29515077 .11199951 .4061432 .1659851 .4161377 .18199158 .4161377 .18899536 .4161377 .19898987 .4161377 .19898987 .3951416 .19898987 .3721466 .18699646 .34414674 .18299866 .33215333 .14099121 .2271576 .12199402 .17115784 .12199402 .122177127 .12199402 .008178711 .22200012-.0078125 .2809906-.0078125 .30999757-.0078125 .35398866-.0038146973 .4079895 .047180177 .43998719-.0018157959 .49798585-.0078125 .5219879-.0078125 .5589905-.0078125 .58799746 .013183594 .60899356 .049179079 .6339874 .08917236 .6469879 .14317322 .6469879 .14816284 .6469879 .16217041 .6319885 .16217041 .6230011 .16217041 .6119995 .16217041 .60798647 .16217041 .6029968 .15716553 .6009979 .15516663 .6009979 .15316773 .59498599 .12817383 .57499697 .0501709 .5529938 .028182984 .5269928 .028182984 .5119934 .028182984 .5039978 .03817749 .5039978 .06517029 .5039978 .08216858 .5079956 .09817505 .5179901 .13816834 .5249939 .16616822 .5349884 .2061615 .5399933 .22816468L.5629883 .31715394Z"/>
<path id="font_1_2" d="M.54100039 .3621521C.54100039 .45314027 .47399903 .45314027 .47299195 .45314027 .43299867 .45314027 .39698792 .41114808 .39698792 .3771515 .39698792 .3491516 .41799928 .33714295 .4269867 .33215333 .46899415 .30714417 .47698976 .28915406 .47698976 .26914979 .47698976 .24716187 .4189911 .028182984 .3019867 .028182984 .22999573 .028182984 .22999573 .08818054 .22999573 .106170658 .22999573 .16416931 .2579956 .2371521 .2899933 .31715394 .2979889 .33714295 .30099488 .34614564 .30099488 .3621521 .30099488 .4201355 .24299622 .45214845 .18798828 .45214845 .08198547 .45214845 .03199768 .31614686 .03199768 .29615785 .03199768 .28215028 .04699707 .28215028 .055999757 .28215028 .067993167 .28215028 .07499695 .28215028 .07899475 .29515077 .11099243 .4031372 .1639862 .4161377 .18199158 .4161377 .18899536 .4161377 .19898987 .4161377 .19898987 .3951416 .19898987 .3721466 .18699646 .3431549 .18399048 .33514405 .13798523 .21916199 .12298584 .17416382 .12298584 .12617493 .12298584 .020187378 .20899964-.0078125 .29599-.0078125 .46798707-.0078125 .54100039 .27615357 .54100039 .3621521Z"/>
</defs>
<path transform="matrix(1.00003,0,0,-1.00002,59.18921,114.58499)" stroke-width="1.19553" stroke-linecap="butt" stroke-miterlimit="10" stroke-linejoin="miter" fill="none" stroke="#000000" d="M0 0 55.62439 27.81221"/>
<path transform="matrix(.8943869,-.44717894,-.44718344,-.89437797,115.3499,86.50493)" stroke-width="1.19553" stroke-linecap="round" stroke-linejoin="round" fill="none" stroke="#000000" d="M-3.02867 3.83081C-2.47534 1.53229-1.24231 .44691 0 0-1.24231-.44691-2.47534-1.53229-3.02867-3.83081"/>
<use data-text="u" xlink:href="#font_1_1" transform="matrix(9.962899,0,0,-9.962799,91.45518,108.75787)"/>
<path transform="matrix(1.00003,0,0,-1.00002,59.18921,114.58499)" stroke-width="1.19553" stroke-linecap="butt" stroke-miterlimit="10" stroke-linejoin="miter" fill="none" stroke="#000000" d="M-56.69362 28.3468-28.72482 112.25313"/>
<path transform="matrix(.3162195,-.948659,-.9486685,-.31621633,30.652523,1.7625504)" stroke-width="1.19553" stroke-linecap="round" stroke-linejoin="round" fill="none" stroke="#000000" d="M-3.02867 3.83081C-2.47534 1.53229-1.24231 .44691 0 0-1.24231-.44691-2.47534-1.53229-3.02867-3.83081"/>
<use data-text="v" xlink:href="#font_1_2" transform="matrix(9.962899,0,0,-9.962799,6.7346346,39.798494)"/>
</svg>
