<svg xmlns="http://www.w3.org/2000/svg" xmlns:xlink="http://www.w3.org/1999/xlink" xmlns:inkscape="http://www.inkscape.org/namespaces/inkscape" version="1.1" width="127" height="128" viewBox="0 0 127 128">
<defs>
<path id="font_1_1" d="M.6589966 .23046875C.6759949 .23046875 .69400027 .23046875 .69400027 .25045777 .69400027 .27046205 .6759949 .27046205 .6589966 .27046205H.117996219C.100997928 .27046205 .08299255 .27046205 .08299255 .25045777 .08299255 .23046875 .100997928 .23046875 .117996219 .23046875H.6589966Z"/>
<path id="font_2_1" d="M.2939911 .64004519C.2939911 .66400149 .2939911 .6660156 .2709961 .6660156 .20899964 .60227969 .12098694 .60227969 .08898926 .60227969V.57128909C.10899353 .57128909 .16799927 .57128909 .21998596 .5972748V.07902527C.21998596 .042999269 .21699524 .0309906 .1269989 .0309906H.09498596V0C.12998963 .0029907227 .21699524 .0029907227 .25698854 .0029907227 .29699708 .0029907227 .38398744 .0029907227 .4189911 0V.0309906H.3869934C.29699708 .0309906 .2939911 .041992189 .2939911 .07902527V.64004519Z"/>
<path id="font_2_2" d="M.1269989 .07699585 .23298645 .18003845C.3889923 .31811524 .44898988 .3721466 .44898988 .47216798 .44898988 .5860901 .35899354 .6660156 .23699951 .6660156 .12399292 .6660156 .049987794 .57411196 .049987794 .48516847 .049987794 .4291687 .099990848 .4291687 .102996829 .4291687 .11999512 .4291687 .15499878 .44117738 .15499878 .48217774 .15499878 .5081787 .13699341 .5341797 .101989749 .5341797 .09399414 .5341797 .09199524 .5341797 .08898926 .5331726 .11199951 .59806826 .1659851 .63500979 .22399903 .63500979 .31498719 .63500979 .35798646 .5541382 .35798646 .47216798 .35798646 .39215089 .30799867 .31311036 .25299073 .25108338L.06098938 .036987306C.049987794 .025985718 .049987794 .023986817 .049987794 0H.42099L.44898988 .17404175H.42399598C.4189911 .14402771 .4119873 .1000061 .4019928 .084991458 .394989 .07699585 .32899476 .07699585 .30699159 .07699585H.1269989Z"/>
<path id="font_2_3" d="M.2899933 .35191346C.37199403 .37893678 .42999269 .4490509 .42999269 .52809146 .42999269 .6100464 .34199525 .6660156 .24598694 .6660156 .14498902 .6660156 .068984989 .60606387 .068984989 .53009036 .068984989 .49710084 .09098816 .47808839 .11999512 .47808839 .15098572 .47808839 .17098999 .50009158 .17098999 .5290985 .17098999 .57910159 .12399292 .57910159 .10899353 .57910159 .13999939 .62802127 .20599365 .64100649 .24198914 .64100649 .2829895 .64100649 .33799745 .6190338 .33799745 .5290985 .33799745 .51708987 .33599855 .45906068 .30999757 .4149933 .27999879 .36691285 .24598694 .36390687 .22099304 .36291505 .21299744 .36190797 .18899536 .35990907 .18199158 .35990907 .17399597 .35890199 .16699219 .35791017 .16699219 .3479004 .16699219 .33691407 .17399597 .33691407 .19099427 .33691407H.23498535C.31698609 .33691407 .35398866 .2686615 .35398866 .17037964 .35398866 .034469606 .2849884 .0055389406 .24099732 .0055389406 .19799805 .0055389406 .12298584 .022491456 .08799744 .08137512 .12298584 .07637024 .1539917 .09837341 .1539917 .1363678 .1539917 .17237854 .1269989 .19238281 .09799194 .19238281 .07398987 .19238281 .041992189 .17837525 .041992189 .1343689 .041992189 .043441774 .1349945-.022460938 .24398804-.022460938 .3659973-.022460938 .45700074 .06838989 .45700074 .17037964 .45700074 .252594 .3939972 .33088685 .2899933 .35191346Z"/>
<path id="font_3_1" d="M.5629883 .31715394C.56999209 .3451538 .58200076 .3931427 .58200076 .40014649 .58200076 .42114259 .56599429 .44413758 .5349884 .44413758 .5189972 .44413758 .48199464 .4351349 .46899415 .3911438 .46499635 .3771515 .41999818 .19616699 .4119873 .16316223 .4059906 .14016724 .39898683 .11117554 .39698792 .093170169 .3789978 .06918335 .33999635 .028182984 .2889862 .028182984 .22999573 .028182984 .22898865 .07817078 .22898865 .10116577 .22898865 .16217041 .2599945 .24015808 .28799439 .31214906 .2979889 .33815003 .30099488 .3451538 .30099488 .3621521 .30099488 .4201355 .24299622 .45214845 .18798828 .45214845 .08198547 .45214845 .03199768 .31614686 .03199768 .29615785 .03199768 .28215028 .04699707 .28215028 .055999757 .28215028 .067993167 .28215028 .07499695 .28215028 .07899475 .29515077 .11199951 .4061432 .1659851 .4161377 .18199158 .4161377 .18899536 .4161377 .19898987 .4161377 .19898987 .3951416 .19898987 .3721466 .18699646 .34414674 .18299866 .33215333 .14099121 .2271576 .12199402 .17115784 .12199402 .122177127 .12199402 .008178711 .22200012-.0078125 .2809906-.0078125 .30999757-.0078125 .35398866-.0038146973 .4079895 .047180177 .43998719-.0018157959 .49798585-.0078125 .5219879-.0078125 .5589905-.0078125 .58799746 .013183594 .60899356 .049179079 .6339874 .08917236 .6469879 .14317322 .6469879 .14816284 .6469879 .16217041 .6319885 .16217041 .6230011 .16217041 .6119995 .16217041 .60798647 .16217041 .6029968 .15716553 .6009979 .15516663 .6009979 .15316773 .59498599 .12817383 .57499697 .0501709 .5529938 .028182984 .5269928 .028182984 .5119934 .028182984 .5039978 .03817749 .5039978 .06517029 .5039978 .08216858 .5079956 .09817505 .5179901 .13816834 .5249939 .16616822 .5349884 .2061615 .5399933 .22816468L.5629883 .31715394Z"/>
<path id="font_3_2" d="M.54100039 .3621521C.54100039 .45314027 .47399903 .45314027 .47299195 .45314027 .43299867 .45314027 .39698792 .41114808 .39698792 .3771515 .39698792 .3491516 .41799928 .33714295 .4269867 .33215333 .46899415 .30714417 .47698976 .28915406 .47698976 .26914979 .47698976 .24716187 .4189911 .028182984 .3019867 .028182984 .22999573 .028182984 .22999573 .08818054 .22999573 .106170658 .22999573 .16416931 .2579956 .2371521 .2899933 .31715394 .2979889 .33714295 .30099488 .34614564 .30099488 .3621521 .30099488 .4201355 .24299622 .45214845 .18798828 .45214845 .08198547 .45214845 .03199768 .31614686 .03199768 .29615785 .03199768 .28215028 .04699707 .28215028 .055999757 .28215028 .067993167 .28215028 .07499695 .28215028 .07899475 .29515077 .11099243 .4031372 .1639862 .4161377 .18199158 .4161377 .18899536 .4161377 .19898987 .4161377 .19898987 .3951416 .19898987 .3721466 .18699646 .3431549 .18399048 .33514405 .13798523 .21916199 .12298584 .17416382 .12298584 .12617493 .12298584 .020187378 .20899964-.0078125 .29599-.0078125 .46798707-.0078125 .54100039 .27615357 .54100039 .3621521Z"/>
<path id="font_4_1" d="M.45498658 .5001831C.45498658 .56614688 .43699647 .7050781 .33499146 .7050781 .19599915 .7050781 .041992189 .42323304 .041992189 .19425965 .041992189 .100250247 .070999149-.0107421879 .1619873-.0107421879 .30299378-.0107421879 .45498658 .27627564 .45498658 .5001831M.147995 .36328126C.16499329 .42723084 .18499756 .5071869 .22499085 .57814028 .2519989 .6271057 .2889862 .68307498 .33399964 .68307498 .3829956 .68307498 .3889923 .6191101 .3889923 .56214907 .3889923 .5131836 .3809967 .46220399 .35699464 .36328126H.147995M.34799195 .3312683C.33699037 .28527833 .31599427 .2002716 .27799989 .12826538 .24299622 .060256959 .20498657 .011245728 .1619873 .011245728 .1289978 .011245728 .10798645 .040252687 .10798645 .133255 .10798645 .17526245 .11399841 .23326111 .13999939 .3312683H.34799195Z"/>
</defs>
<path transform="matrix(1,0,0,-1.00005,35.112,92.511829)" stroke-width=".3985" stroke-linecap="butt" stroke-miterlimit="10" stroke-linejoin="miter" fill="none" stroke="#000000" d="M-34.01628 0H90.31161"/>
<path transform="matrix(1,0,0,-1.00005,125.622859,92.511829)" stroke-width=".3985" stroke-linecap="round" stroke-linejoin="round" fill="none" stroke="#000000" d="M-2.07224 2.39104C-1.69365 .95639-.84999 .27895 0 0-.84999-.27895-1.69365-.95639-2.07224-2.39104"/>
<path transform="matrix(1,0,0,-1.00005,35.112,92.511829)" stroke-width=".3985" stroke-linecap="butt" stroke-miterlimit="10" stroke-linejoin="miter" fill="none" stroke="#000000" d="M0-34.01628V90.31161"/>
<path transform="matrix(0,-1.00005,-1,-0,35.112,1.9964447)" stroke-width=".3985" stroke-linecap="round" stroke-linejoin="round" fill="none" stroke="#000000" d="M-2.07224 2.39104C-1.69365 .95639-.84999 .27895 0 0-.84999-.27895-1.69365-.95639-2.07224-2.39104"/>
<path transform="matrix(1,0,0,-1.00005,35.112,92.511829)" stroke-width=".3985" stroke-linecap="butt" stroke-miterlimit="10" stroke-linejoin="miter" fill="none" stroke="#000000" d="M-22.67752-2.26787V2.26787"/>
<use data-text="&#x2212;" xlink:href="#font_1_1" transform="matrix(9.9626,0,0,-9.963098,6.0690004,104.720439)"/>
<use data-text="1" xlink:href="#font_2_1" transform="matrix(9.9626,0,0,-9.963098,13.817001,104.720439)"/>
<path transform="matrix(1,0,0,-1.00005,35.112,92.511829)" stroke-width=".3985" stroke-linecap="butt" stroke-miterlimit="10" stroke-linejoin="miter" fill="none" stroke="#000000" d="M22.67752-2.26787V2.26787"/>
<use data-text="1" xlink:href="#font_2_1" transform="matrix(9.9626,0,0,-9.963098,55.299,104.720439)"/>
<path transform="matrix(1,0,0,-1.00005,35.112,92.511829)" stroke-width=".3985" stroke-linecap="butt" stroke-miterlimit="10" stroke-linejoin="miter" fill="none" stroke="#000000" d="M45.35506-2.26787V2.26787"/>
<use data-text="2" xlink:href="#font_2_2" transform="matrix(9.9626,0,0,-9.963098,77.976,104.720439)"/>
<path transform="matrix(1,0,0,-1.00005,35.112,92.511829)" stroke-width=".3985" stroke-linecap="butt" stroke-miterlimit="10" stroke-linejoin="miter" fill="none" stroke="#000000" d="M68.0326-2.26787V2.26787"/>
<use data-text="3" xlink:href="#font_2_3" transform="matrix(9.9626,0,0,-9.963098,100.654,104.720439)"/>
<path transform="matrix(1,0,0,-1.00005,35.112,92.511829)" stroke-width=".3985" stroke-linecap="butt" stroke-miterlimit="10" stroke-linejoin="miter" fill="none" stroke="#000000" d="M-2.26787-22.67752H2.26787"/>
<use data-text="&#x2212;" xlink:href="#font_1_1" transform="matrix(9.9626,0,0,-9.963098,16.594002,117.9861)"/>
<use data-text="1" xlink:href="#font_2_1" transform="matrix(9.9626,0,0,-9.963098,24.342003,117.9861)"/>
<path transform="matrix(1,0,0,-1.00005,35.112,92.511829)" stroke-width=".3985" stroke-linecap="butt" stroke-miterlimit="10" stroke-linejoin="miter" fill="none" stroke="#000000" d="M-2.26787 22.67752H2.26787"/>
<use data-text="1" xlink:href="#font_2_1" transform="matrix(9.9626,0,0,-9.963098,24.343003,73.04385)"/>
<path transform="matrix(1,0,0,-1.00005,35.112,92.511829)" stroke-width=".3985" stroke-linecap="butt" stroke-miterlimit="10" stroke-linejoin="miter" fill="none" stroke="#000000" d="M-2.26787 45.35506H2.26787"/>
<use data-text="2" xlink:href="#font_2_2" transform="matrix(9.9626,0,0,-9.963098,24.343003,50.36472)"/>
<path transform="matrix(1,0,0,-1.00005,35.112,92.511829)" stroke-width=".3985" stroke-linecap="butt" stroke-miterlimit="10" stroke-linejoin="miter" fill="none" stroke="#000000" d="M-2.26787 68.0326H2.26787"/>
<use data-text="3" xlink:href="#font_2_3" transform="matrix(9.9626,0,0,-9.963098,24.343003,27.686593)"/>
<path transform="matrix(1,0,0,-1.00005,35.112,92.511829)" stroke-width=".3985" stroke-linecap="butt" stroke-miterlimit="10" stroke-linejoin="miter" fill="none" stroke="#000000" d="M0 0 67.65456 22.5515"/>
<path transform="matrix(.94864,-.3162258,-.31621,-.9486874,102.95557,69.89618)" stroke-width=".3985" stroke-linecap="round" stroke-linejoin="round" fill="none" stroke="#000000" d="M-2.07224 2.39104C-1.69365 .95639-.84999 .27895 0 0-.84999-.27895-1.69365-.95639-2.07224-2.39104"/>
<use data-text="u" xlink:href="#font_3_1" transform="matrix(9.9626,0,0,-9.963098,72.647998,89.12066)"/>
<path transform="matrix(1,0,0,-1.00005,35.112,92.511829)" stroke-width=".3985" stroke-linecap="butt" stroke-miterlimit="10" stroke-linejoin="miter" fill="none" stroke="#000000" d="M0 0-22.49931 44.99866"/>
<path transform="matrix(-.44717,-.89440467,-.89436,.4471923,12.52359,47.332738)" stroke-width=".3985" stroke-linecap="round" stroke-linejoin="round" fill="none" stroke="#000000" d="M-2.07224 2.39104C-1.69365 .95639-.84999 .27895 0 0-.84999-.27895-1.69365-.95639-2.07224-2.39104"/>
<use data-text="v" xlink:href="#font_3_2" transform="matrix(9.9626,0,0,-9.963098,14.238998,77.78109)"/>
<path transform="matrix(1,0,0,-1.00005,35.112,92.511829)" stroke-width=".3985" stroke-linecap="butt" stroke-miterlimit="10" stroke-linejoin="miter" fill="none" stroke="#000000" d="M68.0326 22.67752-22.29091 45.2584"/>
<path transform="matrix(-.97014,-.24252212,-.24251,.97018846,12.627779,47.202844)" stroke-width=".3985" stroke-linecap="round" stroke-linejoin="round" fill="none" stroke="#000000" d="M-2.07224 2.39104C-1.69365 .95639-.84999 .27895 0 0-.84999-.27895-1.69365-.95639-2.07224-2.39104"/>
<use data-text="v" xlink:href="#font_3_2" transform="matrix(9.9626,0,0,-9.963098,45.302003,54.14391)"/>
<use data-text="&#x2212;" xlink:href="#font_1_1" transform="matrix(9.9626,0,0,-9.963098,53.53,54.14391)"/>
<use data-text="u" xlink:href="#font_3_1" transform="matrix(9.9626,0,0,-9.963098,63.492998,54.14391)"/>
<path transform="matrix(1,0,0,-1.00005,35.112,92.511829)" stroke-width=".3985" stroke-linecap="butt" stroke-miterlimit="10" stroke-linejoin="miter" fill="none" stroke="#000000" d="M7.55577 2.51859C6.65575 5.21953 4.38232 7.23596 1.59317 7.80693-.1547 8.16475-1.97353 7.9252-3.56927 7.12735"/>
<path transform="matrix(1,0,0,-1.00005,35.112,92.511829)" stroke-width=".3985" stroke-linecap="butt" stroke-miterlimit="10" stroke-linejoin="miter" fill="none" stroke="#000000" d="M2.26787 6.8033"/>
<use data-text="&#x03b8;" xlink:href="#font_4_1" transform="matrix(9.9626,0,0,-9.963098,40.9,82.18831)"/>
</svg>
