<svg xmlns="http://www.w3.org/2000/svg" xmlns:xlink="http://www.w3.org/1999/xlink" xmlns:inkscape="http://www.inkscape.org/namespaces/inkscape" version="1.1" width="181" height="183" viewBox="0 0 181 183">
<defs>
<path id="font_1_1" d="M.33399964 .30233766C.33999635 .32835389 .36299134 .42037965 .43299867 .42037965 .43798829 .42037965 .46199037 .42037965 .48298646 .40734864 .45498658 .402359 .43499757 .37734986 .43499757 .35334779 .43499757 .33735658 .44599916 .31835938 .47299195 .31835938 .49499513 .31835938 .5269928 .3363495 .5269928 .37635804 .5269928 .42837525 .46798707 .4423828 .43399049 .4423828 .37599183 .4423828 .34098817 .38935853 .32899476 .36634828 .3039856 .43237306 .25 .4423828 .22099304 .4423828 .116989139 .4423828 .05999756 .3133545 .05999756 .28834535 .05999756 .27833558 .069992069 .27833558 .07199097 .27833558 .07998657 .27833558 .08299255 .28033448 .084991458 .28933717 .11898804 .39535523 .18499756 .42037965 .21899414 .42037965 .23799134 .42037965 .272995 .4113617 .272995 .35334779 .272995 .32235719 .2559967 .25532533 .21899414 .11528015 .20298767 .053268434 .16799927 .011245728 .12399292 .011245728 .117996219 .011245728 .09498596 .011245728 .07398987 .024276734 .09899902 .029266358 .12098694 .05027771 .12098694 .07827759 .12098694 .105270389 .09899902 .11328125 .083999637 .11328125 .053985597 .11328125 .0289917 .08728027 .0289917 .055267335 .0289917 .009246826 .07899475-.0107421879 .12298584-.0107421879 .18899536-.0107421879 .22499085 .059280397 .22799683 .0652771 .23999024 .028274537 .27598573-.0107421879 .33599855-.0107421879 .43899537-.0107421879 .49598695 .118270877 .49598695 .14328003 .49598695 .1532898 .4869995 .1532898 .48399354 .1532898 .47499085 .1532898 .47299195 .14929199 .47099305 .14228821 .43798829 .03527832 .36999513 .011245728 .33799745 .011245728 .29899598 .011245728 .2829895 .043273927 .2829895 .07727051 .2829895 .09927368 .2889862 .121276859 .2999878 .16529846L.33399964 .30233766Z"/>
<path id="font_1_2" d="M.48599244 .38136292C.48999024 .39537049 .48999024 .39736939 .48999024 .40437318 .48999024 .42237855 .47599793 .43138124 .46099855 .43138124 .45098878 .43138124 .43499757 .42536927 .42599488 .41036988 .42399598 .405365 .41600038 .37435914 .4119873 .35635377 .40499879 .33035279 .397995 .30334474 .3919983 .27633668L.34700013 .09628296C.34298707 .08126831 .2999878 .011245728 .23399353 .011245728 .18299866 .011245728 .17199707 .055267335 .17199707 .0922699 .17199707 .1382904 .18899536 .20030213 .22299195 .28833009 .23899842 .3293457 .24299622 .3403473 .24299622 .36035157 .24299622 .405365 .21099854 .4423828 .16099549 .4423828 .06599426 .4423828 .0289917 .29733277 .0289917 .28833009 .0289917 .27833558 .038986207 .27833558 .040985109 .27833558 .050994874 .27833558 .051986696 .28033448 .056991579 .29634095 .083999637 .3903656 .12399292 .42037965 .1579895 .42037965 .1659851 .42037965 .18299866 .42037965 .18299866 .3883667 .18299866 .36335755 .17298889 .3373413 .1659851 .31834413 .12599182 .21231079 .10798645 .1552887 .10798645 .10827637 .10798645 .019256592 .17098999-.0107421879 .22999573-.0107421879 .2689972-.0107421879 .30299378 .0062561037 .33099366 .03425598 .31799317-.017745972 .30599977-.06674194 .2659912-.11973572 .23999024-.15385437 .20199585-.18309021 .1559906-.18309021 .14199829-.18309021 .09700012-.18005371 .07998657-.14074707 .09599304-.14074707 .10899353-.14074707 .12298584-.1287384 .1329956-.11973572 .14299011-.10673523 .14299011-.08773804 .14299011-.056747438 .115997318-.052734376 .10598755-.052734376 .08299255-.052734376 .049987794-.068740848 .049987794-.11773682 .049987794-.16796875 .09399414-.20507813 .1559906-.20507813 .25898744-.20507813 .3619995-.11373901 .3899994-.00074768069L.48599244 .38136292Z"/>
<path id="font_2_1" d="M.33499146 .63612368C.33499146 .6630554 .33299256 .6640625 .30499269 .6640625 .24099732 .6014404 .1499939 .6004486 .10899353 .6004486V.5644531C.1329956 .5644531 .19898987 .5644531 .2539978 .592453V.08203125C.2539978 .04899597 .2539978 .035995485 .1539917 .035995485H.115997318V0C.13398743 .0009918213 .25698854 .0039978029 .2939911 .0039978029 .32499696 .0039978029 .45098878 .0009918213 .47299195 0V.035995485H.43499757C.33499146 .035995485 .33499146 .04899597 .33499146 .08203125V.63612368Z"/>
<path id="font_2_2" d="M.5049896 .18203736H.47099305C.46798707 .16001892 .45799256 .100997928 .44499208 .09098816 .43699647 .084991458 .3600006 .084991458 .34599305 .084991458H.1619873C.2669983 .17803955 .3019867 .20603943 .3619995 .25306703 .43598939 .312088 .5049896 .374115 .5049896 .46914674 .5049896 .5900879 .39898683 .6640625 .2709961 .6640625 .14698792 .6640625 .06298828 .57710269 .06298828 .4851532 .06298828 .43414308 .10598755 .42915345 .115997318 .42915345 .13999939 .42915345 .16899109 .44615174 .16899109 .48214723 .16899109 .5001526 .1619873 .53515627 .10998535 .53515627 .14099121 .6060791 .20899964 .62805178 .2559967 .62805178 .35598756 .62805178 .4079895 .5501404 .4079895 .46914674 .4079895 .38212586 .34599305 .3130951 .31399537 .27708436L.07299805 .038986207C.06298828 .02999878 .06298828 .027999878 .06298828 0H.47499085L.5049896 .18203736Z"/>
<path id="font_3_1" d="M.2939911 .64004519C.2939911 .66400149 .2939911 .6660156 .2709961 .6660156 .20899964 .60227969 .12098694 .60227969 .08898926 .60227969V.57128909C.10899353 .57128909 .16799927 .57128909 .21998596 .5972748V.07902527C.21998596 .042999269 .21699524 .0309906 .1269989 .0309906H.09498596V0C.12998963 .0029907227 .21699524 .0029907227 .25698854 .0029907227 .29699708 .0029907227 .38398744 .0029907227 .4189911 0V.0309906H.3869934C.29699708 .0309906 .2939911 .041992189 .2939911 .07902527V.64004519Z"/>
<path id="font_4_1" d="M.6589966 .23046875C.6759949 .23046875 .69400027 .23046875 .69400027 .25045777 .69400027 .27046205 .6759949 .27046205 .6589966 .27046205H.117996219C.100997928 .27046205 .08299255 .27046205 .08299255 .25045777 .08299255 .23046875 .100997928 .23046875 .117996219 .23046875H.6589966Z"/>
<path id="font_5_64" d="M.27598573 .18710327V.24511719H.010986328V.18710327H.27598573Z"/>
<path id="font_5_82" d="M.4189911 0V.0309906H.3869934C.29699708 .0309906 .2939911 .041992189 .2939911 .07902527V.64012148C.2939911 .6640167 .2939911 .6660156 .2709961 .6660156 .20899964 .60227969 .12098694 .60227969 .08898926 .60227969V.57128909C.10899353 .57128909 .16799927 .57128909 .21998596 .5972748V.07902527C.21998596 .042999269 .21699524 .0309906 .1269989 .0309906H.09498596V0C.12998963 .0029907227 .21699524 .0029907227 .25698854 .0029907227 .29699708 .0029907227 .38398744 .0029907227 .4189911 0Z"/>
</defs>
<path transform="matrix(1.00008,0,0,-1,86.14244,96.706)" stroke-width=".3985" stroke-linecap="butt" stroke-miterlimit="10" stroke-linejoin="miter" fill="none" stroke="#000000" d="M-85.0404 0H84.6419"/>
<path transform="matrix(1.00008,0,0,-1,170.99039,96.706)" stroke-width=".3985" stroke-linecap="round" stroke-linejoin="round" fill="none" stroke="#000000" d="M-2.07224 2.39104C-1.69365 .95639-.84999 .27895 0 0-.84999-.27895-1.69365-.95639-2.07224-2.39104"/>
<use data-text="x" xlink:href="#font_1_1" transform="matrix(9.963397,0,0,-9.9626,174.70952,93.186008)"/>
<path transform="matrix(1.00008,0,0,-1,86.14244,96.706)" stroke-width=".3985" stroke-linecap="butt" stroke-miterlimit="10" stroke-linejoin="miter" fill="none" stroke="#000000" d="M0-85.0404V84.6419"/>
<path transform="matrix(0,-1,-1.00008,-0,86.14244,11.864838)" stroke-width=".3985" stroke-linecap="round" stroke-linejoin="round" fill="none" stroke="#000000" d="M-2.07224 2.39104C-1.69365 .95639-.84999 .27895 0 0-.84999-.27895-1.69365-.95639-2.07224-2.39104"/>
<use data-text="y" xlink:href="#font_1_2" transform="matrix(9.963397,0,0,-9.9626,89.66272,6.2089998)"/>
<path transform="matrix(1.00008,0,0,-1,86.14244,96.706)" stroke-width=".3985" stroke-linecap="butt" stroke-miterlimit="10" stroke-linejoin="miter" fill="none" stroke="#000000" d="M-56.91116 56.69362H-2.80225"/>
<path transform="matrix(-1.00008,-0,0,1,29.22673,40.012384)" d="M.71729 0C.71729 1.18845-.24611 2.15186-1.43457 2.15186-2.62303 2.15186-3.58644 1.18845-3.58644 0-3.58644-1.18845-2.62303-2.15186-1.43457-2.15186-.24611-2.15186 .71729-1.18845 .71729 0ZM-1.43457 0"/>
<path transform="matrix(-1.00008,-0,0,1,29.22673,40.012384)" stroke-width=".3985" stroke-linecap="butt" stroke-miterlimit="10" stroke-linejoin="miter" fill="none" stroke="#000000" d="M.71729 0C.71729 1.18845-.24611 2.15186-1.43457 2.15186-2.62303 2.15186-3.58644 1.18845-3.58644 0-3.58644-1.18845-2.62303-2.15186-1.43457-2.15186-.24611-2.15186 .71729-1.18845 .71729 0ZM-1.43457 0"/>
<path transform="matrix(1.00008,0,0,-1,83.339969,40.012384)" stroke-width=".3985" stroke-linecap="butt" stroke-miterlimit="10" stroke-linejoin="miter" fill="none" stroke="#000000" d="M4.30373 0C4.30373 1.18845 3.34032 2.15186 2.15186 2.15186 .96341 2.15186 0 1.18845 0 0 0-1.18845 .96341-2.15186 2.15186-2.15186 3.34032-2.15186 4.30373-1.18845 4.30373 0ZM2.15186 0"/>
<path transform="matrix(1.00008,0,0,-1,86.14244,96.706)" stroke-width=".3985" stroke-linecap="butt" stroke-miterlimit="10" stroke-linejoin="miter" fill="none" stroke="#000000" d="M-1.01709 .61037 26.68877 25.34781"/>
<path transform="matrix(-.74595966,.66597,.6660233,.7459,85.12527,96.09562)" d="M.71729 0C.71729 1.18845-.24611 2.15186-1.43457 2.15186-2.62303 2.15186-3.58644 1.18845-3.58644 0-3.58644-1.18845-2.62303-2.15186-1.43457-2.15186-.24611-2.15186 .71729-1.18845 .71729 0ZM-1.43457 0"/>
<path transform="matrix(-.74595966,.66597,.6660233,.7459,85.12527,96.09562)" stroke-width=".3985" stroke-linecap="butt" stroke-miterlimit="10" stroke-linejoin="miter" fill="none" stroke="#000000" d="M.71729 0C.71729 1.18845-.24611 2.15186-1.43457 2.15186-2.62303 2.15186-3.58644 1.18845-3.58644 0-3.58644-1.18845-2.62303-2.15186-1.43457-2.15186-.24611-2.15186 .71729-1.18845 .71729 0ZM-1.43457 0"/>
<path transform="matrix(.74595966,-.666,-.6660533,-.7459,112.83334,71.35819)" stroke-width=".3985" stroke-linecap="butt" stroke-miterlimit="10" stroke-linejoin="miter" fill="none" stroke="#000000" d="M4.30373 0C4.30373 1.18845 3.34032 2.15186 2.15186 2.15186 .96341 2.15186 0 1.18845 0 0 0-1.18845 .96341-2.15186 2.15186-2.15186 3.34032-2.15186 4.30373-1.18845 4.30373 0ZM2.15186 0"/>
<path transform="matrix(1.00008,0,0,-1,86.14244,96.706)" stroke-width=".3985" stroke-linecap="butt" stroke-miterlimit="10" stroke-linejoin="miter" fill="none" stroke="#000000" d="M26.18503 44.59207 26.858 43.97008 28.20404 42.66292 29.55011 41.2918 30.89616 39.85663 32.24223 38.35744 33.58827 36.79425 34.93436 35.16791 36.2804 33.4767 37.62646 31.72232 38.97252 29.90305 40.31859 28.02065 41.66463 26.07425 43.01068 24.06378 44.35675 21.98935 45.70279 19.85089 47.04887 17.64925 48.39491 15.38275 49.74098 13.05312 51.08704 10.65944 52.4331 8.20091 53.77914 5.67921 55.12523 3.0935 56.47127 .44377 57.41002-1.44809"/>
<path transform="matrix(-.7344788,-.67862,-.6786743,.73442,112.329578,52.11394)" d="M.71729 0C.71729 1.18845-.24611 2.15186-1.43457 2.15186-2.62303 2.15186-3.58644 1.18845-3.58644 0-3.58644-1.18845-2.62303-2.15186-1.43457-2.15186-.24611-2.15186 .71729-1.18845 .71729 0ZM-1.43457 0"/>
<path transform="matrix(-.7344788,-.67862,-.6786743,.73442,112.329578,52.11394)" stroke-width=".3985" stroke-linecap="butt" stroke-miterlimit="10" stroke-linejoin="miter" fill="none" stroke="#000000" d="M.71729 0C.71729 1.18845-.24611 2.15186-1.43457 2.15186-2.62303 2.15186-3.58644 1.18845-3.58644 0-3.58644-1.18845-2.62303-2.15186-1.43457-2.15186-.24611-2.15186 .71729-1.18845 .71729 0ZM-1.43457 0"/>
<path transform="matrix(.44444556,.89575,.89582166,-.44441,143.55706,98.15407)" d="M.71729 0C.71729 1.18845-.24611 2.15186-1.43457 2.15186-2.62303 2.15186-3.58644 1.18845-3.58644 0-3.58644-1.18845-2.62303-2.15186-1.43457-2.15186-.24611-2.15186 .71729-1.18845 .71729 0ZM-1.43457 0"/>
<path transform="matrix(.44444556,.89575,.89582166,-.44441,143.55706,98.15407)" stroke-width=".3985" stroke-linecap="butt" stroke-miterlimit="10" stroke-linejoin="miter" fill="none" stroke="#000000" d="M.71729 0C.71729 1.18845-.24611 2.15186-1.43457 2.15186-2.62303 2.15186-3.58644 1.18845-3.58644 0-3.58644-1.18845-2.62303-2.15186-1.43457-2.15186-.24611-2.15186 .71729-1.18845 .71729 0ZM-1.43457 0"/>
<path transform="matrix(1.00008,0,0,-1,86.14244,96.706)" stroke-width=".3985" stroke-linecap="butt" stroke-miterlimit="10" stroke-linejoin="miter" fill="none" stroke="#000000" d="M28.34679 5.6697V-5.6697"/>
<use data-text="1" xlink:href="#font_2_1" transform="matrix(6.974358,0,0,-6.9738,112.50656,110.39)"/>
<path transform="matrix(1.00008,0,0,-1,-56.837984,30.606)" stroke-width=".3985" stroke-linecap="butt" stroke-miterlimit="10" stroke-linejoin="miter" fill="none" stroke="#000000" d="M169.331-81.216H173.302"/>
<use data-text="2" xlink:href="#font_2_2" transform="matrix(6.974358,0,0,-6.9738,112.50656,117.748)"/>
<path transform="matrix(1.00008,0,0,-1,86.14244,96.706)" stroke-width=".3985" stroke-linecap="butt" stroke-miterlimit="10" stroke-linejoin="miter" fill="none" stroke="#000000" d="M56.69362 5.6697V-5.6697"/>
<use data-text="1" xlink:href="#font_3_1" transform="matrix(9.963397,0,0,-9.9626,140.34978,112.316)"/>
<path transform="matrix(1.00008,0,0,-1,86.14244,96.706)" stroke-width=".3985" stroke-linecap="butt" stroke-miterlimit="10" stroke-linejoin="miter" fill="none" stroke="#000000" d="M-28.34679 5.6697V-5.6697"/>
<use data-text="&#x2212;" xlink:href="#font_4_1" transform="matrix(9.963397,0,0,-9.9626,50.73761,114.312007)"/>
<use data-text="1" xlink:href="#font_2_1" transform="matrix(6.974358,0,0,-6.9738,59.682329,110.39001)"/>
<path transform="matrix(1.00008,0,0,-1,-117.41083,30.606)" stroke-width=".3985" stroke-linecap="butt" stroke-miterlimit="10" stroke-linejoin="miter" fill="none" stroke="#000000" d="M177.079-81.216H181.051"/>
<use data-text="2" xlink:href="#font_2_2" transform="matrix(6.974358,0,0,-6.9738,59.682329,117.748)"/>
<path transform="matrix(1.00008,0,0,-1,86.14244,96.706)" stroke-width=".3985" stroke-linecap="butt" stroke-miterlimit="10" stroke-linejoin="miter" fill="none" stroke="#000000" d="M-56.69362 5.6697V-5.6697"/>
<use data-text="&#x2212;" xlink:href="#font_4_1" transform="matrix(9.963397,0,0,-9.9626,23.0784,112.316)"/>
<use data-text="1" xlink:href="#font_3_1" transform="matrix(9.963397,0,0,-9.9626,30.828019,112.316)"/>
<path transform="matrix(1.00008,0,0,-1,86.14244,96.706)" stroke-width=".3985" stroke-linecap="butt" stroke-miterlimit="10" stroke-linejoin="miter" fill="none" stroke="#000000" d="M-5.6697-56.69362H5.6697"/>
<use data-text="-" xlink:href="#font_5_64" transform="matrix(9.963397,0,0,-9.9626,95.333179,156.71701)"/>
<use data-text="1" xlink:href="#font_5_82" transform="matrix(9.963397,0,0,-9.9626,98.651,156.71701)"/>
<path transform="matrix(1.00008,0,0,-1,86.14244,96.706)" stroke-width=".3985" stroke-linecap="butt" stroke-miterlimit="10" stroke-linejoin="miter" fill="none" stroke="#000000" d="M-5.6697 56.69362H5.6697"/>
<use data-text="1" xlink:href="#font_5_82" transform="matrix(9.963397,0,0,-9.9626,95.333179,43.33)"/>
</svg>
