<svg xmlns="http://www.w3.org/2000/svg" xmlns:xlink="http://www.w3.org/1999/xlink" xmlns:inkscape="http://www.inkscape.org/namespaces/inkscape" version="1.1" width="268" height="119" viewBox="0 0 268 119">
<defs>
<path id="font_1_2" d="M.33399964 .30233766C.33999635 .32835389 .36299134 .42037965 .43299867 .42037965 .43798829 .42037965 .46199037 .42037965 .48298646 .40734864 .45498658 .402359 .43499757 .37734986 .43499757 .35334779 .43499757 .33735658 .44599916 .31835938 .47299195 .31835938 .49499513 .31835938 .5269928 .3363495 .5269928 .37635804 .5269928 .42837525 .46798707 .4423828 .43399049 .4423828 .37599183 .4423828 .34098817 .38935853 .32899476 .36634828 .3039856 .43237306 .25 .4423828 .22099304 .4423828 .116989139 .4423828 .05999756 .3133545 .05999756 .28834535 .05999756 .27833558 .069992069 .27833558 .07199097 .27833558 .07998657 .27833558 .08299255 .28033448 .084991458 .28933717 .11898804 .39535523 .18499756 .42037965 .21899414 .42037965 .23799134 .42037965 .272995 .4113617 .272995 .35334779 .272995 .32235719 .2559967 .25532533 .21899414 .11528015 .20298767 .053268434 .16799927 .011245728 .12399292 .011245728 .117996219 .011245728 .09498596 .011245728 .07398987 .024276734 .09899902 .029266358 .12098694 .05027771 .12098694 .07827759 .12098694 .105270389 .09899902 .11328125 .083999637 .11328125 .053985597 .11328125 .0289917 .08728027 .0289917 .055267335 .0289917 .009246826 .07899475-.0107421879 .12298584-.0107421879 .18899536-.0107421879 .22499085 .059280397 .22799683 .0652771 .23999024 .028274537 .27598573-.0107421879 .33599855-.0107421879 .43899537-.0107421879 .49598695 .118270877 .49598695 .14328003 .49598695 .1532898 .4869995 .1532898 .48399354 .1532898 .47499085 .1532898 .47299195 .14929199 .47099305 .14228821 .43798829 .03527832 .36999513 .011245728 .33799745 .011245728 .29899598 .011245728 .2829895 .043273927 .2829895 .07727051 .2829895 .09927368 .2889862 .121276859 .2999878 .16529846L.33399964 .30233766Z"/>
<path id="font_1_3" d="M.48599244 .38136292C.48999024 .39537049 .48999024 .39736939 .48999024 .40437318 .48999024 .42237855 .47599793 .43138124 .46099855 .43138124 .45098878 .43138124 .43499757 .42536927 .42599488 .41036988 .42399598 .405365 .41600038 .37435914 .4119873 .35635377 .40499879 .33035279 .397995 .30334474 .3919983 .27633668L.34700013 .09628296C.34298707 .08126831 .2999878 .011245728 .23399353 .011245728 .18299866 .011245728 .17199707 .055267335 .17199707 .0922699 .17199707 .1382904 .18899536 .20030213 .22299195 .28833009 .23899842 .3293457 .24299622 .3403473 .24299622 .36035157 .24299622 .405365 .21099854 .4423828 .16099549 .4423828 .06599426 .4423828 .0289917 .29733277 .0289917 .28833009 .0289917 .27833558 .038986207 .27833558 .040985109 .27833558 .050994874 .27833558 .051986696 .28033448 .056991579 .29634095 .083999637 .3903656 .12399292 .42037965 .1579895 .42037965 .1659851 .42037965 .18299866 .42037965 .18299866 .3883667 .18299866 .36335755 .17298889 .3373413 .1659851 .31834413 .12599182 .21231079 .10798645 .1552887 .10798645 .10827637 .10798645 .019256592 .17098999-.0107421879 .22999573-.0107421879 .2689972-.0107421879 .30299378 .0062561037 .33099366 .03425598 .31799317-.017745972 .30599977-.06674194 .2659912-.11973572 .23999024-.15385437 .20199585-.18309021 .1559906-.18309021 .14199829-.18309021 .09700012-.18005371 .07998657-.14074707 .09599304-.14074707 .10899353-.14074707 .12298584-.1287384 .1329956-.11973572 .14299011-.10673523 .14299011-.08773804 .14299011-.056747438 .115997318-.052734376 .10598755-.052734376 .08299255-.052734376 .049987794-.068740848 .049987794-.11773682 .049987794-.16796875 .09399414-.20507813 .1559906-.20507813 .25898744-.20507813 .3619995-.11373901 .3899994-.00074768069L.48599244 .38136292Z"/>
<path id="font_1_1" d="M.2649994 .37265016H.37799073C.34498597 .22489929 .33599855 .18196106 .33599855 .11508179 .33599855 .100097659 .33599855 .073150638 .34399415 .03919983 .35398866-.0047454836 .36499024-.0107421879 .37998963-.0107421879 .3999939-.0107421879 .42099 .007247925 .42099 .02722168 .42099 .033218385 .42099 .035202028 .4149933 .049179079 .38598634 .12106323 .38598634 .18595886 .38598634 .21391297 .38598634 .26683045 .3929901 .32073976 .4039917 .37265016H.5179901C.5309906 .37265016 .5669861 .37265016 .5669861 .406662 .5669861 .43066407 .54599 .43066407 .5269928 .43066407H.19198609C.16999817 .43066407 .13198853 .43066407 .08799744 .38365174 .052993776 .34469605 .026992798 .29878236 .026992798 .29379273 .026992798 .29278565 .026992798 .28379823 .038986207 .28379823 .04699707 .28379823 .04899597 .28779603 .054992677 .29577638 .10398865 .37265016 .1619873 .37265016 .18199158 .37265016H.23899842C.20698548 .25186158 .15299988 .13105774 .11099243 .04020691 .102996829 .025222779 .102996829 .023223877 .102996829 .016235352 .102996829-.002746582 .11898804-.0107421879 .13198853-.0107421879 .1619873-.0107421879 .16999817 .017242432 .18199158 .05418396 .19599915 .100097659 .19599915 .10209656 .20899964 .15202332L.2649994 .37265016Z"/>
<path id="font_2_1" d="M.1269989 .07699585 .23298645 .18003845C.3889923 .31811524 .44898988 .3721466 .44898988 .47216798 .44898988 .5860901 .35899354 .6660156 .23699951 .6660156 .12399292 .6660156 .049987794 .57411196 .049987794 .48516847 .049987794 .4291687 .099990848 .4291687 .102996829 .4291687 .11999512 .4291687 .15499878 .44117738 .15499878 .48217774 .15499878 .5081787 .13699341 .5341797 .101989749 .5341797 .09399414 .5341797 .09199524 .5341797 .08898926 .5331726 .11199951 .59806826 .1659851 .63500979 .22399903 .63500979 .31498719 .63500979 .35798646 .5541382 .35798646 .47216798 .35798646 .39215089 .30799867 .31311036 .25299073 .25108338L.06098938 .036987306C.049987794 .025985718 .049987794 .023986817 .049987794 0H.42099L.44898988 .17404175H.42399598C.4189911 .14402771 .4119873 .1000061 .4019928 .084991458 .394989 .07699585 .32899476 .07699585 .30699159 .07699585H.1269989Z"/>
<path id="font_2_2" d="M.2899933 .35191346C.37199403 .37893678 .42999269 .4490509 .42999269 .52809146 .42999269 .6100464 .34199525 .6660156 .24598694 .6660156 .14498902 .6660156 .068984989 .60606387 .068984989 .53009036 .068984989 .49710084 .09098816 .47808839 .11999512 .47808839 .15098572 .47808839 .17098999 .50009158 .17098999 .5290985 .17098999 .57910159 .12399292 .57910159 .10899353 .57910159 .13999939 .62802127 .20599365 .64100649 .24198914 .64100649 .2829895 .64100649 .33799745 .6190338 .33799745 .5290985 .33799745 .51708987 .33599855 .45906068 .30999757 .4149933 .27999879 .36691285 .24598694 .36390687 .22099304 .36291505 .21299744 .36190797 .18899536 .35990907 .18199158 .35990907 .17399597 .35890199 .16699219 .35791017 .16699219 .3479004 .16699219 .33691407 .17399597 .33691407 .19099427 .33691407H.23498535C.31698609 .33691407 .35398866 .2686615 .35398866 .17037964 .35398866 .034469606 .2849884 .0055389406 .24099732 .0055389406 .19799805 .0055389406 .12298584 .022491456 .08799744 .08137512 .12298584 .07637024 .1539917 .09837341 .1539917 .1363678 .1539917 .17237854 .1269989 .19238281 .09799194 .19238281 .07398987 .19238281 .041992189 .17837525 .041992189 .1343689 .041992189 .043441774 .1349945-.022460938 .24398804-.022460938 .3659973-.022460938 .45700074 .06838989 .45700074 .17037964 .45700074 .252594 .3939972 .33088685 .2899933 .35191346Z"/>
<path id="font_3_1" d="M.6589966 .23046875C.6759949 .23046875 .69400027 .23046875 .69400027 .25045777 .69400027 .27046205 .6759949 .27046205 .6589966 .27046205H.117996219C.100997928 .27046205 .08299255 .27046205 .08299255 .25045777 .08299255 .23046875 .100997928 .23046875 .117996219 .23046875H.6589966Z"/>
<path id="font_4_64" d="M.27598573 .18710327V.24511719H.010986328V.18710327H.27598573Z"/>
<path id="font_4_82" d="M.4189911 0V.0309906H.3869934C.29699708 .0309906 .2939911 .041992189 .2939911 .07902527V.64012148C.2939911 .6640167 .2939911 .6660156 .2709961 .6660156 .20899964 .60227969 .12098694 .60227969 .08898926 .60227969V.57128909C.10899353 .57128909 .16799927 .57128909 .21998596 .5972748V.07902527C.21998596 .042999269 .21699524 .0309906 .1269989 .0309906H.09498596V0C.12998963 .0029907227 .21699524 .0029907227 .25698854 .0029907227 .29699708 .0029907227 .38398744 .0029907227 .4189911 0Z"/>
</defs>
<path transform="matrix(1.00009,0,0,-1.00005,129.83342,64.81959)" stroke-width=".3985" stroke-linecap="butt" stroke-miterlimit="10" stroke-linejoin="miter" fill="none" stroke="#000000" d="M-127.55977 0H127.16125"/>
<path transform="matrix(1.00009,0,0,-1.00005,257.20539,64.81959)" stroke-width=".3985" stroke-linecap="round" stroke-linejoin="round" fill="none" stroke="#000000" d="M-2.07224 2.39104C-1.69365 .95639-.84999 .27895 0 0-.84999-.27895-1.69365-.95639-2.07224-2.39104"/>
<use data-text="x" xlink:href="#font_1_2" transform="matrix(9.963496,0,0,-9.963098,260.92524,61.29941)"/>
<path transform="matrix(1.00009,0,0,-1.00005,129.83342,64.81959)" stroke-width=".3985" stroke-linecap="butt" stroke-miterlimit="10" stroke-linejoin="miter" fill="none" stroke="#000000" d="M0-53.15024V52.75174"/>
<path transform="matrix(0,-1.00005,-1.00009,-0,129.83342,11.865955)" stroke-width=".3985" stroke-linecap="round" stroke-linejoin="round" fill="none" stroke="#000000" d="M-2.07224 2.39104C-1.69365 .95639-.84999 .27895 0 0-.84999-.27895-1.69365-.95639-2.07224-2.39104"/>
<use data-text="y" xlink:href="#font_1_3" transform="matrix(9.963496,0,0,-9.963098,133.35373,6.2096636)"/>
<path transform="matrix(1.00009,0,0,-1.00005,129.83342,64.81959)" stroke-width=".3985" stroke-linecap="butt" stroke-miterlimit="10" stroke-linejoin="miter" fill="none" stroke="#000000" d="M40.07399 4.25226V-4.25226"/>
<use data-text="&#x03c0;" xlink:href="#font_1_1" transform="matrix(9.963496,0,0,-9.963098,166.89276,76.88219)"/>
<path transform="matrix(1.00009,0,0,-1.00005,129.83342,64.81959)" stroke-width=".3985" stroke-linecap="butt" stroke-miterlimit="10" stroke-linejoin="miter" fill="none" stroke="#000000" d="M80.148 4.25226V-4.25226"/>
<use data-text="2" xlink:href="#font_2_1" transform="matrix(9.963496,0,0,-9.963098,204.47914,79.0133)"/>
<use data-text="&#x03c0;" xlink:href="#font_1_1" transform="matrix(9.963496,0,0,-9.963098,209.46059,79.0133)"/>
<path transform="matrix(1.00009,0,0,-1.00005,129.83342,64.81959)" stroke-width=".3985" stroke-linecap="butt" stroke-miterlimit="10" stroke-linejoin="miter" fill="none" stroke="#000000" d="M120.222 4.25226V-4.25226"/>
<use data-text="3" xlink:href="#font_2_2" transform="matrix(9.963496,0,0,-9.963098,244.55673,79.0133)"/>
<use data-text="&#x03c0;" xlink:href="#font_1_1" transform="matrix(9.963496,0,0,-9.963098,249.53818,79.0133)"/>
<path transform="matrix(1.00009,0,0,-1.00005,129.83342,64.81959)" stroke-width=".3985" stroke-linecap="butt" stroke-miterlimit="10" stroke-linejoin="miter" fill="none" stroke="#000000" d="M-40.07399 4.25226V-4.25226"/>
<use data-text="&#x2212;" xlink:href="#font_3_1" transform="matrix(9.963496,0,0,-9.963098,82.8622,78.40427)"/>
<use data-text="&#x03c0;" xlink:href="#font_1_1" transform="matrix(9.963496,0,0,-9.963098,90.61189,78.40427)"/>
<path transform="matrix(1.00009,0,0,-1.00005,129.83342,64.81959)" stroke-width=".3985" stroke-linecap="butt" stroke-miterlimit="10" stroke-linejoin="miter" fill="none" stroke="#000000" d="M-80.148 4.25226V-4.25226"/>
<use data-text="&#x2212;" xlink:href="#font_3_1" transform="matrix(9.963496,0,0,-9.963098,40.294374,79.0133)"/>
<use data-text="2" xlink:href="#font_2_1" transform="matrix(9.963496,0,0,-9.963098,48.044069,79.0133)"/>
<use data-text="&#x03c0;" xlink:href="#font_1_1" transform="matrix(9.963496,0,0,-9.963098,53.025514,79.0133)"/>
<path transform="matrix(1.00009,0,0,-1.00005,129.83342,64.81959)" stroke-width=".3985" stroke-linecap="butt" stroke-miterlimit="10" stroke-linejoin="miter" fill="none" stroke="#000000" d="M-120.222 4.25226V-4.25226"/>
<use data-text="&#x2212;" xlink:href="#font_3_1" transform="matrix(9.963496,0,0,-9.963098,.21676636,79.0133)"/>
<use data-text="3" xlink:href="#font_2_2" transform="matrix(9.963496,0,0,-9.963098,7.966461,79.0133)"/>
<use data-text="&#x03c0;" xlink:href="#font_1_1" transform="matrix(9.963496,0,0,-9.963098,12.9479069,79.0133)"/>
<path transform="matrix(1.00009,0,0,-1.00005,129.83342,64.81959)" stroke-width=".3985" stroke-linecap="butt" stroke-miterlimit="10" stroke-linejoin="miter" fill="none" stroke="#000000" d="M1.27565-42.5202H-1.27565"/>
<use data-text="-" xlink:href="#font_4_64" transform="matrix(9.963496,0,0,-9.963098,116.73824,110.65988)"/>
<use data-text="1" xlink:href="#font_4_82" transform="matrix(9.963496,0,0,-9.963098,120.0561,110.65988)"/>
<path transform="matrix(1.00009,0,0,-1.00005,129.83342,64.81959)" stroke-width=".3985" stroke-linecap="butt" stroke-miterlimit="10" stroke-linejoin="miter" fill="none" stroke="#000000" d="M1.27565 42.5202H-1.27565"/>
<use data-text="1" xlink:href="#font_4_82" transform="matrix(9.963496,0,0,-9.963098,120.05554,25.614632)"/>
<path transform="matrix(1.00009,0,0,-1.00005,129.83342,64.81959)" stroke-width=".3985" stroke-linecap="butt" stroke-miterlimit="10" stroke-linejoin="miter" fill="none" stroke="#000000" d="M-80.148 42.5202H-40.07399"/>
<path transform="matrix(1.00009,0,0,-1.00005,129.83342,64.81959)" stroke-width=".3985" stroke-linecap="butt" stroke-miterlimit="10" stroke-linejoin="miter" fill="none" stroke="#000000" d="M-120.222-42.5202H-80.148"/>
<path transform="matrix(1.00009,0,0,-1.00005,129.83342,64.81959)" stroke-width=".3985" stroke-linecap="butt" stroke-miterlimit="10" stroke-linejoin="miter" fill="none" stroke="#000000" d="M0 42.5202H40.07399"/>
<path transform="matrix(1.00009,0,0,-1.00005,129.83342,64.81959)" stroke-width=".3985" stroke-linecap="butt" stroke-miterlimit="10" stroke-linejoin="miter" fill="none" stroke="#000000" d="M-40.07399-42.5202H0"/>
<path transform="matrix(1.00009,0,0,-1.00005,129.83342,64.81959)" stroke-width=".3985" stroke-linecap="butt" stroke-miterlimit="10" stroke-linejoin="miter" fill="none" stroke="#000000" d="M80.148 42.5202H120.222"/>
<path transform="matrix(1.00009,0,0,-1.00005,129.83342,64.81959)" stroke-width=".3985" stroke-linecap="butt" stroke-miterlimit="10" stroke-linejoin="miter" fill="none" stroke="#000000" d="M40.07399-42.5202H80.148"/>
<path transform="matrix(1.00009,0,0,-1.00005,129.83342,64.81959)" stroke-width=".3985" stroke-linecap="butt" stroke-miterlimit="10" stroke-linejoin="miter" fill="none" stroke="#ff0000" d="M-127.55977 42.23538-126.53926 42.10756-125.51875 43.05156-124.49825 42.91985-123.47775 41.5165-122.45744 42.23083-121.43695 45.3263-120.41644 36.25726-119.39594-38.46385-118.37544-43.02171-117.35495-43.61278-116.33444-42.01024-115.31393-41.9927-114.29364-42.99641-113.27313-42.77972-112.25262-42.08679-111.23212-42.43066-110.21162-42.903-109.19112-42.49489-108.17061-42.19255-107.15012-42.63504-106.1298-42.7836-105.10931-42.34177-104.0888-42.3249-103.06831-42.74535-102.0478-42.64348-101.02731-42.26065-100.0068-42.47348-98.9863-42.79204-97.9658-42.48645-96.94548-42.25224-95.92499-42.63504-94.90448-42.77129-93.88399-42.32036-92.86348-42.30739-91.84299-42.80956-90.82248-42.66876-89.80199-42.14194-88.78168-42.46504-87.76117-43.00096-86.74068-42.42676-85.72018-41.91226-84.69968-42.87314-83.67915-43.31952-82.65866-41.54243-81.63815-41.21481-80.61784-49.0303-79.59735 45.8369-78.57684 40.45375-77.55635 42.32036-76.53586 43.48561-75.51535 42.39691-74.49484 41.9207-73.47435 42.76285-72.45386 42.91144-71.43353 42.2224-70.41304 42.27753-69.39253 42.83487-68.37202 42.64348-67.35152 42.20552-66.33102 42.4988-65.31053 42.81345-64.29002 42.4566-63.26971 42.26065-62.24922 42.65645-61.22871 42.733-60.20822 42.3249-59.18771 42.36317-58.16722 42.76285-57.14671 42.60973-56.12622 42.23926-55.1059 42.51176-54.08539 42.82188-53.0649 42.4352-52.04439 42.21396-51.0239 42.7116-50.00339 42.81345-48.9829 42.20099-47.96239 42.26909-46.9419 43.00096-45.92159 42.68173-44.9011 41.79288-43.88058 42.55394-42.86008 43.7406-41.83957 41.82274-40.81906 38.8207-39.79857-45.26723-38.77806-44.63335-37.75777-41.42307-36.73726-41.946-35.71675-43.25595-34.69626-42.69861-33.67575-41.96288-32.65526-42.53319-31.63475-42.9536-30.61426-42.39236-29.59395-42.18864-28.57346-42.72003-27.55293-42.75375-26.53242-42.27364-25.51193-42.37552-24.49144-42.78813-23.47093-42.57988-22.45042-42.2438-21.42993-42.5416-20.40962-42.7836-19.38913-42.42223-18.36862-42.28207-17.34813-42.69017-16.32762-42.71548-15.30713-42.28207-14.28662-42.38393-13.2661-42.818-12.2458-42.57533-11.2253-42.16724-10.2048-42.5669-9.1843-42.91531-8.1638-42.33723-7.1433-42.09068-6.12279-42.903-5.1023-42.9711-4.08199-41.78899-3.0615-42.08224-2.04099-44.16557-1.0205-42.61363 0 0 1.0205 42.61363 2.04099 44.16557 3.0615 42.08224 4.08199 41.78899 5.1023 42.9711 6.12279 42.903 7.1433 42.09068 8.1638 42.33723 9.1843 42.91531 10.2048 42.5669 11.2253 42.16724 12.2458 42.57533 13.2661 42.818 14.28662 42.38393 15.30713 42.28207 16.32762 42.71548 17.34813 42.69017 18.36862 42.28207 19.38913 42.42223 20.40962 42.7836 21.42993 42.5416 22.45042 42.2438 23.47093 42.57988 24.49144 42.78813 25.51193 42.37552 26.53242 42.27364 27.55293 42.75375 28.57346 42.72003 29.59395 42.18864 30.61426 42.39236 31.63475 42.9536 32.65526 42.53319 33.67575 41.96288 34.69626 42.69861 35.71675 43.25595 36.73726 41.946 37.75777 41.42307 38.77806 44.63335 39.79857 45.26723 40.81906-38.8207 41.83957-41.82274 42.86008-43.7406 43.88058-42.55394 44.9011-41.79288 45.92159-42.68173 46.9419-43.00096 47.96239-42.26909 48.9829-42.20099 50.00339-42.81345 51.0239-42.7116 52.04439-42.21396 53.0649-42.4352 54.08539-42.82188 55.1059-42.51176 56.12622-42.23926 57.14671-42.60973 58.16722-42.76285 59.18771-42.36317 60.20822-42.3249 61.22871-42.733 62.24922-42.65645 63.26971-42.26065 64.29002-42.4566 65.31053-42.81345 66.33102-42.4988 67.35152-42.20552 68.37202-42.64348 69.39253-42.83487 70.41304-42.27753 71.43353-42.2224 72.45386-42.91144 73.47435-42.76285 74.49484-41.9207 75.51535-42.39691 76.53586-43.48561 77.55635-42.32036 78.57684-40.45375 79.59735-45.8369 80.61784 49.0303 81.63815 41.21481 82.65866 41.54243 83.67915 43.31952 84.69968 42.87314 85.72018 41.91226 86.74068 42.42676 87.76117 43.00096 88.78168 42.46504 89.80199 42.14194 90.82248 42.66876 91.84299 42.80956 92.86348 42.30739 93.88399 42.32036 94.90448 42.77129 95.92499 42.63504 96.94548 42.25224 97.9658 42.48645 98.9863 42.79204 100.0068 42.47348 101.02731 42.26065 102.0478 42.64348 103.06831 42.74535 104.0888 42.3249 105.10931 42.34177 106.1298 42.7836 107.15012 42.63504 108.17061 42.19255 109.19112 42.49489 110.21162 42.903 111.23212 42.43066 112.25262 42.08679 113.27313 42.77972 114.29364 42.99641 115.31393 41.9927 116.33444 42.01024 117.35495 43.61278 118.37544 43.02171 119.39594 38.46385 120.41644-36.25726 121.43695-45.3263 122.45744-42.23083 123.47775-41.5165 124.49825-42.91985 125.51875-43.05156 126.53926-42.10756 127.55977-42.23538"/>
</svg>
