<svg xmlns="http://www.w3.org/2000/svg" xmlns:xlink="http://www.w3.org/1999/xlink" xmlns:inkscape="http://www.inkscape.org/namespaces/inkscape" version="1.1" width="198" height="159" viewBox="0 0 198 159">
<defs>
<path id="font_1_7" d="M.33399964 .30233766C.33999635 .32835389 .36299134 .42037965 .43299867 .42037965 .43798829 .42037965 .46199037 .42037965 .48298646 .40734864 .45498658 .402359 .43499757 .37734986 .43499757 .35334779 .43499757 .33735658 .44599916 .31835938 .47299195 .31835938 .49499513 .31835938 .5269928 .3363495 .5269928 .37635804 .5269928 .42837525 .46798707 .4423828 .43399049 .4423828 .37599183 .4423828 .34098817 .38935853 .32899476 .36634828 .3039856 .43237306 .25 .4423828 .22099304 .4423828 .116989139 .4423828 .05999756 .3133545 .05999756 .28834535 .05999756 .27833558 .069992069 .27833558 .07199097 .27833558 .07998657 .27833558 .08299255 .28033448 .084991458 .28933717 .11898804 .39535523 .18499756 .42037965 .21899414 .42037965 .23799134 .42037965 .272995 .4113617 .272995 .35334779 .272995 .32235719 .2559967 .25532533 .21899414 .11528015 .20298767 .053268434 .16799927 .011245728 .12399292 .011245728 .117996219 .011245728 .09498596 .011245728 .07398987 .024276734 .09899902 .029266358 .12098694 .05027771 .12098694 .07827759 .12098694 .105270389 .09899902 .11328125 .083999637 .11328125 .053985597 .11328125 .0289917 .08728027 .0289917 .055267335 .0289917 .009246826 .07899475-.0107421879 .12298584-.0107421879 .18899536-.0107421879 .22499085 .059280397 .22799683 .0652771 .23999024 .028274537 .27598573-.0107421879 .33599855-.0107421879 .43899537-.0107421879 .49598695 .118270877 .49598695 .14328003 .49598695 .1532898 .4869995 .1532898 .48399354 .1532898 .47499085 .1532898 .47299195 .14929199 .47099305 .14228821 .43798829 .03527832 .36999513 .011245728 .33799745 .011245728 .29899598 .011245728 .2829895 .043273927 .2829895 .07727051 .2829895 .09927368 .2889862 .121276859 .2999878 .16529846L.33399964 .30233766Z"/>
<path id="font_2_2" d="M.5049896 .18203736H.47099305C.46798707 .16001892 .45799256 .100997928 .44499208 .09098816 .43699647 .084991458 .3600006 .084991458 .34599305 .084991458H.1619873C.2669983 .17803955 .3019867 .20603943 .3619995 .25306703 .43598939 .312088 .5049896 .374115 .5049896 .46914674 .5049896 .5900879 .39898683 .6640625 .2709961 .6640625 .14698792 .6640625 .06298828 .57710269 .06298828 .4851532 .06298828 .43414308 .10598755 .42915345 .115997318 .42915345 .13999939 .42915345 .16899109 .44615174 .16899109 .48214723 .16899109 .5001526 .1619873 .53515627 .10998535 .53515627 .14099121 .6060791 .20899964 .62805178 .2559967 .62805178 .35598756 .62805178 .4079895 .5501404 .4079895 .46914674 .4079895 .38212586 .34599305 .3130951 .31399537 .27708436L.07299805 .038986207C.06298828 .02999878 .06298828 .027999878 .06298828 0H.47499085L.5049896 .18203736Z"/>
<path id="font_2_1" d="M.33499146 .63612368C.33499146 .6630554 .33299256 .6640625 .30499269 .6640625 .24099732 .6014404 .1499939 .6004486 .10899353 .6004486V.5644531C.1329956 .5644531 .19898987 .5644531 .2539978 .592453V.08203125C.2539978 .04899597 .2539978 .035995485 .1539917 .035995485H.115997318V0C.13398743 .0009918213 .25698854 .0039978029 .2939911 .0039978029 .32499696 .0039978029 .45098878 .0009918213 .47299195 0V.035995485H.43499757C.33499146 .035995485 .33499146 .04899597 .33499146 .08203125V.63612368Z"/>
<path id="font_1_8" d="M.48599244 .38136292C.48999024 .39537049 .48999024 .39736939 .48999024 .40437318 .48999024 .42237855 .47599793 .43138124 .46099855 .43138124 .45098878 .43138124 .43499757 .42536927 .42599488 .41036988 .42399598 .405365 .41600038 .37435914 .4119873 .35635377 .40499879 .33035279 .397995 .30334474 .3919983 .27633668L.34700013 .09628296C.34298707 .08126831 .2999878 .011245728 .23399353 .011245728 .18299866 .011245728 .17199707 .055267335 .17199707 .0922699 .17199707 .1382904 .18899536 .20030213 .22299195 .28833009 .23899842 .3293457 .24299622 .3403473 .24299622 .36035157 .24299622 .405365 .21099854 .4423828 .16099549 .4423828 .06599426 .4423828 .0289917 .29733277 .0289917 .28833009 .0289917 .27833558 .038986207 .27833558 .040985109 .27833558 .050994874 .27833558 .051986696 .28033448 .056991579 .29634095 .083999637 .3903656 .12399292 .42037965 .1579895 .42037965 .1659851 .42037965 .18299866 .42037965 .18299866 .3883667 .18299866 .36335755 .17298889 .3373413 .1659851 .31834413 .12599182 .21231079 .10798645 .1552887 .10798645 .10827637 .10798645 .019256592 .17098999-.0107421879 .22999573-.0107421879 .2689972-.0107421879 .30299378 .0062561037 .33099366 .03425598 .31799317-.017745972 .30599977-.06674194 .2659912-.11973572 .23999024-.15385437 .20199585-.18309021 .1559906-.18309021 .14199829-.18309021 .09700012-.18005371 .07998657-.14074707 .09599304-.14074707 .10899353-.14074707 .12298584-.1287384 .1329956-.11973572 .14299011-.10673523 .14299011-.08773804 .14299011-.056747438 .115997318-.052734376 .10598755-.052734376 .08299255-.052734376 .049987794-.068740848 .049987794-.11773682 .049987794-.16796875 .09399414-.20507813 .1559906-.20507813 .25898744-.20507813 .3619995-.11373901 .3899994-.00074768069L.48599244 .38136292Z"/>
<path id="font_1_3" d="M.7599945 .69506838C.7599945 .69807437 .7579956 .7050781 .7489929 .7050781 .74598696 .7050781 .7449951 .70407107 .73399356 .69306948L.6639862 .61602786C.6549988 .6300354 .60899356 .7050781 .49798585 .7050781 .2749939 .7050781 .049987794 .48391725 .049987794 .25172425 .049987794 .08659363 .16799927-.022460938 .32099916-.022460938 .4079895-.022460938 .48399354 .017532349 .5369873 .063583377 .6299896 .14564514 .6469879 .2367096 .6469879 .23971558 .6469879 .24972534 .6369934 .24972534 .6349945 .24972534 .6289978 .24972534 .6239929 .24772644 .621994 .23971558 .61299136 .21069336 .58999636 .13963318 .5209961 .081588748 .45199586 .025543213 .3889923 .008529663 .33699037 .008529663 .24699402 .008529663 .14099121 .060577394 .14099121 .21670532 .14099121 .27374269 .1619873 .43588258 .2619934 .55296328 .32299806 .62402346 .4169922 .67407229 .5059967 .67407229 .60798647 .67407229 .6669922 .5970001 .6669922 .48091126 .6669922 .44088746 .6639862 .43988038 .6639862 .4298706 .6639862 .41986085 .6749878 .41986085 .67900088 .41986085 .69200137 .41986085 .69200137 .42185975 .69699099 .43988038L.7599945 .69506838Z"/>
<path id="font_1_1" d="M.1789856 .114868167C.13899231 .047973634 .099990848 .033981325 .055999757 .0309906 .04399109 .02999878 .034988405 .02999878 .034988405 .010986328 .034988405 .004989624 .039993287 0 .04798889 0 .07499695 0 .10598755 .0029907227 .13398743 .0029907227 .16699219 .0029907227 .20199585 0 .23399353 0 .23999024 0 .25299073 0 .25299073 .018997193 .25299073 .02999878 .24398804 .0309906 .23699951 .0309906 .21398926 .032989503 .18998719 .04096985 .18998719 .06593323 .18998719 .077926639 .19599915 .088897708 .20399475 .102890018L.27999879 .23068238H.5309906C.5329895 .2097168 .5469971 .07392883 .5469971 .063949588 .5469971 .033981325 .49499513 .0309906 .47499085 .0309906 .46099855 .0309906 .45098878 .0309906 .45098878 .010986328 .45098878 0 .46299745 0 .46499635 0 .5059967 0 .548996 .0029907227 .58999636 .0029907227 .61499026 .0029907227 .6779938 0 .7029877 0 .70899966 0 .72099307 0 .72099307 .019989014 .72099307 .0309906 .71099856 .0309906 .69799807 .0309906 .6359863 .0309906 .6359863 .037979127 .6329956 .06694031L.57199099 .691803C.56999209 .71180728 .56999209 .7158203 .5529938 .7158203 .5369873 .7158203 .5329895 .7088165 .5269928 .69880679L.1789856 .114868167M.29899598 .26168824 .49598695 .5917816 .5279999 .26168824H.29899598Z"/>
<path id="font_1_2" d="M.1599884 .07795715C.1499939 .038986207 .147995 .0309906 .068984989 .0309906 .051986696 .0309906 .041992189 .0309906 .041992189 .010986328 .041992189 0 .050994874 0 .068984989 0H.42599488C.58399966 0 .70199587 .11791992 .70199587 .21585083 .70199587 .28778077 .6439972 .3457489 .5469971 .35673524 .651001 .37573243 .7559967 .44970704 .7559967 .5446625 .7559967 .6186218 .6899872 .6826172 .56999209 .6826172H.23399353C.21499634 .6826172 .20498657 .6826172 .20498657 .6626129 .20498657 .6516113 .21398926 .6516113 .23298645 .6516113 .23498535 .6516113 .2539978 .6516113 .2709961 .6496124 .2889862 .6476135 .2979889 .64660647 .2979889 .6336212 .2979889 .6296234 .29699708 .62661746 .2939911 .614624L.1599884 .07795715M.31098939 .36573792 .37298585 .6136322C.38198854 .64860537 .38398744 .6516113 .4269867 .6516113H.55599978C.6439972 .6516113 .6649933 .5926361 .6649933 .5486603 .6649933 .46069337 .57899478 .36573792 .45700074 .36573792H.31098939M.2659912 .0309906C.2519989 .0309906 .25 .0309906 .24398804 .03199768 .23399353 .032989503 .23098755 .033996583 .23098755 .04197693 .23098755 .04498291 .23098755 .04698181 .23599243 .064971927L.30499269 .34375H.49398805C.58999636 .34375 .60899356 .2698059 .60899356 .22683716 .60899356 .12791443 .519989 .0309906 .4019928 .0309906H.2659912Z"/>
<path id="font_1_5" d="M.70799258 .23292542C.70999148 .23791504 .71299746 .24491883 .71299746 .24691773 .71299746 .24790955 .71299746 .2579193 .70098879 .2579193 .69200137 .2579193 .6899872 .25190736 .6879883 .24591065 .6230011 .097961429 .58599856 .0309906 .4149933 .0309906H.2689972C.25498963 .0309906 .25299073 .0309906 .24699402 .03199768 .23699951 .032989503 .23399353 .033996583 .23399353 .041992189 .23399353 .04498291 .23399353 .04698181 .23899842 .06498718L.30699159 .33789063H.4059906C.4909973 .33789063 .4909973 .31689454 .4909973 .29190064 .4909973 .28489686 .4909973 .27290345 .48399354 .24291992 .48199464 .23791504 .48098756 .23492432 .48098756 .23191834 .48098756 .22692871 .4850006 .220932 .49398805 .220932 .5019989 .220932 .5049896 .22592163 .5089874 .24092102L.56599429 .47477723C.56599429 .48077394 .5609894 .48576356 .55400088 .48576356 .54499819 .48576356 .54299929 .47976686 .5399933 .4677887 .5189972 .39186097 .5009918 .36888124 .40899659 .36888124H.31498719L.375 .60964968C.38398744 .64460757 .3849945 .64860537 .42900086 .64860537H.56999209C.69200137 .64860537 .7220001 .61964419 .7220001 .5377197 .7220001 .51374819 .7220001 .51174929 .71798709 .48477174 .71798709 .47877503 .71699526 .4717865 .71699526 .46678163 .71699526 .461792 .7200012 .45480348 .72898867 .45480348 .73999026 .45480348 .7409973 .46080018 .7429962 .47976686L.7630005 .65260317C.7659912 .6796112 .7609863 .6796112 .73599246 .6796112H.23098755C.21099854 .6796112 .20098877 .6796112 .20098877 .65960696 .20098877 .64860537 .20999146 .64860537 .22898865 .64860537 .2659912 .64860537 .2939911 .64860537 .2939911 .6306305 .2939911 .6266327 .2939911 .6246338 .2889862 .6066437L.15699768 .07797241C.14698792 .038986207 .14498902 .0309906 .06599426 .0309906 .04899597 .0309906 .037994386 .0309906 .037994386 .011993408 .037994386 0 .04699707 0 .06599426 0H.58499148C.60798647 0 .60899356 .0009918213 .6159973 .016998291L.70799258 .23292542Z"/>
<path id="font_1_6" d="M.30299378 .3244629H.3999939C.47499085 .3244629 .48298646 .30848695 .48298646 .27954103 .48298646 .2725525 .48298646 .26057435 .47599793 .2306366 .47399903 .22564698 .47299195 .22164917 .47299195 .21965027 .47299195 .21166992 .47898866 .20767212 .4850006 .20767212 .49499513 .20767212 .49499513 .21066284 .5 .2286377L.5549927 .44551087C.55799868 .45651246 .55799868 .45851136 .55799868 .46151734 .55799868 .46351625 .55599978 .47251893 .54599 .47251893 .5359955 .47251893 .5349884 .46751405 .5309906 .45150758 .5099945 .37347413 .4869995 .35546876 .4019928 .35546876H.31098939L.375 .6095886C.38398744 .64460757 .3849945 .64860537 .42900086 .64860537H.5609894C.6839905 .64860537 .70700076 .6156006 .70700076 .53855898 .70700076 .5155487 .70700076 .51153567 .70399478 .4845276 .70199587 .4715271 .70199587 .46951295 .70199587 .46652223 .70199587 .46151734 .7049866 .45451356 .71398928 .45451356 .72499087 .45451356 .7259979 .46051026 .7279968 .4795227L.7480011 .65260317C.7509918 .6796112 .74598696 .6796112 .72099307 .6796112H.23098755C.21099854 .6796112 .20098877 .6796112 .20098877 .65960696 .20098877 .64860537 .20999146 .64860537 .22898865 .64860537 .2659912 .64860537 .2939911 .64860537 .2939911 .6306 .2939911 .6266022 .2939911 .6246033 .2889862 .60658267L.15699768 .07791138C.14698792 .038970949 .14498902 .0309906 .06599426 .0309906 .04899597 .0309906 .037994386 .0309906 .037994386 .011993408 .037994386 0 .049987794 0 .052993776 0 .08198547 0 .1559906 .0029907227 .18499756 .0029907227 .21798706 .0029907227 .30099488 0 .33399964 0 .34298707 0 .35499574 0 .35499574 .018997193 .35499574 .026992798 .34899903 .0289917 .34899903 .02999878 .34599305 .0309906 .34399415 .0309906 .32099916 .0309906 .29899598 .0309906 .2939911 .0309906 .2689972 .032989503 .23999024 .035980226 .23699951 .039978029 .23699951 .052947999 .23699951 .0549469 .23699951 .060943605 .24099732 .075912479L.30299378 .3244629Z"/>
<path id="font_1_4" d="M.15899658 .07795715C.14898682 .038986207 .14698792 .0309906 .067993167 .0309906 .050994874 .0309906 .039993287 .0309906 .039993287 .011993408 .039993287 0 .04899597 0 .067993167 0H.39898683C.6069946 0 .80400088 .21087647 .80400088 .42974855 .80400088 .5706482 .71899417 .6826172 .56900027 .6826172H.23298645C.21398926 .6826172 .20298767 .6826172 .20298767 .66360476 .20298767 .6516113 .21199036 .6516113 .23199463 .6516113 .24499512 .6516113 .2630005 .65060427 .2749939 .6496124 .29100038 .6476135 .29699708 .64460757 .29699708 .6336212 .29699708 .6296234 .29599 .62661746 .29299928 .614624L.15899658 .07795715M.375 .6136322C.38398744 .64860537 .38598634 .6516113 .42900086 .6516113H.5359955C.6339874 .6516113 .71699526 .5986328 .71699526 .46672059 .71699526 .41775514 .69699099 .25386048 .6119995 .1439209 .58299258 .10694885 .5039978 .0309906 .3809967 .0309906H.2679901C.2539978 .0309906 .2519989 .0309906 .24598694 .03199768 .23599243 .032989503 .23298645 .033996583 .23298645 .041992189 .23298645 .04498291 .23298645 .04698181 .23799134 .064971927L.375 .6136322Z"/>
</defs>
<path transform="matrix(1.00006,0,0,-1.00006,17.635163,145.35076)" stroke-width=".3985" stroke-linecap="butt" stroke-miterlimit="10" stroke-linejoin="miter" fill="none" stroke="#000000" d="M0 0V141.73404H177.16754V0ZM177.16754 141.73404"/>
<path transform="matrix(1.00006,0,0,-1.00006,17.635163,145.35076)" stroke-width="1.19553" stroke-linecap="butt" stroke-miterlimit="10" stroke-linejoin="miter" fill="none" stroke="#000000" d="M0 0 140.57424 35.14357"/>
<path transform="matrix(.97019818,-.24252455,-.24252455,-.97019818,158.79776,110.0601)" stroke-width="1.19553" stroke-linecap="round" stroke-linejoin="round" fill="none" stroke="#000000" d="M-3.02867 3.83081C-2.47534 1.53229-1.24231 .44691 0 0-1.24231-.44691-2.47534-1.53229-3.02867-3.83081"/>
<path transform="matrix(1.00006,0,0,-1.00006,17.635163,145.35076)" stroke-width="1.19553" stroke-linecap="butt" stroke-miterlimit="10" stroke-linejoin="miter" fill="none" stroke="#000000" d="M0 0 35.05547 105.16643"/>
<path transform="matrix(.31622897,-.94869688,-.94869688,-.31622897,52.881757,39.610956)" stroke-width="1.19553" stroke-linecap="round" stroke-linejoin="round" fill="none" stroke="#000000" d="M-3.02867 3.83081C-2.47534 1.53229-1.24231 .44691 0 0-1.24231-.44691-2.47534-1.53229-3.02867-3.83081"/>
<path transform="matrix(1.00006,0,0,-1.00006,17.635163,145.35076)" stroke-width=".3985" stroke-linecap="butt" stroke-miterlimit="10" stroke-linejoin="miter" fill="none" stroke="#000000" d="M141.73404 35.43349 177.04154 141.35602"/>
<path transform="matrix(.31622897,-.94869688,-.94869688,-.31622897,194.75032,3.7972565)" stroke-width=".3985" stroke-linecap="round" stroke-linejoin="round" fill="none" stroke="#000000" d="M-2.07224 2.39104C-1.69365 .95639-.84999 .27895 0 0-.84999-.27895-1.69365-.95639-2.07224-2.39104"/>
<path transform="matrix(1.00006,0,0,-1.00006,17.635163,145.35076)" stroke-width=".3985" stroke-linecap="butt" stroke-miterlimit="10" stroke-linejoin="miter" fill="none" stroke="#000000" d="M35.43349 106.30052 176.78095 141.6374"/>
<path transform="matrix(.97019818,-.24252455,-.24252455,-.97019818,194.62001,3.65654)" stroke-width=".3985" stroke-linecap="round" stroke-linejoin="round" fill="none" stroke="#000000" d="M-2.07224 2.39104C-1.69365 .95639-.84999 .27895 0 0-.84999-.27895-1.69365-.95639-2.07224-2.39104"/>
<path transform="matrix(1.00006,0,0,-1.00006,17.635163,145.35076)" stroke-width=".3985" stroke-linecap="butt" stroke-miterlimit="10" stroke-linejoin="miter" fill="none" stroke="#000000" d="M0 106.30052H35.43349V141.73404"/>
<path transform="matrix(1.00006,0,0,-1.00006,17.635163,145.35076)" stroke-width=".3985" stroke-linecap="butt" stroke-miterlimit="10" stroke-linejoin="miter" fill="none" stroke="#000000" d="M141.73404 0V35.43349H177.16754"/>
<path transform="matrix(1.00006,0,0,-1.00006,17.635163,145.35076)" stroke-width=".3985" stroke-linecap="butt" stroke-miterlimit="10" stroke-linejoin="miter" fill="none" stroke="#000000" d="M35.43349 0V-3.54355"/>
<use data-text="x" xlink:href="#font_1_7" transform="matrix(9.963197,0,0,-9.963197,47.988985,156.70444)"/>
<use data-text="2" xlink:href="#font_2_2" transform="matrix(6.9742186,0,0,-6.9742186,53.68332,158.19953)"/>
<path transform="matrix(1.00006,0,0,-1.00006,17.635163,145.35076)" stroke-width=".3985" stroke-linecap="butt" stroke-miterlimit="10" stroke-linejoin="miter" fill="none" stroke="#000000" d="M141.73404 0V-3.54355"/>
<use data-text="x" xlink:href="#font_1_7" transform="matrix(9.963197,0,0,-9.963197,154.29535,156.70444)"/>
<use data-text="1" xlink:href="#font_2_1" transform="matrix(6.9742186,0,0,-6.9742186,159.98969,158.19953)"/>
<path transform="matrix(1.00006,0,0,-1.00006,17.635163,145.35076)" stroke-width=".3985" stroke-linecap="butt" stroke-miterlimit="10" stroke-linejoin="miter" fill="none" stroke="#000000" d="M0 35.43349H-3.54355"/>
<use data-text="y" xlink:href="#font_1_8" transform="matrix(9.963197,0,0,-9.963197,1.2171784,111.091709)"/>
<use data-text="1" xlink:href="#font_2_1" transform="matrix(6.9742186,0,0,-6.9742186,6.1024706,112.58679)"/>
<path transform="matrix(1.00006,0,0,-1.00006,17.635163,145.35076)" stroke-width=".3985" stroke-linecap="butt" stroke-miterlimit="10" stroke-linejoin="miter" fill="none" stroke="#000000" d="M0 106.30052H-3.54355"/>
<use data-text="y" xlink:href="#font_1_8" transform="matrix(9.963197,0,0,-9.963197,1.2171784,40.22045)"/>
<use data-text="2" xlink:href="#font_2_2" transform="matrix(6.9742186,0,0,-6.9742186,6.1024706,41.715539)"/>
<path transform="matrix(1.00006,0,0,-1.00006,17.635163,145.35076)" stroke-width=".3985" stroke-linecap="butt" stroke-miterlimit="10" stroke-linejoin="miter" fill="none" stroke="#000000" d="M17.71672 88.58376"/>
<use data-text="C" xlink:href="#font_1_3" transform="matrix(9.963197,0,0,-9.963197,31.43599,60.16565)"/>
<path transform="matrix(1.00006,0,0,-1.00006,17.635163,145.35076)" stroke-width=".3985" stroke-linecap="butt" stroke-miterlimit="10" stroke-linejoin="miter" fill="none" stroke="#000000" d="M17.71672 124.01727"/>
<use data-text="A" xlink:href="#font_1_1" transform="matrix(9.963197,0,0,-9.963197,31.616997,24.730523)"/>
<path transform="matrix(1.00006,0,0,-1.00006,17.635163,145.35076)" stroke-width=".3985" stroke-linecap="butt" stroke-miterlimit="10" stroke-linejoin="miter" fill="none" stroke="#000000" d="M88.58376 132.87566"/>
<use data-text="B" xlink:href="#font_1_2" transform="matrix(9.963197,0,0,-9.963197,102.19524,15.870987)"/>
<path transform="matrix(1.00006,0,0,-1.00006,17.635163,145.35076)" stroke-width=".3985" stroke-linecap="butt" stroke-miterlimit="10" stroke-linejoin="miter" fill="none" stroke="#000000" d="M106.30052 8.85835"/>
<use data-text="E" xlink:href="#font_1_5" transform="matrix(9.963197,0,0,-9.963197,119.977298,139.89643)"/>
<path transform="matrix(1.00006,0,0,-1.00006,17.635163,145.35076)" stroke-width=".3985" stroke-linecap="butt" stroke-miterlimit="10" stroke-linejoin="miter" fill="none" stroke="#000000" d="M159.45078 17.71672"/>
<use data-text="F" xlink:href="#font_1_6" transform="matrix(9.963197,0,0,-9.963197,173.20049,131.0369)"/>
<path transform="matrix(1.00006,0,0,-1.00006,17.635163,145.35076)" stroke-width=".3985" stroke-linecap="butt" stroke-miterlimit="10" stroke-linejoin="miter" fill="none" stroke="#000000" d="M159.45078 53.15024"/>
<use data-text="D" xlink:href="#font_1_4" transform="matrix(9.963197,0,0,-9.963197,172.83248,95.601779)"/>
</svg>
