<svg xmlns="http://www.w3.org/2000/svg" xmlns:xlink="http://www.w3.org/1999/xlink" xmlns:inkscape="http://www.inkscape.org/namespaces/inkscape" version="1.1" width="202" height="60" viewBox="0 0 202 60">
<defs>
<path id="font_1_1" d="M.2869873 .68333438C.2869873 .6843262 .2869873 .69433596 .27398683 .69433596 .25099183 .69433596 .17799378 .6863251 .1519928 .6843262 .14399719 .68333438 .1329956 .6823273 .1329956 .6643219 .1329956 .6523285 .14199829 .6523285 .15699768 .6523285 .20498657 .6523285 .20698548 .6453247 .20698548 .6353302L.20399475 .6153412 .05899048 .039260866C.054992677 .025253296 .054992677 .023254395 .054992677 .01725769 .054992677-.0057525637 .07499695-.0107421879 .083999637-.0107421879 .09700012-.0107421879 .11199951-.0017547608 .117996219 .010253906 .12298584 .019256592 .16799927 .20431519 .17399597 .22932434 .20799256 .22631836 .2899933 .21031189 .2899933 .14428711 .2899933 .13729859 .2899933 .13328552 .2869873 .123291019 .2849884 .11128235 .2829895 .09927368 .2829895 .088272098 .2829895 .029251099 .32299806-.0107421879 .375-.0107421879 .40499879-.0107421879 .43199159 .0052490236 .45399476 .042266847 .47898866 .08627319 .48999024 .14129639 .48999024 .14329529 .48999024 .1532898 .48098756 .1532898 .47799684 .1532898 .46798707 .1532898 .46699525 .14929199 .46398927 .13528443 .44400025 .06227112 .42099 .011245728 .3769989 .011245728 .35798646 .011245728 .34498597 .022247315 .34498597 .058273317 .34498597 .07527161 .34899903 .09828186 .35299684 .11428833 .35699464 .13128662 .35699464 .13528443 .35699464 .14529419 .35699464 .21031189 .2939911 .23931885 .20899964 .2503357 .23999024 .26834107 .27198792 .30033876 .29499818 .32435609 .34298707 .37734986 .3889923 .42037965 .43798829 .42037965 .44400025 .42037965 .44499208 .42037965 .44699098 .41937257 .45899964 .41737367 .45999146 .41737367 .46798707 .4113617 .46998597 .4103546 .46998597 .40934754 .47200013 .40734864 .42399598 .4043579 .4149933 .36535646 .4149933 .35334779 .4149933 .33735658 .42599488 .31835938 .45298768 .31835938 .47898866 .31835938 .5079956 .3403473 .5079956 .37934876 .5079956 .40934754 .4850006 .4423828 .43998719 .4423828 .4119873 .4423828 .3659973 .43437196 .2939911 .35435487 .2599945 .3163452 .22099304 .27633668 .18299866 .26133729L.2869873 .68333438Z"/>
<path id="font_2_1" d="M.33499146 .63612368C.33499146 .6630554 .33299256 .6640625 .30499269 .6640625 .24099732 .6014404 .1499939 .6004486 .10899353 .6004486V.5644531C.1329956 .5644531 .19898987 .5644531 .2539978 .592453V.08203125C.2539978 .04899597 .2539978 .035995485 .1539917 .035995485H.115997318V0C.13398743 .0009918213 .25698854 .0039978029 .2939911 .0039978029 .32499696 .0039978029 .45098878 .0009918213 .47299195 0V.035995485H.43499757C.33499146 .035995485 .33499146 .04899597 .33499146 .08203125V.63612368Z"/>
<path id="font_1_2" d="M.33399964 .30233766C.33999635 .32835389 .36299134 .42037965 .43299867 .42037965 .43798829 .42037965 .46199037 .42037965 .48298646 .40734864 .45498658 .402359 .43499757 .37734986 .43499757 .35334779 .43499757 .33735658 .44599916 .31835938 .47299195 .31835938 .49499513 .31835938 .5269928 .3363495 .5269928 .37635804 .5269928 .42837525 .46798707 .4423828 .43399049 .4423828 .37599183 .4423828 .34098817 .38935853 .32899476 .36634828 .3039856 .43237306 .25 .4423828 .22099304 .4423828 .116989139 .4423828 .05999756 .3133545 .05999756 .28834535 .05999756 .27833558 .069992069 .27833558 .07199097 .27833558 .07998657 .27833558 .08299255 .28033448 .084991458 .28933717 .11898804 .39535523 .18499756 .42037965 .21899414 .42037965 .23799134 .42037965 .272995 .4113617 .272995 .35334779 .272995 .32235719 .2559967 .25532533 .21899414 .11528015 .20298767 .053268434 .16799927 .011245728 .12399292 .011245728 .117996219 .011245728 .09498596 .011245728 .07398987 .024276734 .09899902 .029266358 .12098694 .05027771 .12098694 .07827759 .12098694 .105270389 .09899902 .11328125 .083999637 .11328125 .053985597 .11328125 .0289917 .08728027 .0289917 .055267335 .0289917 .009246826 .07899475-.0107421879 .12298584-.0107421879 .18899536-.0107421879 .22499085 .059280397 .22799683 .0652771 .23999024 .028274537 .27598573-.0107421879 .33599855-.0107421879 .43899537-.0107421879 .49598695 .118270877 .49598695 .14328003 .49598695 .1532898 .4869995 .1532898 .48399354 .1532898 .47499085 .1532898 .47299195 .14929199 .47099305 .14228821 .43798829 .03527832 .36999513 .011245728 .33799745 .011245728 .29899598 .011245728 .2829895 .043273927 .2829895 .07727051 .2829895 .09927368 .2889862 .121276859 .2999878 .16529846L.33399964 .30233766Z"/>
<path id="font_2_2" d="M.5049896 .18203736H.47099305C.46798707 .16001892 .45799256 .100997928 .44499208 .09098816 .43699647 .084991458 .3600006 .084991458 .34599305 .084991458H.1619873C.2669983 .17803955 .3019867 .20603943 .3619995 .25306703 .43598939 .312088 .5049896 .374115 .5049896 .46914674 .5049896 .5900879 .39898683 .6640625 .2709961 .6640625 .14698792 .6640625 .06298828 .57710269 .06298828 .4851532 .06298828 .43414308 .10598755 .42915345 .115997318 .42915345 .13999939 .42915345 .16899109 .44615174 .16899109 .48214723 .16899109 .5001526 .1619873 .53515627 .10998535 .53515627 .14099121 .6060791 .20899964 .62805178 .2559967 .62805178 .35598756 .62805178 .4079895 .5501404 .4079895 .46914674 .4079895 .38212586 .34599305 .3130951 .31399537 .27708436L.07299805 .038986207C.06298828 .02999878 .06298828 .027999878 .06298828 0H.47499085L.5049896 .18203736Z"/>
</defs>
<path transform="matrix(1.00003,0,0,-1,2.0964967,58.492)" stroke-width=".3985" stroke-linecap="butt" stroke-miterlimit="10" stroke-linejoin="miter" fill="none" stroke="#000000" d="M0 56.69362V0H198.42766"/>
<path transform="matrix(1.00003,0,0,-1,2.0964967,58.492)" stroke-width=".3985" stroke-linecap="butt" stroke-miterlimit="10" stroke-linejoin="miter" fill="none" stroke="#000000" d="M0 14.17339C.33206 15.55571 1.21832 16.66408 2.24156 16.66408 3.26479 16.66408 4.15105 15.55571 4.48312 14.17339 4.81519 12.79108 4.59308 11.6827 4.234 11.6827 3.8749 11.6827 3.65279 12.79108 3.98486 14.17339 4.31717 15.55571 5.20343 16.66408 6.22667 16.66408 7.2499 16.66408 8.13615 15.55571 8.46823 14.17339 8.8003 12.79108 8.57819 11.6827 8.2191 11.6827 7.86 11.6827 7.6379 12.79108 7.96997 14.17339 8.30228 15.55571 9.18854 16.66408 10.21178 16.66408 11.235 16.66408 12.12126 15.55571 12.45334 14.17339 12.7854 12.79108 12.5633 11.6827 12.20421 11.6827 11.84511 11.6827 11.623 12.79108 11.95508 14.17339 12.28738 15.55571 13.17365 16.66408 14.19688 16.66408 15.22011 16.66408 16.10637 15.55571 16.43845 14.17339 16.77051 12.79108 16.5484 11.6827 16.18932 11.6827 15.83022 11.6827 15.60811 12.79108 15.94019 14.17339 16.27249 15.55571 17.15875 16.66408 18.18199 16.66408 19.20522 16.66408 20.09148 15.55571 20.42355 14.17339 20.75562 12.79108 20.53351 11.6827 20.17442 11.6827 19.81532 11.6827 19.59322 12.79108 19.9253 14.17339 20.2576 15.55571 21.14386 16.66408 22.1671 16.66408 23.19032 16.66408 24.07658 15.55571 24.40866 14.17339 24.74072 12.79108 24.51862 11.6827 24.15953 11.6827 23.80043 11.6827 23.57832 12.79108 23.9104 14.17339 24.2427 15.55571 25.12897 16.66408 26.1522 16.66408 27.17543 16.66408 28.06169 15.55571 28.39377 14.17339 28.72583 12.79108 28.50372 11.6827 28.14464 11.6827 27.78554 11.6827 27.56343 12.79108 27.89551 14.17339 28.22781 15.55571 29.11407 16.66408 30.13731 16.66408 31.16054 16.66408 32.0468 15.55571 32.37888 14.17339 32.71094 12.79108 32.48883 11.6827 32.12975 11.6827 31.77065 11.6827 31.54854 12.79108 31.88062 14.17339 32.21292 15.55571 33.09918 16.66408 34.12242 16.66408 35.14565 16.66408 36.0319 15.55571 36.36398 14.17339 36.69604 12.79108 36.47394 11.6827 36.11485 11.6827 35.75575 11.6827 35.53365 12.79108 35.86572 14.17339 36.19803 15.55571 37.08429 16.66408 38.10753 16.66408 39.13075 16.66408 40.01701 15.55571 40.34909 14.17339 40.68115 12.79108 40.45905 11.6827 40.09996 11.6827 39.74086 11.6827 39.51875 12.79108 39.85083 14.17339 40.18314 15.55571 41.0694 16.66408 42.09264 16.66408 43.11586 16.66408 44.00212 15.55571 44.3342 14.17339 44.66626 12.79108 44.44415 11.6827 44.08507 11.6827 43.72597 11.6827 43.50386 12.79108 43.83594 14.17339 44.16824 15.55571 45.0545 16.66408 46.07774 16.66408 47.10097 16.66408 47.98723 15.55571 48.3193 14.17339 48.65137 12.79108 48.42926 11.6827 48.07018 11.6827 47.71107 11.6827 47.48897 12.79108 47.82104 14.17339 48.15335 15.55571 49.03961 16.66408 50.06285 16.66408 51.08607 16.66408 51.97234 15.55571 52.30441 14.17339 52.63647 12.79108 52.41437 11.6827 52.05528 11.6827 51.69618 11.6827 51.47408 12.79108 51.80615 14.17339 52.13846 15.55571 53.02472 16.66408 54.04796 16.66408 55.07118 16.66408 55.95744 15.55571 56.28952 14.17339 56.62158 12.79108 56.39948 11.6827 56.04039 11.6827 55.68129 11.6827 55.45918 12.79108 55.79126 14.17339 56.12357 15.55571 57.00983 16.66408 58.03307 16.66408 59.05629 16.66408 59.94255 15.55571 60.27463 14.17339 60.60669 12.79108 60.38458 11.6827 60.0255 11.6827 59.6664 11.6827 59.44429 12.79108 59.77637 14.17339 60.10867 15.55571 60.99493 16.66408 62.01817 16.66408 63.0414 16.66408 63.92766 15.55571 64.25974 14.17339 64.5918 12.79108 64.36969 11.6827 64.0106 11.6827 63.6515 11.6827 63.4294 12.79108 63.76147 14.17339 64.09378 15.55571 64.98004 16.66408 66.00328 16.66408 67.0265 16.66408 67.91277 15.55571 68.24484 14.17339H70.867"/>
<use data-text="k" xlink:href="#font_1_1" transform="matrix(9.962899,0,0,-9.9626,32.702417,39.304)"/>
<use data-text="1" xlink:href="#font_2_1" transform="matrix(6.9740097,0,0,-6.9738,37.888574,40.799)"/>
<path transform="matrix(1.00003,0,0,-1,2.0964967,58.492)" stroke-width=".3985" stroke-linecap="butt" stroke-miterlimit="10" stroke-linejoin="miter" fill="none" stroke="#000000" d="M70.867 0V28.3468H99.21382V0ZM99.21382 28.3468"/>
<path transform="matrix(1.00003,0,0,-1,2.0964967,58.492)" stroke-width=".3985" stroke-linecap="butt" stroke-miterlimit="10" stroke-linejoin="miter" fill="none" stroke="#000000" d="M85.04042 14.17339"/>
<use data-text="x" xlink:href="#font_1_2" transform="matrix(9.962899,0,0,-9.9626,82.0579,45.716)"/>
<use data-text="1" xlink:href="#font_2_1" transform="matrix(6.9740097,0,0,-6.9738,87.752079,47.211)"/>
<path transform="matrix(1.00003,0,0,-1,2.0964967,58.492)" stroke-width=".3985" stroke-linecap="butt" stroke-miterlimit="10" stroke-linejoin="miter" fill="none" stroke="#000000" d="M99.21382 14.17339C99.5459 15.55571 100.43214 16.66408 101.45538 16.66408 102.4786 16.66408 103.36487 15.55571 103.69695 14.17339 104.02902 12.79108 103.8069 11.6827 103.44781 11.6827 103.08873 11.6827 102.86661 12.79108 103.19868 14.17339 103.531 15.55571 104.41725 16.66408 105.44049 16.66408 106.46371 16.66408 107.34998 15.55571 107.68205 14.17339 108.01413 12.79108 107.792 11.6827 107.43292 11.6827 107.07384 11.6827 106.85172 12.79108 107.18379 14.17339 107.51611 15.55571 108.40236 16.66408 109.4256 16.66408 110.44882 16.66408 111.33508 15.55571 111.66716 14.17339 111.99924 12.79108 111.77711 11.6827 111.41803 11.6827 111.05894 11.6827 110.83682 12.79108 111.1689 14.17339 111.50122 15.55571 112.38747 16.66408 113.4107 16.66408 114.43393 16.66408 115.32019 15.55571 115.65227 14.17339 115.98434 12.79108 115.76222 11.6827 115.40314 11.6827 115.04405 11.6827 114.82193 12.79108 115.154 14.17339 115.48633 15.55571 116.37257 16.66408 117.39581 16.66408 118.41904 16.66408 119.3053 15.55571 119.63737 14.17339 119.96945 12.79108 119.74733 11.6827 119.38824 11.6827 119.02916 11.6827 118.80704 12.79108 119.13911 14.17339 119.47144 15.55571 120.35768 16.66408 121.38092 16.66408 122.40414 16.66408 123.2904 15.55571 123.62248 14.17339 123.95456 12.79108 123.73244 11.6827 123.37335 11.6827 123.01427 11.6827 122.79214 12.79108 123.12422 14.17339 123.45654 15.55571 124.34279 16.66408 125.36603 16.66408 126.38925 16.66408 127.27551 15.55571 127.60759 14.17339 127.93967 12.79108 127.71754 11.6827 127.35846 11.6827 126.99937 11.6827 126.77725 12.79108 127.10933 14.17339 127.44165 15.55571 128.3279 16.66408 129.35114 16.66408 130.37436 16.66408 131.26062 15.55571 131.5927 14.17339 131.92478 12.79108 131.70265 11.6827 131.34357 11.6827 130.98448 11.6827 130.76236 12.79108 131.09444 14.17339 131.42676 15.55571 132.313 16.66408 133.33625 16.66408 134.35947 16.66408 135.24573 15.55571 135.5778 14.17339 135.90988 12.79108 135.68776 11.6827 135.32868 11.6827 134.96959 11.6827 134.74747 12.79108 135.07955 14.17339 135.41187 15.55571 136.29811 16.66408 137.32135 16.66408 138.34458 16.66408 139.23084 15.55571 139.56291 14.17339 139.89499 12.79108 139.67287 11.6827 139.31378 11.6827 138.9547 11.6827 138.73258 12.79108 139.06465 14.17339 139.39698 15.55571 140.28322 16.66408 141.30646 16.66408 142.32968 16.66408 143.21595 15.55571 143.54802 14.17339 143.8801 12.79108 143.65798 11.6827 143.29889 11.6827 142.9398 11.6827 142.71768 12.79108 143.04976 14.17339 143.38208 15.55571 144.26833 16.66408 145.29157 16.66408 146.31479 16.66408 147.20105 15.55571 147.53313 14.17339 147.8652 12.79108 147.64308 11.6827 147.284 11.6827 146.92491 11.6827 146.70279 12.79108 147.03487 14.17339 147.36719 15.55571 148.25344 16.66408 149.27667 16.66408 150.2999 16.66408 151.18616 15.55571 151.51824 14.17339 151.85031 12.79108 151.62819 11.6827 151.2691 11.6827 150.91002 11.6827 150.6879 12.79108 151.01998 14.17339 151.3523 15.55571 152.23854 16.66408 153.26178 16.66408 154.285 16.66408 155.17127 15.55571 155.50334 14.17339H155.90744"/>
<use data-text="k" xlink:href="#font_1_1" transform="matrix(9.962899,0,0,-9.9626,124.83318,39.304)"/>
<use data-text="2" xlink:href="#font_2_2" transform="matrix(6.9740097,0,0,-6.9738,130.01935,40.799)"/>
<path transform="matrix(1.00003,0,0,-1,2.0964967,58.492)" stroke-width=".3985" stroke-linecap="butt" stroke-miterlimit="10" stroke-linejoin="miter" fill="none" stroke="#000000" d="M155.90744 0V28.3468H184.25424V0ZM184.25424 28.3468"/>
<path transform="matrix(1.00003,0,0,-1,2.0964967,58.492)" stroke-width=".3985" stroke-linecap="butt" stroke-miterlimit="10" stroke-linejoin="miter" fill="none" stroke="#000000" d="M170.08086 14.17339"/>
<use data-text="x" xlink:href="#font_1_2" transform="matrix(9.962899,0,0,-9.9626,167.10045,45.716)"/>
<use data-text="2" xlink:href="#font_2_2" transform="matrix(6.9740097,0,0,-6.9738,172.79462,47.211)"/>
</svg>
